<svg width="360" height="120" viewBox="0 0 360 120" fill="none" xmlns="http://www.w3.org/2000/svg">
<rect width="360" height="120" fill="#C4C4C4"/>
<g clip-path="url(#clip0)">
<path d="M46.1862 44.6172L49.603 26.4062H54.8155L49.1846 52H43.9199L39.7883 34.8789L35.6568 52H30.392L24.7612 26.4062H29.9737L33.4079 44.582L37.5918 26.4062H42.0197L46.1862 44.6172ZM65.4495 52.3516C62.6835 52.3516 60.4288 51.4961 58.6855 49.7852C56.9539 48.0742 56.0881 45.7949 56.0881 42.9473V42.4551C56.0881 40.5449 56.4541 38.8398 57.1863 37.3398C57.9185 35.8281 58.9528 34.668 60.2894 33.8594C61.6375 33.0391 63.1716 32.6289 64.8916 32.6289C67.4717 32.6289 69.4997 33.4492 70.9757 35.0898C72.4633 36.7305 73.2071 39.0566 73.2071 42.0684V44.1426H61.1959C61.3586 45.3848 61.8467 46.3809 62.6602 47.1309C63.4854 47.8809 64.5256 48.2559 65.7807 48.2559C67.7215 48.2559 69.2382 47.5469 70.3307 46.1289L72.8062 48.9238C72.0508 50.002 71.028 50.8457 69.7379 51.4551C68.448 52.0527 67.0185 52.3516 65.4495 52.3516ZM64.8742 36.7422C63.8747 36.7422 63.0612 37.082 62.4336 37.7617C61.8176 38.4414 61.4225 39.4141 61.2482 40.6797H68.2562V40.2754C68.233 39.1504 67.9308 38.2832 67.3496 37.6738C66.7686 37.0527 65.9435 36.7422 64.8742 36.7422ZM81.6446 42.9824V52H76.4148V26.4062H86.3166C88.2226 26.4062 89.8962 26.7578 91.3372 27.4609C92.79 28.1641 93.9057 29.166 94.6844 30.4668C95.4631 31.7559 95.8524 33.2266 95.8524 34.8789C95.8524 37.3867 94.9981 39.3672 93.2898 40.8203C91.5929 42.2617 89.2395 42.9824 86.2294 42.9824H81.6446ZM81.6446 38.7109H86.3166C87.6997 38.7109 88.7514 38.3828 89.472 37.7266C90.2042 37.0703 90.5702 36.1328 90.5702 34.9141C90.5702 33.6602 90.2042 32.6465 89.472 31.8731C88.7398 31.0996 87.7287 30.7012 86.4387 30.6777H81.6446V38.7109ZM104.447 52H99.3912V25H104.447V52ZM119.544 52C119.311 51.543 119.143 50.9746 119.038 50.2949C117.818 51.666 116.231 52.3516 114.279 52.3516C112.431 52.3516 110.897 51.8125 109.677 50.7344C108.468 49.6562 107.864 48.2969 107.864 46.6562C107.864 44.6406 108.602 43.0938 110.078 42.0156C111.565 40.9375 113.709 40.3926 116.51 40.3809H118.829V39.291C118.829 38.4121 118.602 37.709 118.149 37.1816C117.707 36.6543 117.004 36.3906 116.04 36.3906C115.191 36.3906 114.523 36.5957 114.035 37.0059C113.558 37.416 113.32 37.9785 113.32 38.6934H108.282C108.282 37.5918 108.619 36.5723 109.293 35.6348C109.967 34.6973 110.92 33.9648 112.152 33.4375C113.384 32.8984 114.767 32.6289 116.301 32.6289C118.626 32.6289 120.468 33.2207 121.827 34.4043C123.198 35.5762 123.885 37.2285 123.885 39.3613V47.6055C123.897 49.4102 124.145 50.7754 124.634 51.7012V52H119.544ZM115.377 48.4668C116.121 48.4668 116.807 48.3027 117.434 47.9746C118.062 47.6348 118.527 47.1836 118.829 46.6211V43.3516H116.946C114.424 43.3516 113.082 44.2305 112.919 45.9883L112.902 46.2871C112.902 46.9199 113.123 47.4414 113.564 47.8516C114.006 48.2617 114.61 48.4668 115.377 48.4668ZM132.392 32.9805L132.548 35.1777C133.896 33.4785 135.704 32.6289 137.97 32.6289C139.97 32.6289 141.457 33.2207 142.433 34.4043C143.409 35.5879 143.909 37.3574 143.933 39.7129V52H138.895V39.8359C138.895 38.7578 138.661 37.9785 138.196 37.498C137.732 37.0059 136.959 36.7598 135.879 36.7598C134.46 36.7598 133.397 37.3691 132.688 38.5879V52H127.65V32.9805H132.392Z" fill="#FF9900"/>
</g>
<path d="M108.59 79.7422C108.303 82.776 107.184 85.1458 105.23 86.8516C103.277 88.5443 100.68 89.3906 97.4375 89.3906C95.1719 89.3906 93.1732 88.8568 91.4414 87.7891C89.7227 86.7083 88.3945 85.1784 87.457 83.1992C86.5195 81.2201 86.0312 78.9219 85.9922 76.3047V73.6484C85.9922 70.9661 86.4674 68.6029 87.418 66.5586C88.3685 64.5143 89.7292 62.9388 91.5 61.832C93.2839 60.7253 95.3411 60.1719 97.6719 60.1719C100.81 60.1719 103.336 61.0247 105.25 62.7305C107.164 64.4362 108.277 66.8451 108.59 69.957H103.668C103.434 67.9128 102.835 66.4414 101.871 65.543C100.921 64.6315 99.5208 64.1758 97.6719 64.1758C95.5234 64.1758 93.8698 64.9635 92.7109 66.5391C91.5651 68.1016 90.9792 70.3997 90.9531 73.4336V75.9531C90.9531 79.026 91.5 81.3698 92.5938 82.9844C93.7005 84.599 95.3151 85.4062 97.4375 85.4062C99.3776 85.4062 100.836 84.9701 101.812 84.0977C102.789 83.2253 103.408 81.7734 103.668 79.7422H108.59ZM111.676 78.2383C111.676 76.168 112.086 74.306 112.906 72.6523C113.727 70.9857 114.879 69.7096 116.363 68.8242C117.848 67.9258 119.553 67.4766 121.48 67.4766C124.332 67.4766 126.643 68.3945 128.414 70.2305C130.198 72.0664 131.161 74.5013 131.305 77.5352L131.324 78.6484C131.324 80.7318 130.921 82.5938 130.113 84.2344C129.319 85.875 128.173 87.1445 126.676 88.043C125.191 88.9414 123.473 89.3906 121.52 89.3906C118.538 89.3906 116.148 88.401 114.352 86.4219C112.568 84.4297 111.676 81.7799 111.676 78.4727V78.2383ZM116.422 78.6484C116.422 80.8229 116.871 82.5286 117.77 83.7656C118.668 84.9896 119.918 85.6016 121.52 85.6016C123.121 85.6016 124.365 84.9766 125.25 83.7266C126.148 82.4766 126.598 80.6471 126.598 78.2383C126.598 76.1029 126.135 74.4102 125.211 73.1602C124.299 71.9102 123.056 71.2852 121.48 71.2852C119.931 71.2852 118.701 71.9036 117.789 73.1406C116.878 74.3646 116.422 76.2005 116.422 78.6484ZM139.801 67.8672L139.938 70.0742C141.422 68.3424 143.453 67.4766 146.031 67.4766C148.857 67.4766 150.79 68.5573 151.832 70.7188C153.368 68.5573 155.53 67.4766 158.316 67.4766C160.647 67.4766 162.379 68.1211 163.512 69.4102C164.658 70.6992 165.243 72.6003 165.27 75.1133V89H160.523V75.25C160.523 73.9089 160.23 72.9258 159.645 72.3008C159.059 71.6758 158.089 71.3633 156.734 71.3633C155.654 71.3633 154.768 71.6562 154.078 72.2422C153.401 72.8151 152.926 73.5703 152.652 74.5078L152.672 89H147.926V75.0938C147.861 72.6068 146.591 71.3633 144.117 71.3633C142.216 71.3633 140.868 72.138 140.074 73.6875V89H135.328V67.8672H139.801ZM179.449 89.3906C176.441 89.3906 174 88.4466 172.125 86.5586C170.263 84.6576 169.332 82.1315 169.332 78.9805V78.3945C169.332 76.2852 169.736 74.4036 170.543 72.75C171.363 71.0833 172.509 69.7878 173.98 68.8633C175.452 67.9388 177.092 67.4766 178.902 67.4766C181.78 67.4766 184 68.3945 185.562 70.2305C187.138 72.0664 187.926 74.6641 187.926 78.0234V79.9375H174.117C174.26 81.6823 174.84 83.0625 175.855 84.0781C176.884 85.0938 178.173 85.6016 179.723 85.6016C181.897 85.6016 183.668 84.7227 185.035 82.9648L187.594 85.4062C186.747 86.6693 185.615 87.6523 184.195 88.3555C182.789 89.0456 181.207 89.3906 179.449 89.3906ZM178.883 71.2852C177.581 71.2852 176.526 71.7409 175.719 72.6523C174.924 73.5638 174.417 74.8333 174.195 76.4609H183.238V76.1094C183.134 74.5208 182.711 73.3229 181.969 72.5156C181.227 71.6953 180.198 71.2852 178.883 71.2852ZM202.691 72.2031C202.066 72.099 201.422 72.0469 200.758 72.0469C198.583 72.0469 197.118 72.8802 196.363 74.5469V89H191.617V67.8672H196.148L196.266 70.2305C197.411 68.3945 199 67.4766 201.031 67.4766C201.708 67.4766 202.268 67.5677 202.711 67.75L202.691 72.2031ZM213.98 85.6016C215.165 85.6016 216.148 85.2565 216.93 84.5664C217.711 83.8763 218.128 83.0234 218.18 82.0078H222.652C222.6 83.3229 222.19 84.5534 221.422 85.6992C220.654 86.832 219.612 87.7305 218.297 88.3945C216.982 89.0586 215.562 89.3906 214.039 89.3906C211.083 89.3906 208.74 88.4336 207.008 86.5195C205.276 84.6055 204.41 81.9622 204.41 78.5898V78.1016C204.41 74.8854 205.27 72.3138 206.988 70.3867C208.707 68.4466 211.051 67.4766 214.02 67.4766C216.533 67.4766 218.577 68.2122 220.152 69.6836C221.741 71.1419 222.574 73.0625 222.652 75.4453H218.18C218.128 74.2344 217.711 73.2383 216.93 72.457C216.161 71.6758 215.178 71.2852 213.98 71.2852C212.444 71.2852 211.259 71.8451 210.426 72.9648C209.592 74.0716 209.169 75.7578 209.156 78.0234V78.7852C209.156 81.0768 209.566 82.7891 210.387 83.9219C211.22 85.0417 212.418 85.6016 213.98 85.6016ZM231.285 89H226.539V67.8672H231.285V89ZM226.246 62.3789C226.246 61.6497 226.474 61.0443 226.93 60.5625C227.398 60.0807 228.062 59.8398 228.922 59.8398C229.781 59.8398 230.445 60.0807 230.914 60.5625C231.383 61.0443 231.617 61.6497 231.617 62.3789C231.617 63.0951 231.383 63.694 230.914 64.1758C230.445 64.6445 229.781 64.8789 228.922 64.8789C228.062 64.8789 227.398 64.6445 226.93 64.1758C226.474 63.694 226.246 63.0951 226.246 62.3789ZM249.098 89C248.889 88.5964 248.707 87.9388 248.551 87.0273C247.04 88.6029 245.191 89.3906 243.004 89.3906C240.882 89.3906 239.15 88.7852 237.809 87.5742C236.467 86.3633 235.797 84.8659 235.797 83.082C235.797 80.8294 236.63 79.1042 238.297 77.9062C239.977 76.6953 242.372 76.0898 245.484 76.0898H248.395V74.7031C248.395 73.6094 248.089 72.737 247.477 72.0859C246.865 71.4219 245.934 71.0898 244.684 71.0898C243.603 71.0898 242.717 71.3633 242.027 71.9102C241.337 72.444 240.992 73.1276 240.992 73.9609H236.246C236.246 72.8021 236.63 71.7214 237.398 70.7188C238.167 69.7031 239.208 68.9089 240.523 68.3359C241.852 67.763 243.329 67.4766 244.957 67.4766C247.431 67.4766 249.404 68.1016 250.875 69.3516C252.346 70.5885 253.102 72.3333 253.141 74.5859V84.1172C253.141 86.0182 253.408 87.5352 253.941 88.668V89H249.098ZM243.883 85.582C244.82 85.582 245.699 85.3542 246.52 84.8984C247.353 84.4427 247.978 83.8307 248.395 83.0625V79.0781H245.836C244.078 79.0781 242.757 79.3841 241.871 79.9961C240.986 80.6081 240.543 81.474 240.543 82.5938C240.543 83.5052 240.842 84.2344 241.441 84.7812C242.053 85.3151 242.867 85.582 243.883 85.582ZM263.16 89H258.414V59H263.16V89Z" fill="#FF0000"/>
<g filter="url(#filter0_d)">
<path d="M272 39L288 41.5V86.5L272 89V39Z" fill="#A58000"/>
</g>
<g filter="url(#filter1_d)">
<path d="M336 39L320 41.5V86.5L336 89V39Z" fill="#A58000"/>
</g>
<g filter="url(#filter2_d)">
<rect x="288" y="42" width="32" height="44" fill="#FFFDEB"/>
<rect x="288.25" y="42.25" width="31.5" height="43.5" stroke="#A58000" stroke-width="0.5"/>
</g>
<path d="M316 30.2752C315.04 35.8521 309.28 38.2116 304 41C298.24 37.9971 292.72 35.8521 292 30.2752C292 24.3521 302.08 22.5534 304 29.4172C305.92 22.5534 316 24.3521 316 30.2752Z" fill="#FF0000" fill-opacity="0.75"/>
<path d="M315 63.6267C314.44 67.4608 311.08 69.0829 308 71C304.64 68.9355 301.42 67.4608 301 63.6267C301 59.5546 306.88 58.318 308 63.0369C309.12 58.318 315 59.5546 315 63.6267Z" fill="#FF0000" fill-opacity="0.5"/>
<path d="M303.277 75.8788C303.728 79.7272 300.902 82.1637 298.423 84.8126C294.644 83.6881 291.152 83.097 289.754 79.5023C288.7 75.5689 294.059 72.8526 296.362 77.1208C296.223 72.2728 302.223 71.9454 303.277 75.8788Z" fill="#FF0000" fill-opacity="0.5"/>
<path d="M303.277 51.8788C303.728 55.7272 300.902 58.1637 298.423 60.8126C294.644 59.6881 291.152 59.097 289.754 55.5023C288.7 51.5689 294.059 48.8526 296.362 53.1208C296.223 48.2728 302.223 47.9454 303.277 51.8788Z" fill="#FF0000" fill-opacity="0.5"/>
<path d="M319 46.6267C318.44 50.4608 315.08 52.0829 312 54C308.64 51.9355 305.42 50.4608 305 46.6267C305 42.5546 310.88 41.318 312 46.0369C313.12 41.318 319 42.5546 319 46.6267Z" fill="#FF0000" fill-opacity="0.5"/>
<path d="M316.935 82.6582C313.637 84.6937 310.235 83.1625 306.787 82.0353C306.209 78.1344 305.268 74.7198 307.936 71.9336C311.055 69.316 315.782 73.0255 312.887 76.9167C317.222 74.7414 320.054 80.0407 316.935 82.6582Z" fill="#FF0000" fill-opacity="0.5"/>
<g filter="url(#filter3_d)">
<path d="M308.629 70.5781C308.629 69.4714 308.277 68.5599 307.574 67.8438C306.871 67.1146 305.699 66.4635 304.059 65.8906C302.418 65.3047 301.142 64.7643 300.23 64.2695C297.197 62.6419 295.68 60.2331 295.68 57.043C295.68 54.8815 296.337 53.1042 297.652 51.7109C298.967 50.3177 300.751 49.4909 303.004 49.2305V44.9727H306.129V49.2695C308.395 49.5951 310.146 50.5586 311.383 52.1602C312.62 53.7487 313.238 55.819 313.238 58.3711H308.512C308.512 56.7305 308.141 55.4414 307.398 54.5039C306.669 53.5534 305.673 53.0781 304.41 53.0781C303.16 53.0781 302.184 53.4167 301.48 54.0938C300.777 54.7708 300.426 55.7409 300.426 57.0039C300.426 58.1367 300.771 59.0482 301.461 59.7383C302.164 60.4154 303.349 61.0599 305.016 61.6719C306.682 62.2839 307.991 62.8503 308.941 63.3711C309.892 63.8919 310.693 64.4909 311.344 65.168C311.995 65.832 312.496 66.6003 312.848 67.4727C313.199 68.3451 313.375 69.3672 313.375 70.5391C313.375 72.7396 312.698 74.5234 311.344 75.8906C310.003 77.2578 308.128 78.0651 305.719 78.3125V82.1211H302.613V78.332C300.035 78.0456 298.049 77.1211 296.656 75.5586C295.276 73.9961 294.586 71.9258 294.586 69.3477H299.332C299.332 70.9883 299.742 72.2578 300.562 73.1562C301.396 74.0547 302.568 74.5039 304.078 74.5039C305.562 74.5039 306.689 74.1458 307.457 73.4297C308.238 72.7135 308.629 71.763 308.629 70.5781Z" fill="#76E234"/>
<path d="M307.574 67.8438L307.214 68.1908L307.217 68.194L307.574 67.8438ZM304.059 65.8906L303.89 66.3615L303.894 66.3627L304.059 65.8906ZM300.23 64.2695L300.469 63.8301L300.467 63.8289L300.23 64.2695ZM303.004 49.2305L303.061 49.7272L303.504 49.676V49.2305H303.004ZM303.004 44.9727V44.4727H302.504V44.9727H303.004ZM306.129 44.9727H306.629V44.4727H306.129V44.9727ZM306.129 49.2695H305.629V49.7028L306.058 49.7644L306.129 49.2695ZM311.383 52.1602L310.987 52.4658L310.988 52.4674L311.383 52.1602ZM313.238 58.3711V58.8711H313.738V58.3711H313.238ZM308.512 58.3711H308.012V58.8711H308.512V58.3711ZM307.398 54.5039L307.002 54.8083L307.006 54.8143L307.398 54.5039ZM301.461 59.7383L301.107 60.0919L301.114 60.0984L301.461 59.7383ZM311.344 65.168L310.983 65.5145L310.987 65.518L311.344 65.168ZM311.344 75.8906L310.989 75.5388L310.987 75.5405L311.344 75.8906ZM305.719 78.3125L305.668 77.8151L305.219 77.8612V78.3125H305.719ZM305.719 82.1211V82.6211H306.219V82.1211H305.719ZM302.613 82.1211H302.113V82.6211H302.613V82.1211ZM302.613 78.332H303.113V77.8845L302.668 77.8351L302.613 78.332ZM296.656 75.5586L296.282 75.8896L296.283 75.8914L296.656 75.5586ZM294.586 69.3477V68.8477H294.086V69.3477H294.586ZM299.332 69.3477H299.832V68.8477H299.332V69.3477ZM300.562 73.1562L300.193 73.4934L300.196 73.4963L300.562 73.1562ZM307.457 73.4297L307.119 73.0611L307.116 73.064L307.457 73.4297ZM309.129 70.5781C309.129 69.3551 308.736 68.3131 307.931 67.4935L307.217 68.194C307.819 68.8067 308.129 69.5876 308.129 70.5781H309.129ZM307.934 67.4967C307.151 66.6843 305.892 66.0013 304.223 65.4186L303.894 66.3627C305.506 66.9258 306.591 67.5448 307.214 68.1908L307.934 67.4967ZM304.227 65.4198C302.596 64.8375 301.348 64.3072 300.469 63.8301L299.992 64.709C300.936 65.2215 302.239 65.7719 303.89 66.3615L304.227 65.4198ZM300.467 63.8289C299.01 63.0475 297.944 62.093 297.24 60.9758C296.538 59.8605 296.18 58.5554 296.18 57.043H295.18C295.18 58.7206 295.58 60.215 296.394 61.5086C297.208 62.8002 298.417 63.864 299.994 64.7101L300.467 63.8289ZM296.18 57.043C296.18 54.9914 296.8 53.3425 298.016 52.0541L297.289 51.3677C295.875 52.8659 295.18 54.7716 295.18 57.043H296.18ZM298.016 52.0541C299.236 50.7617 300.903 49.9767 303.061 49.7272L302.946 48.7338C300.599 49.0051 298.699 49.8737 297.289 51.3677L298.016 52.0541ZM303.504 49.2305V44.9727H302.504V49.2305H303.504ZM303.004 45.4727H306.129V44.4727H303.004V45.4727ZM305.629 44.9727V49.2695H306.629V44.9727H305.629ZM306.058 49.7644C308.213 50.0741 309.84 50.9809 310.987 52.4658L311.779 51.8545C310.451 50.1363 308.576 49.116 306.2 48.7746L306.058 49.7644ZM310.988 52.4674C312.14 53.9469 312.738 55.9001 312.738 58.3711H313.738C313.738 55.738 313.099 53.5505 311.777 51.853L310.988 52.4674ZM313.238 57.8711H308.512V58.8711H313.238V57.8711ZM309.012 58.3711C309.012 56.6593 308.625 55.2472 307.79 54.1936L307.006 54.8143C307.657 55.6356 308.012 56.8017 308.012 58.3711H309.012ZM307.795 54.1996C306.966 53.1181 305.819 52.5781 304.41 52.5781V53.5781C305.528 53.5781 306.373 53.9887 307.002 54.8082L307.795 54.1996ZM304.41 52.5781C303.069 52.5781 301.954 52.9436 301.134 53.7336L301.827 54.4539C302.413 53.8897 303.252 53.5781 304.41 53.5781V52.5781ZM301.134 53.7336C300.306 54.5305 299.926 55.6469 299.926 57.0039H300.926C300.926 55.8348 301.249 55.0111 301.827 54.4539L301.134 53.7336ZM299.926 57.0039C299.926 58.2463 300.308 59.2928 301.107 60.0918L301.814 59.3847C301.233 58.8035 300.926 58.0272 300.926 57.0039H299.926ZM301.114 60.0984C301.893 60.8483 303.156 61.5217 304.843 62.1412L305.188 61.2025C303.542 60.598 302.435 59.9825 301.808 59.3781L301.114 60.0984ZM304.843 62.1412C306.499 62.7493 307.782 63.3058 308.701 63.8096L309.182 62.9326C308.2 62.3947 306.865 61.8184 305.188 61.2025L304.843 62.1412ZM308.701 63.8096C309.614 64.3097 310.372 64.8791 310.983 65.5145L311.704 64.8214C311.013 64.1026 310.17 63.4741 309.182 62.9326L308.701 63.8096ZM310.987 65.518C311.591 66.1347 312.057 66.8473 312.384 67.6595L313.311 67.2858C312.936 66.3532 312.398 65.5294 311.701 64.8179L310.987 65.518ZM312.384 67.6595C312.706 68.4599 312.875 69.416 312.875 70.5391H313.875C313.875 69.3184 313.692 68.2302 313.311 67.2858L312.384 67.6595ZM312.875 70.5391C312.875 72.6283 312.236 74.2788 310.989 75.5388L311.699 76.2425C313.159 74.768 313.875 72.8508 313.875 70.5391H312.875ZM310.987 75.5405C309.747 76.8044 307.992 77.5764 305.668 77.8151L305.77 78.8099C308.263 78.5538 310.258 77.7113 311.701 76.2408L310.987 75.5405ZM305.219 78.3125V82.1211H306.219V78.3125H305.219ZM305.719 81.6211H302.613V82.6211H305.719V81.6211ZM303.113 82.1211V78.332H302.113V82.1211H303.113ZM302.668 77.8351C300.182 77.5589 298.322 76.6756 297.029 75.2258L296.283 75.8914C297.777 77.5666 299.888 78.5323 302.558 78.829L302.668 77.8351ZM297.031 75.2276C295.749 73.7767 295.086 71.8339 295.086 69.3477H294.086C294.086 72.0177 294.803 74.2155 296.282 75.8896L297.031 75.2276ZM294.586 69.8477H299.332V68.8477H294.586V69.8477ZM298.832 69.3477C298.832 71.0689 299.263 72.4747 300.193 73.4934L300.932 72.8191C300.221 72.0409 299.832 70.9077 299.832 69.3477H298.832ZM300.196 73.4963C301.145 74.5197 302.463 75.0039 304.078 75.0039V74.0039C302.672 74.0039 301.647 73.5897 300.929 72.8162L300.196 73.4963ZM304.078 75.0039C305.637 75.0039 306.905 74.6279 307.798 73.7954L307.116 73.064C306.473 73.6637 305.488 74.0039 304.078 74.0039V75.0039ZM307.795 73.7983C308.692 72.9757 309.129 71.8848 309.129 70.5781H308.129C308.129 71.6412 307.784 72.4514 307.119 73.0611L307.795 73.7983Z" fill="#AF9407"/>
</g>
<defs>
<filter id="filter0_d" x="268" y="39" width="24" height="58" filterUnits="userSpaceOnUse" color-interpolation-filters="sRGB">
<feFlood flood-opacity="0" result="BackgroundImageFix"/>
<feColorMatrix in="SourceAlpha" type="matrix" values="0 0 0 0 0 0 0 0 0 0 0 0 0 0 0 0 0 0 127 0"/>
<feOffset dy="4"/>
<feGaussianBlur stdDeviation="2"/>
<feColorMatrix type="matrix" values="0 0 0 0 0 0 0 0 0 0 0 0 0 0 0 0 0 0 0.25 0"/>
<feBlend mode="normal" in2="BackgroundImageFix" result="effect1_dropShadow"/>
<feBlend mode="normal" in="SourceGraphic" in2="effect1_dropShadow" result="shape"/>
</filter>
<filter id="filter1_d" x="316" y="39" width="24" height="58" filterUnits="userSpaceOnUse" color-interpolation-filters="sRGB">
<feFlood flood-opacity="0" result="BackgroundImageFix"/>
<feColorMatrix in="SourceAlpha" type="matrix" values="0 0 0 0 0 0 0 0 0 0 0 0 0 0 0 0 0 0 127 0"/>
<feOffset dy="4"/>
<feGaussianBlur stdDeviation="2"/>
<feColorMatrix type="matrix" values="0 0 0 0 0 0 0 0 0 0 0 0 0 0 0 0 0 0 0.25 0"/>
<feBlend mode="normal" in2="BackgroundImageFix" result="effect1_dropShadow"/>
<feBlend mode="normal" in="SourceGraphic" in2="effect1_dropShadow" result="shape"/>
</filter>
<filter id="filter2_d" x="284" y="42" width="40" height="52" filterUnits="userSpaceOnUse" color-interpolation-filters="sRGB">
<feFlood flood-opacity="0" result="BackgroundImageFix"/>
<feColorMatrix in="SourceAlpha" type="matrix" values="0 0 0 0 0 0 0 0 0 0 0 0 0 0 0 0 0 0 127 0"/>
<feOffset dy="4"/>
<feGaussianBlur stdDeviation="2"/>
<feColorMatrix type="matrix" values="0 0 0 0 0 0 0 0 0 0 0 0 0 0 0 0 0 0 0.25 0"/>
<feBlend mode="normal" in2="BackgroundImageFix" result="effect1_dropShadow"/>
<feBlend mode="normal" in="SourceGraphic" in2="effect1_dropShadow" result="shape"/>
</filter>
<filter id="filter3_d" x="284.086" y="36.4727" width="39.7891" height="58.1484" filterUnits="userSpaceOnUse" color-interpolation-filters="sRGB">
<feFlood flood-opacity="0" result="BackgroundImageFix"/>
<feColorMatrix in="SourceAlpha" type="matrix" values="0 0 0 0 0 0 0 0 0 0 0 0 0 0 0 0 0 0 127 0"/>
<feOffset dy="2"/>
<feGaussianBlur stdDeviation="5"/>
<feColorMatrix type="matrix" values="0 0 0 0 0 0 0 0 0 0 0 0 0 0 0 0 0 0 0.8 0"/>
<feBlend mode="normal" in2="BackgroundImageFix" result="effect1_dropShadow"/>
<feBlend mode="normal" in="SourceGraphic" in2="effect1_dropShadow" result="shape"/>
</filter>
<clipPath id="clip0">
<rect width="120" height="28" fill="white" transform="translate(24 24)"/>
</clipPath>
</defs>
</svg>
