<svg width="180" height="60" viewBox="0 0 180 60" fill="none" xmlns="http://www.w3.org/2000/svg">
<rect width="180" height="60" fill="#C4C4C4"/>
<g clip-path="url(#clip0)">
<path d="M23.0931 22.3086L24.8015 13.2031H27.4077L24.5923 26H21.9599L19.8942 17.4395L17.8284 26H15.196L12.3806 13.2031H14.9868L16.704 22.291L18.7959 13.2031H21.0099L23.0931 22.3086ZM32.7247 26.1758C31.3418 26.1758 30.2144 25.748 29.3428 24.8926C28.4769 24.0371 28.044 22.8974 28.044 21.4736V21.2275C28.044 20.2724 28.2271 19.4199 28.5932 18.6699C28.9593 17.9141 29.4764 17.334 30.1447 16.9297C30.8188 16.5195 31.5858 16.3145 32.4458 16.3145C33.7359 16.3145 34.7499 16.7246 35.4879 17.5449C36.2317 18.3653 36.6036 19.5283 36.6036 21.0342V22.0713H30.598C30.6793 22.6924 30.9234 23.1904 31.3301 23.5654C31.7427 23.9404 32.2628 24.1279 32.8904 24.1279C33.8608 24.1279 34.6191 23.7734 35.1654 23.0645L36.4031 24.4619C36.0254 25.001 35.514 25.4228 34.869 25.7275C34.224 26.0264 33.5093 26.1758 32.7247 26.1758ZM32.4371 18.3711C31.9374 18.3711 31.5306 18.541 31.2168 18.8808C30.9088 19.2207 30.7113 19.707 30.6241 20.3398H34.1281V20.1377C34.1165 19.5752 33.9654 19.1416 33.6748 18.8369C33.3843 18.5264 32.9717 18.3711 32.4371 18.3711ZM40.8223 21.4912V26H38.2074V13.2031H43.1583C44.1113 13.2031 44.9481 13.3789 45.6686 13.7305C46.395 14.082 46.9529 14.583 47.3422 15.2334C47.7315 15.8779 47.9262 16.6133 47.9262 17.4395C47.9262 18.6933 47.4991 19.6836 46.6449 20.4102C45.7965 21.1308 44.6198 21.4912 43.1147 21.4912H40.8223ZM40.8223 19.3555H43.1583C43.8498 19.3555 44.3757 19.1914 44.736 18.8633C45.1021 18.5352 45.2851 18.0664 45.2851 17.457C45.2851 16.8301 45.1021 16.3232 44.736 15.9365C44.3699 15.5498 43.8644 15.3506 43.2193 15.3389H40.8223V19.3555ZM52.2234 26H49.6956V12.5H52.2234V26ZM59.7718 26C59.6556 25.7715 59.5713 25.4873 59.5191 25.1475C58.9089 25.833 58.1157 26.1758 57.1394 26.1758C56.2155 26.1758 55.4485 25.9062 54.8383 25.3672C54.234 24.8281 53.9318 24.1484 53.9318 23.3281C53.9318 22.3203 54.3008 21.5469 55.0388 21.0078C55.7826 20.4688 56.8547 20.1963 58.2551 20.1905H59.4144V19.6455C59.4144 19.2061 59.3011 18.8545 59.0745 18.5908C58.8537 18.3271 58.5021 18.1953 58.0198 18.1953C57.5956 18.1953 57.2615 18.2979 57.0174 18.503C56.7792 18.708 56.6601 18.9893 56.6601 19.3467H54.141C54.141 18.7959 54.3095 18.2861 54.6466 17.8174C54.9836 17.3486 55.4601 16.9824 56.076 16.7188C56.692 16.4492 57.3835 16.3145 58.1506 16.3145C59.3128 16.3145 60.2338 16.6103 60.9137 17.2021C61.5992 17.7881 61.9423 18.6143 61.9423 19.6807V23.8027C61.9483 24.7051 62.0727 25.3877 62.3172 25.8506V26H59.7718ZM57.6886 24.2334C58.0605 24.2334 58.4033 24.1514 58.7171 23.9873C59.0309 23.8174 59.2634 23.5918 59.4144 23.3105V21.6758H58.4731C57.2121 21.6758 56.5409 22.1153 56.4596 22.9942L56.4509 23.1435C56.4509 23.4599 56.5613 23.7207 56.7821 23.9258C57.0029 24.1309 57.3051 24.2334 57.6886 24.2334ZM66.1959 16.4902L66.2742 17.5889C66.9481 16.7393 67.8521 16.3145 68.9851 16.3145C69.9848 16.3145 70.7286 16.6103 71.2165 17.2021C71.7045 17.794 71.9544 18.6787 71.9663 19.8565V26H69.4473V19.918C69.4473 19.3789 69.3307 18.9893 69.0982 18.749C68.8661 18.503 68.4793 18.3799 67.9393 18.3799C67.2302 18.3799 66.6987 18.6846 66.3441 19.294V26H63.8251V16.4902H66.1959Z" fill="#FF9900"/>
</g>
<path d="M54.2949 39.3711C54.1517 40.888 53.5918 42.0729 52.6152 42.9258C51.6387 43.7721 50.3398 44.1953 48.7188 44.1953C47.5859 44.1953 46.5866 43.9284 45.7207 43.3945C44.8613 42.8542 44.1973 42.0892 43.7285 41.0996C43.2598 40.11 43.0156 38.9609 42.9961 37.6523V36.3242C42.9961 34.9831 43.2337 33.8014 43.709 32.7793C44.1842 31.7572 44.8646 30.9694 45.75 30.416C46.6419 29.8626 47.6706 29.5859 48.8359 29.5859C50.4049 29.5859 51.668 30.0124 52.625 30.8652C53.582 31.7181 54.1387 32.9225 54.2949 34.4785H51.834C51.7168 33.4564 51.4173 32.7207 50.9355 32.2715C50.4603 31.8158 49.7604 31.5879 48.8359 31.5879C47.7617 31.5879 46.9349 31.9818 46.3555 32.7695C45.7826 33.5508 45.4896 34.6999 45.4766 36.2168V37.4766C45.4766 39.013 45.75 40.1849 46.2969 40.9922C46.8503 41.7995 47.6576 42.2031 48.7188 42.2031C49.6888 42.2031 50.418 41.985 50.9062 41.5488C51.3945 41.1126 51.7038 40.3867 51.834 39.3711H54.2949ZM55.8379 38.6191C55.8379 37.584 56.043 36.653 56.4531 35.8262C56.8633 34.9928 57.4395 34.3548 58.1816 33.9121C58.9238 33.4629 59.7767 33.2383 60.7402 33.2383C62.166 33.2383 63.3216 33.6973 64.207 34.6152C65.099 35.5332 65.5807 36.7507 65.6523 38.2676L65.6621 38.8242C65.6621 39.8659 65.4603 40.7969 65.0566 41.6172C64.6595 42.4375 64.0866 43.0723 63.3379 43.5215C62.5957 43.9707 61.7363 44.1953 60.7598 44.1953C59.2689 44.1953 58.0742 43.7005 57.1758 42.7109C56.2839 41.7148 55.8379 40.39 55.8379 38.7363V38.6191ZM58.2109 38.8242C58.2109 39.9115 58.4355 40.7643 58.8848 41.3828C59.334 41.9948 59.959 42.3008 60.7598 42.3008C61.5605 42.3008 62.1823 41.9883 62.625 41.3633C63.0742 40.7383 63.2988 39.8236 63.2988 38.6191C63.2988 37.5514 63.0677 36.7051 62.6055 36.0801C62.1497 35.4551 61.528 35.1426 60.7402 35.1426C59.9655 35.1426 59.3503 35.4518 58.8945 36.0703C58.4388 36.6823 58.2109 37.6003 58.2109 38.8242ZM69.9004 33.4336L69.9688 34.5371C70.7109 33.6712 71.7266 33.2383 73.0156 33.2383C74.4284 33.2383 75.3952 33.7786 75.916 34.8594C76.6842 33.7786 77.765 33.2383 79.1582 33.2383C80.3236 33.2383 81.1895 33.5605 81.7559 34.2051C82.3288 34.8496 82.6217 35.8001 82.6348 37.0566V44H80.2617V37.125C80.2617 36.4544 80.1152 35.9629 79.8223 35.6504C79.5293 35.3379 79.0443 35.1816 78.3672 35.1816C77.8268 35.1816 77.3841 35.3281 77.0391 35.6211C76.7005 35.9076 76.4629 36.2852 76.3262 36.7539L76.3359 44H73.9629V37.0469C73.9303 35.8034 73.2956 35.1816 72.0586 35.1816C71.1081 35.1816 70.4342 35.569 70.0371 36.3438V44H67.6641V33.4336H69.9004ZM89.7246 44.1953C88.2207 44.1953 87 43.7233 86.0625 42.7793C85.1315 41.8288 84.666 40.5658 84.666 38.9902V38.6973C84.666 37.6426 84.8678 36.7018 85.2715 35.875C85.6816 35.0417 86.2546 34.3939 86.9902 33.9316C87.7259 33.4694 88.5462 33.2383 89.4512 33.2383C90.89 33.2383 92 33.6973 92.7812 34.6152C93.569 35.5332 93.9629 36.832 93.9629 38.5117V39.4688H87.0586C87.1302 40.3411 87.4199 41.0312 87.9277 41.5391C88.4421 42.0469 89.0866 42.3008 89.8613 42.3008C90.9486 42.3008 91.834 41.8613 92.5176 40.9824L93.7969 42.2031C93.3737 42.8346 92.8073 43.3262 92.0977 43.6777C91.3945 44.0228 90.6035 44.1953 89.7246 44.1953ZM89.4414 35.1426C88.7904 35.1426 88.263 35.3704 87.8594 35.8262C87.4622 36.2819 87.2083 36.9167 87.0977 37.7305H91.6191V37.5547C91.5671 36.7604 91.3555 36.1615 90.9844 35.7578C90.6133 35.3477 90.099 35.1426 89.4414 35.1426ZM101.346 35.6016C101.033 35.5495 100.711 35.5234 100.379 35.5234C99.2917 35.5234 98.5592 35.9401 98.1816 36.7734V44H95.8086V33.4336H98.0742L98.1328 34.6152C98.7057 33.6973 99.5 33.2383 100.516 33.2383C100.854 33.2383 101.134 33.2839 101.355 33.375L101.346 35.6016ZM106.99 42.3008C107.583 42.3008 108.074 42.1283 108.465 41.7832C108.855 41.4382 109.064 41.0117 109.09 40.5039H111.326C111.3 41.1615 111.095 41.7767 110.711 42.3496C110.327 42.916 109.806 43.3652 109.148 43.6973C108.491 44.0293 107.781 44.1953 107.02 44.1953C105.542 44.1953 104.37 43.7168 103.504 42.7598C102.638 41.8027 102.205 40.4811 102.205 38.7949V38.5508C102.205 36.9427 102.635 35.6569 103.494 34.6934C104.354 33.7233 105.525 33.2383 107.01 33.2383C108.266 33.2383 109.288 33.6061 110.076 34.3418C110.87 35.071 111.287 36.0312 111.326 37.2227H109.09C109.064 36.6172 108.855 36.1191 108.465 35.7285C108.081 35.3379 107.589 35.1426 106.99 35.1426C106.222 35.1426 105.63 35.4225 105.213 35.9824C104.796 36.5358 104.585 37.3789 104.578 38.5117V38.8926C104.578 40.0384 104.783 40.8945 105.193 41.4609C105.61 42.0208 106.209 42.3008 106.99 42.3008ZM115.643 44H113.27V33.4336H115.643V44ZM113.123 30.6895C113.123 30.3249 113.237 30.0221 113.465 29.7812C113.699 29.5404 114.031 29.4199 114.461 29.4199C114.891 29.4199 115.223 29.5404 115.457 29.7812C115.691 30.0221 115.809 30.3249 115.809 30.6895C115.809 31.0475 115.691 31.347 115.457 31.5879C115.223 31.8223 114.891 31.9395 114.461 31.9395C114.031 31.9395 113.699 31.8223 113.465 31.5879C113.237 31.347 113.123 31.0475 113.123 30.6895ZM124.549 44C124.445 43.7982 124.354 43.4694 124.275 43.0137C123.52 43.8014 122.596 44.1953 121.502 44.1953C120.441 44.1953 119.575 43.8926 118.904 43.2871C118.234 42.6816 117.898 41.9329 117.898 41.041C117.898 39.9147 118.315 39.0521 119.148 38.4531C119.988 37.8477 121.186 37.5449 122.742 37.5449H124.197V36.8516C124.197 36.3047 124.044 35.8685 123.738 35.543C123.432 35.2109 122.967 35.0449 122.342 35.0449C121.801 35.0449 121.359 35.1816 121.014 35.4551C120.669 35.722 120.496 36.0638 120.496 36.4805H118.123C118.123 35.901 118.315 35.3607 118.699 34.8594C119.083 34.3516 119.604 33.9544 120.262 33.668C120.926 33.3815 121.665 33.2383 122.479 33.2383C123.715 33.2383 124.702 33.5508 125.438 34.1758C126.173 34.7943 126.551 35.6667 126.57 36.793V41.5586C126.57 42.5091 126.704 43.2676 126.971 43.834V44H124.549ZM121.941 42.291C122.41 42.291 122.85 42.1771 123.26 41.9492C123.676 41.7214 123.989 41.4154 124.197 41.0312V39.0391H122.918C122.039 39.0391 121.378 39.1921 120.936 39.498C120.493 39.804 120.271 40.237 120.271 40.7969C120.271 41.2526 120.421 41.6172 120.721 41.8906C121.027 42.1576 121.434 42.291 121.941 42.291ZM131.58 44H129.207V29H131.58V44Z" fill="#FF0000"/>
<g filter="url(#filter0_d)">
<path d="M136 19.5L144 20.75V43.25L136 44.5V19.5Z" fill="#A58000"/>
</g>
<g filter="url(#filter1_d)">
<path d="M168 19.5L160 20.75V43.25L168 44.5V19.5Z" fill="#A58000"/>
</g>
<g filter="url(#filter2_d)">
<rect x="144" y="21" width="16" height="22" fill="#FFFDEB"/>
<rect x="144.25" y="21.25" width="15.5" height="21.5" stroke="#A58000" stroke-width="0.5"/>
</g>
<path d="M158 15.1376C157.52 17.9261 154.64 19.1058 152 20.5C149.12 18.9985 146.36 17.9261 146 15.1376C146 12.1761 151.04 11.2767 152 14.7086C152.96 11.2767 158 12.1761 158 15.1376Z" fill="#FF0000" fill-opacity="0.75"/>
<path d="M157.5 31.8134C157.22 33.7304 155.54 34.5415 154 35.5C152.32 34.4677 150.71 33.7304 150.5 31.8134C150.5 29.7773 153.44 29.159 154 31.5184C154.56 29.159 157.5 29.7773 157.5 31.8134Z" fill="#FF0000" fill-opacity="0.5"/>
<path d="M151.638 37.9394C151.864 39.8636 150.451 41.0819 149.212 42.4063C147.322 41.844 145.576 41.5485 144.877 39.7511C144.35 37.7845 147.03 36.4263 148.181 38.5604C148.111 36.1364 151.111 35.9727 151.638 37.9394Z" fill="#FF0000" fill-opacity="0.5"/>
<path d="M151.638 25.9394C151.864 27.8636 150.451 29.0819 149.212 30.4063C147.322 29.844 145.576 29.5485 144.877 27.7511C144.35 25.7845 147.03 24.4263 148.181 26.5604C148.111 24.1364 151.111 23.9727 151.638 25.9394Z" fill="#FF0000" fill-opacity="0.5"/>
<path d="M159.5 23.3134C159.22 25.2304 157.54 26.0415 156 27C154.32 25.9677 152.71 25.2304 152.5 23.3134C152.5 21.2773 155.44 20.659 156 23.0184C156.56 20.659 159.5 21.2773 159.5 23.3134Z" fill="#FF0000" fill-opacity="0.5"/>
<path d="M158.467 41.3291C156.819 42.3468 155.118 41.5812 153.393 41.0176C153.104 39.0672 152.634 37.3599 153.968 35.9668C155.527 34.658 157.891 36.5127 156.443 38.4583C158.611 37.3707 160.027 40.0203 158.467 41.3291Z" fill="#FF0000" fill-opacity="0.5"/>
<g filter="url(#filter3_d)">
<path d="M154.314 35.2891C154.314 34.7357 154.139 34.2799 153.787 33.9219C153.436 33.5573 152.85 33.2318 152.029 32.9453C151.209 32.6523 150.571 32.3822 150.115 32.1348C148.598 31.321 147.84 30.1165 147.84 28.5215C147.84 27.4408 148.169 26.5521 148.826 25.8555C149.484 25.1589 150.376 24.7454 151.502 24.6152V22.4863H153.064V24.6348C154.197 24.7975 155.073 25.2793 155.691 26.0801C156.31 26.8743 156.619 27.9095 156.619 29.1855H154.256C154.256 28.3652 154.07 27.7207 153.699 27.252C153.335 26.7767 152.837 26.5391 152.205 26.5391C151.58 26.5391 151.092 26.7083 150.74 27.0469C150.389 27.3854 150.213 27.8704 150.213 28.502C150.213 29.0684 150.385 29.5241 150.73 29.8691C151.082 30.2077 151.674 30.5299 152.508 30.8359C153.341 31.1419 153.995 31.4251 154.471 31.6855C154.946 31.946 155.346 32.2454 155.672 32.584C155.997 32.916 156.248 33.3001 156.424 33.7363C156.6 34.1725 156.688 34.6836 156.688 35.2695C156.688 36.3698 156.349 37.2617 155.672 37.9453C155.001 38.6289 154.064 39.0326 152.859 39.1562V41.0605H151.307V39.166C150.018 39.0228 149.025 38.5605 148.328 37.7793C147.638 36.998 147.293 35.9629 147.293 34.6738H149.666C149.666 35.4941 149.871 36.1289 150.281 36.5781C150.698 37.0273 151.284 37.252 152.039 37.252C152.781 37.252 153.344 37.0729 153.729 36.7148C154.119 36.3568 154.314 35.8815 154.314 35.2891Z" fill="#FFF617"/>
<path d="M153.787 33.9219L153.427 34.269L153.43 34.2722L153.787 33.9219ZM152.029 32.9453L151.861 33.4162L151.864 33.4174L152.029 32.9453ZM150.115 32.1348L150.354 31.6953L150.352 31.6942L150.115 32.1348ZM151.502 24.6152L151.559 25.1119L152.002 25.0608V24.6152H151.502ZM151.502 22.4863V21.9863H151.002V22.4863H151.502ZM153.064 22.4863H153.564V21.9863H153.064V22.4863ZM153.064 24.6348H152.564V25.0681L152.993 25.1297L153.064 24.6348ZM155.691 26.0801L155.296 26.3857L155.297 26.3873L155.691 26.0801ZM156.619 29.1855V29.6855H157.119V29.1855H156.619ZM154.256 29.1855H153.756V29.6855H154.256V29.1855ZM153.699 27.252L153.302 27.5563L153.307 27.5623L153.699 27.252ZM150.73 29.8691L150.377 30.2228L150.384 30.2293L150.73 29.8691ZM155.672 32.584L155.311 32.9306L155.315 32.934L155.672 32.584ZM155.672 37.9453L155.317 37.5935L155.315 37.5952L155.672 37.9453ZM152.859 39.1562L152.808 38.6589L152.359 38.705V39.1562H152.859ZM152.859 41.0605V41.5605H153.359V41.0605H152.859ZM151.307 41.0605H150.807V41.5605H151.307V41.0605ZM151.307 39.166H151.807V38.7185L151.362 38.6691L151.307 39.166ZM148.328 37.7793L147.953 38.1103L147.955 38.1121L148.328 37.7793ZM147.293 34.6738V34.1738H146.793V34.6738H147.293ZM149.666 34.6738H150.166V34.1738H149.666V34.6738ZM150.281 36.5781L149.912 36.9153L149.915 36.9181L150.281 36.5781ZM153.729 36.7148L153.391 36.3463L153.388 36.3491L153.729 36.7148ZM154.814 35.2891C154.814 34.6194 154.597 34.0332 154.144 33.5716L153.43 34.2722C153.68 34.5267 153.814 34.852 153.814 35.2891H154.814ZM154.147 33.5748C153.715 33.127 153.043 32.7695 152.194 32.4733L151.864 33.4174C152.657 33.694 153.156 33.9875 153.427 34.2689L154.147 33.5748ZM152.197 32.4744C151.387 32.1852 150.777 31.925 150.354 31.6953L149.877 32.5742C150.365 32.8393 151.03 33.1195 151.861 33.4162L152.197 32.4744ZM150.352 31.6942C149.653 31.3196 149.156 30.8697 148.832 30.3547C148.509 29.8416 148.34 29.2364 148.34 28.5215H147.34C147.34 29.4016 147.55 30.1962 147.986 30.8875C148.42 31.5769 149.06 32.1361 149.879 32.5754L150.352 31.6942ZM148.34 28.5215C148.34 27.5507 148.631 26.7904 149.19 26.1987L148.463 25.5123C147.706 26.3138 147.34 27.3308 147.34 28.5215H148.34ZM149.19 26.1987C149.752 25.6028 150.528 25.2312 151.559 25.1119L151.445 24.1185C150.224 24.2597 149.215 24.7149 148.463 25.5123L149.19 26.1987ZM152.002 24.6152V22.4863H151.002V24.6152H152.002ZM151.502 22.9863H153.064V21.9863H151.502V22.9863ZM152.564 22.4863V24.6348H153.564V22.4863H152.564ZM152.993 25.1297C154.016 25.2766 154.767 25.7016 155.296 26.3857L156.087 25.7744C155.379 24.857 154.379 24.3185 153.136 24.1398L152.993 25.1297ZM155.297 26.3873C155.831 27.0725 156.119 27.9906 156.119 29.1855H157.119C157.119 27.8284 156.789 26.6762 156.086 25.7729L155.297 26.3873ZM156.619 28.6855H154.256V29.6855H156.619V28.6855ZM154.756 29.1855C154.756 28.2941 154.554 27.5265 154.091 26.9416L153.307 27.5623C153.586 27.9149 153.756 28.4364 153.756 29.1855H154.756ZM154.096 26.9476C153.631 26.3414 152.982 26.0391 152.205 26.0391V27.0391C152.691 27.0391 153.038 27.212 153.303 27.5563L154.096 26.9476ZM152.205 26.0391C151.489 26.0391 150.862 26.2353 150.393 26.6867L151.087 27.407C151.321 27.1814 151.672 27.0391 152.205 27.0391V26.0391ZM150.393 26.6867C149.917 27.1451 149.713 27.7765 149.713 28.502H150.713C150.713 27.9644 150.86 27.6257 151.087 27.407L150.393 26.6867ZM149.713 28.502C149.713 29.1779 149.923 29.7687 150.377 30.2227L151.084 29.5156C150.848 29.2794 150.713 28.9588 150.713 28.502H149.713ZM150.384 30.2293C150.811 30.6406 151.482 30.9918 152.335 31.3053L152.68 30.3666C151.867 30.0681 151.353 29.7748 151.077 29.509L150.384 30.2293ZM152.335 31.3053C153.158 31.6074 153.786 31.8807 154.23 32.124L154.711 31.2471C154.205 30.9696 153.524 30.6765 152.68 30.3666L152.335 31.3053ZM154.23 32.124C154.668 32.3637 155.026 32.6337 155.311 32.9305L156.032 32.2374C155.667 31.8572 155.224 31.5282 154.711 31.2471L154.23 32.124ZM155.315 32.934C155.594 33.2187 155.809 33.5472 155.96 33.9232L156.888 33.5494C156.688 33.0531 156.401 32.6134 156.029 32.2339L155.315 32.934ZM155.96 33.9232C156.107 34.2874 156.188 34.7324 156.188 35.2695H157.188C157.188 34.6348 157.092 34.0577 156.888 33.5494L155.96 33.9232ZM156.188 35.2695C156.188 36.2585 155.887 37.0171 155.317 37.5935L156.027 38.2972C156.81 37.5063 157.188 36.4811 157.188 35.2695H156.188ZM155.315 37.5952C154.746 38.1755 153.928 38.5439 152.808 38.6589L152.91 39.6536C154.199 39.5212 155.257 39.0823 156.029 38.2955L155.315 37.5952ZM152.359 39.1562V41.0605H153.359V39.1562H152.359ZM152.859 40.5605H151.307V41.5605H152.859V40.5605ZM151.807 41.0605V39.166H150.807V41.0605H151.807ZM151.362 38.6691C150.165 38.5361 149.297 38.1151 148.701 37.4465L147.955 38.1121C148.752 39.006 149.87 39.5095 151.251 39.663L151.362 38.6691ZM148.703 37.4483C148.111 36.7786 147.793 35.871 147.793 34.6738H146.793C146.793 36.0548 147.165 37.2174 147.953 38.1103L148.703 37.4483ZM147.293 35.1738H149.666V34.1738H147.293V35.1738ZM149.166 34.6738C149.166 35.5748 149.392 36.3458 149.912 36.9153L150.65 36.241C150.35 35.912 150.166 35.4135 150.166 34.6738H149.166ZM149.915 36.9181C150.447 37.4923 151.179 37.752 152.039 37.752V36.752C151.388 36.752 150.949 36.5624 150.648 36.2381L149.915 36.9181ZM152.039 37.752C152.855 37.752 153.561 37.555 154.069 37.0806L153.388 36.3491C153.128 36.5908 152.707 36.752 152.039 36.752V37.752ZM154.066 37.0834C154.573 36.6189 154.814 36.0033 154.814 35.2891H153.814C153.814 35.7597 153.665 36.0946 153.391 36.3463L154.066 37.0834Z" fill="#2B9311"/>
</g>
<defs>
<filter id="filter0_d" x="132" y="19.5" width="16" height="33" filterUnits="userSpaceOnUse" color-interpolation-filters="sRGB">
<feFlood flood-opacity="0" result="BackgroundImageFix"/>
<feColorMatrix in="SourceAlpha" type="matrix" values="0 0 0 0 0 0 0 0 0 0 0 0 0 0 0 0 0 0 127 0"/>
<feOffset dy="4"/>
<feGaussianBlur stdDeviation="2"/>
<feColorMatrix type="matrix" values="0 0 0 0 0 0 0 0 0 0 0 0 0 0 0 0 0 0 0.25 0"/>
<feBlend mode="normal" in2="BackgroundImageFix" result="effect1_dropShadow"/>
<feBlend mode="normal" in="SourceGraphic" in2="effect1_dropShadow" result="shape"/>
</filter>
<filter id="filter1_d" x="156" y="19.5" width="16" height="33" filterUnits="userSpaceOnUse" color-interpolation-filters="sRGB">
<feFlood flood-opacity="0" result="BackgroundImageFix"/>
<feColorMatrix in="SourceAlpha" type="matrix" values="0 0 0 0 0 0 0 0 0 0 0 0 0 0 0 0 0 0 127 0"/>
<feOffset dy="4"/>
<feGaussianBlur stdDeviation="2"/>
<feColorMatrix type="matrix" values="0 0 0 0 0 0 0 0 0 0 0 0 0 0 0 0 0 0 0.25 0"/>
<feBlend mode="normal" in2="BackgroundImageFix" result="effect1_dropShadow"/>
<feBlend mode="normal" in="SourceGraphic" in2="effect1_dropShadow" result="shape"/>
</filter>
<filter id="filter2_d" x="140" y="21" width="24" height="30" filterUnits="userSpaceOnUse" color-interpolation-filters="sRGB">
<feFlood flood-opacity="0" result="BackgroundImageFix"/>
<feColorMatrix in="SourceAlpha" type="matrix" values="0 0 0 0 0 0 0 0 0 0 0 0 0 0 0 0 0 0 127 0"/>
<feOffset dy="4"/>
<feGaussianBlur stdDeviation="2"/>
<feColorMatrix type="matrix" values="0 0 0 0 0 0 0 0 0 0 0 0 0 0 0 0 0 0 0.25 0"/>
<feBlend mode="normal" in2="BackgroundImageFix" result="effect1_dropShadow"/>
<feBlend mode="normal" in="SourceGraphic" in2="effect1_dropShadow" result="shape"/>
</filter>
<filter id="filter3_d" x="136.793" y="13.9863" width="30.3945" height="39.5742" filterUnits="userSpaceOnUse" color-interpolation-filters="sRGB">
<feFlood flood-opacity="0" result="BackgroundImageFix"/>
<feColorMatrix in="SourceAlpha" type="matrix" values="0 0 0 0 0 0 0 0 0 0 0 0 0 0 0 0 0 0 127 0"/>
<feOffset dy="2"/>
<feGaussianBlur stdDeviation="5"/>
<feColorMatrix type="matrix" values="0 0 0 0 0 0 0 0 0 0 0 0 0 0 0 0 0 0 0.8 0"/>
<feBlend mode="normal" in2="BackgroundImageFix" result="effect1_dropShadow"/>
<feBlend mode="normal" in="SourceGraphic" in2="effect1_dropShadow" result="shape"/>
</filter>
<clipPath id="clip0">
<rect width="60" height="14" fill="white" transform="translate(12 12)"/>
</clipPath>
</defs>
</svg>
