<svg width="360" height="120" viewBox="0 0 360 120" fill="none" xmlns="http://www.w3.org/2000/svg">
<rect width="360" height="120" fill="#C4C4C4"/>
<g clip-path="url(#clip0)">
<path d="M46.1862 44.6172L49.603 26.4062H54.8155L49.1846 52H43.9199L39.7883 34.8789L35.6568 52H30.392L24.7612 26.4062H29.9737L33.4079 44.582L37.5918 26.4062H42.0197L46.1862 44.6172ZM65.4495 52.3516C62.6835 52.3516 60.4288 51.4961 58.6855 49.7852C56.9539 48.0742 56.0881 45.7949 56.0881 42.9473V42.4551C56.0881 40.5449 56.4541 38.8398 57.1863 37.3398C57.9185 35.8281 58.9528 34.668 60.2894 33.8594C61.6375 33.0391 63.1716 32.6289 64.8916 32.6289C67.4717 32.6289 69.4997 33.4492 70.9757 35.0898C72.4633 36.7305 73.2071 39.0566 73.2071 42.0684V44.1426H61.1959C61.3586 45.3848 61.8467 46.3809 62.6602 47.1309C63.4854 47.8809 64.5256 48.2559 65.7807 48.2559C67.7215 48.2559 69.2382 47.5469 70.3307 46.1289L72.8062 48.9238C72.0508 50.002 71.028 50.8457 69.7379 51.4551C68.448 52.0527 67.0185 52.3516 65.4495 52.3516ZM64.8742 36.7422C63.8747 36.7422 63.0612 37.082 62.4336 37.7617C61.8176 38.4414 61.4225 39.4141 61.2482 40.6797H68.2562V40.2754C68.233 39.1504 67.9308 38.2832 67.3496 37.6738C66.7686 37.0527 65.9435 36.7422 64.8742 36.7422ZM81.6446 42.9824V52H76.4148V26.4062H86.3166C88.2226 26.4062 89.8962 26.7578 91.3372 27.4609C92.79 28.1641 93.9057 29.166 94.6844 30.4668C95.4631 31.7559 95.8524 33.2266 95.8524 34.8789C95.8524 37.3867 94.9981 39.3672 93.2898 40.8203C91.5929 42.2617 89.2395 42.9824 86.2294 42.9824H81.6446ZM81.6446 38.7109H86.3166C87.6997 38.7109 88.7514 38.3828 89.472 37.7266C90.2042 37.0703 90.5702 36.1328 90.5702 34.9141C90.5702 33.6602 90.2042 32.6465 89.472 31.8731C88.7398 31.0996 87.7287 30.7012 86.4387 30.6777H81.6446V38.7109ZM104.447 52H99.3912V25H104.447V52ZM119.544 52C119.311 51.543 119.143 50.9746 119.038 50.2949C117.818 51.666 116.231 52.3516 114.279 52.3516C112.431 52.3516 110.897 51.8125 109.677 50.7344C108.468 49.6562 107.864 48.2969 107.864 46.6562C107.864 44.6406 108.602 43.0938 110.078 42.0156C111.565 40.9375 113.709 40.3926 116.51 40.3809H118.829V39.291C118.829 38.4121 118.602 37.709 118.149 37.1816C117.707 36.6543 117.004 36.3906 116.04 36.3906C115.191 36.3906 114.523 36.5957 114.035 37.0059C113.558 37.416 113.32 37.9785 113.32 38.6934H108.282C108.282 37.5918 108.619 36.5723 109.293 35.6348C109.967 34.6973 110.92 33.9648 112.152 33.4375C113.384 32.8984 114.767 32.6289 116.301 32.6289C118.626 32.6289 120.468 33.2207 121.827 34.4043C123.198 35.5762 123.885 37.2285 123.885 39.3613V47.6055C123.897 49.4102 124.145 50.7754 124.634 51.7012V52H119.544ZM115.377 48.4668C116.121 48.4668 116.807 48.3027 117.434 47.9746C118.062 47.6348 118.527 47.1836 118.829 46.6211V43.3516H116.946C114.424 43.3516 113.082 44.2305 112.919 45.9883L112.902 46.2871C112.902 46.9199 113.123 47.4414 113.564 47.8516C114.006 48.2617 114.61 48.4668 115.377 48.4668ZM132.392 32.9805L132.548 35.1777C133.896 33.4785 135.704 32.6289 137.97 32.6289C139.97 32.6289 141.457 33.2207 142.433 34.4043C143.409 35.5879 143.909 37.3574 143.933 39.7129V52H138.895V39.8359C138.895 38.7578 138.661 37.9785 138.196 37.498C137.732 37.0059 136.959 36.7598 135.879 36.7598C134.46 36.7598 133.397 37.3691 132.688 38.5879V52H127.65V32.9805H132.392Z" fill="#FF9900"/>
</g>
<path d="M103.277 76.9492H91.832V89H86.8906V60.5625H104.957V64.5469H91.832V73.0039H103.277V76.9492ZM113.473 89H108.727V67.8672H113.473V89ZM108.434 62.3789C108.434 61.6497 108.661 61.0443 109.117 60.5625C109.586 60.0807 110.25 59.8398 111.109 59.8398C111.969 59.8398 112.633 60.0807 113.102 60.5625C113.57 61.0443 113.805 61.6497 113.805 62.3789C113.805 63.0951 113.57 63.694 113.102 64.1758C112.633 64.6445 111.969 64.8789 111.109 64.8789C110.25 64.8789 109.586 64.6445 109.117 64.1758C108.661 63.694 108.434 63.0951 108.434 62.3789ZM123.062 67.8672L123.199 70.3086C124.762 68.4206 126.812 67.4766 129.352 67.4766C133.753 67.4766 135.992 69.9961 136.07 75.0352V89H131.324V75.3086C131.324 73.9674 131.031 72.9779 130.445 72.3398C129.872 71.6888 128.928 71.3633 127.613 71.3633C125.699 71.3633 124.273 72.2292 123.336 73.9609V89H118.59V67.8672H123.062ZM153.551 89C153.342 88.5964 153.16 87.9388 153.004 87.0273C151.493 88.6029 149.645 89.3906 147.457 89.3906C145.335 89.3906 143.603 88.7852 142.262 87.5742C140.921 86.3633 140.25 84.8659 140.25 83.082C140.25 80.8294 141.083 79.1042 142.75 77.9062C144.43 76.6953 146.826 76.0898 149.938 76.0898H152.848V74.7031C152.848 73.6094 152.542 72.737 151.93 72.0859C151.318 71.4219 150.387 71.0898 149.137 71.0898C148.056 71.0898 147.171 71.3633 146.48 71.9102C145.79 72.444 145.445 73.1276 145.445 73.9609H140.699C140.699 72.8021 141.083 71.7214 141.852 70.7188C142.62 69.7031 143.661 68.9089 144.977 68.3359C146.305 67.763 147.783 67.4766 149.41 67.4766C151.884 67.4766 153.857 68.1016 155.328 69.3516C156.799 70.5885 157.555 72.3333 157.594 74.5859V84.1172C157.594 86.0182 157.861 87.5352 158.395 88.668V89H153.551ZM148.336 85.582C149.273 85.582 150.152 85.3542 150.973 84.8984C151.806 84.4427 152.431 83.8307 152.848 83.0625V79.0781H150.289C148.531 79.0781 147.21 79.3841 146.324 79.9961C145.439 80.6081 144.996 81.474 144.996 82.5938C144.996 83.5052 145.296 84.2344 145.895 84.7812C146.507 85.3151 147.32 85.582 148.336 85.582ZM166.969 67.8672L167.105 70.3086C168.668 68.4206 170.719 67.4766 173.258 67.4766C177.659 67.4766 179.898 69.9961 179.977 75.0352V89H175.23V75.3086C175.23 73.9674 174.938 72.9779 174.352 72.3398C173.779 71.6888 172.835 71.3633 171.52 71.3633C169.605 71.3633 168.18 72.2292 167.242 73.9609V89H162.496V67.8672H166.969ZM193.512 85.6016C194.697 85.6016 195.68 85.2565 196.461 84.5664C197.242 83.8763 197.659 83.0234 197.711 82.0078H202.184C202.132 83.3229 201.721 84.5534 200.953 85.6992C200.185 86.832 199.143 87.7305 197.828 88.3945C196.513 89.0586 195.094 89.3906 193.57 89.3906C190.615 89.3906 188.271 88.4336 186.539 86.5195C184.807 84.6055 183.941 81.9622 183.941 78.5898V78.1016C183.941 74.8854 184.801 72.3138 186.52 70.3867C188.238 68.4466 190.582 67.4766 193.551 67.4766C196.064 67.4766 198.108 68.2122 199.684 69.6836C201.272 71.1419 202.105 73.0625 202.184 75.4453H197.711C197.659 74.2344 197.242 73.2383 196.461 72.457C195.693 71.6758 194.71 71.2852 193.512 71.2852C191.975 71.2852 190.79 71.8451 189.957 72.9648C189.124 74.0716 188.701 75.7578 188.688 78.0234V78.7852C188.688 81.0768 189.098 82.7891 189.918 83.9219C190.751 85.0417 191.949 85.6016 193.512 85.6016ZM215.074 89.3906C212.066 89.3906 209.625 88.4466 207.75 86.5586C205.888 84.6576 204.957 82.1315 204.957 78.9805V78.3945C204.957 76.2852 205.361 74.4036 206.168 72.75C206.988 71.0833 208.134 69.7878 209.605 68.8633C211.077 67.9388 212.717 67.4766 214.527 67.4766C217.405 67.4766 219.625 68.3945 221.188 70.2305C222.763 72.0664 223.551 74.6641 223.551 78.0234V79.9375H209.742C209.885 81.6823 210.465 83.0625 211.48 84.0781C212.509 85.0938 213.798 85.6016 215.348 85.6016C217.522 85.6016 219.293 84.7227 220.66 82.9648L223.219 85.4062C222.372 86.6693 221.24 87.6523 219.82 88.3555C218.414 89.0456 216.832 89.3906 215.074 89.3906ZM214.508 71.2852C213.206 71.2852 212.151 71.7409 211.344 72.6523C210.549 73.5638 210.042 74.8333 209.82 76.4609H218.863V76.1094C218.759 74.5208 218.336 73.3229 217.594 72.5156C216.852 71.6953 215.823 71.2852 214.508 71.2852ZM232.301 89H227.555V67.8672H232.301V89ZM227.262 62.3789C227.262 61.6497 227.49 61.0443 227.945 60.5625C228.414 60.0807 229.078 59.8398 229.938 59.8398C230.797 59.8398 231.461 60.0807 231.93 60.5625C232.398 61.0443 232.633 61.6497 232.633 62.3789C232.633 63.0951 232.398 63.694 231.93 64.1758C231.461 64.6445 230.797 64.8789 229.938 64.8789C229.078 64.8789 228.414 64.6445 227.945 64.1758C227.49 63.694 227.262 63.0951 227.262 62.3789ZM248.551 72.2031C247.926 72.099 247.281 72.0469 246.617 72.0469C244.443 72.0469 242.978 72.8802 242.223 74.5469V89H237.477V67.8672H242.008L242.125 70.2305C243.271 68.3945 244.859 67.4766 246.891 67.4766C247.568 67.4766 248.128 67.5677 248.57 67.75L248.551 72.2031ZM249.957 78.2383C249.957 76.168 250.367 74.306 251.188 72.6523C252.008 70.9857 253.16 69.7096 254.645 68.8242C256.129 67.9258 257.835 67.4766 259.762 67.4766C262.613 67.4766 264.924 68.3945 266.695 70.2305C268.479 72.0664 269.443 74.5013 269.586 77.5352L269.605 78.6484C269.605 80.7318 269.202 82.5938 268.395 84.2344C267.6 85.875 266.454 87.1445 264.957 88.043C263.473 88.9414 261.754 89.3906 259.801 89.3906C256.819 89.3906 254.43 88.401 252.633 86.4219C250.849 84.4297 249.957 81.7799 249.957 78.4727V78.2383ZM254.703 78.6484C254.703 80.8229 255.152 82.5286 256.051 83.7656C256.949 84.9896 258.199 85.6016 259.801 85.6016C261.402 85.6016 262.646 84.9766 263.531 83.7266C264.43 82.4766 264.879 80.6471 264.879 78.2383C264.879 76.1029 264.417 74.4102 263.492 73.1602C262.581 71.9102 261.337 71.2852 259.762 71.2852C258.212 71.2852 256.982 71.9036 256.07 73.1406C255.159 74.3646 254.703 76.2005 254.703 78.6484Z" fill="#FF0000"/>
<rect x="0.5" y="-0.5" width="8.1" height="26" transform="matrix(1 0 0 -1 291.94 73)" fill="#8D4C4C" fill-opacity="0.5" stroke="#730808"/>
<path d="M278.164 47L296.49 31.6522L314.816 47H278.164Z" fill="#8D4C4C" fill-opacity="0.5" stroke="#730808"/>
<rect x="312.46" y="47.5" width="8.1" height="36" fill="#FDD750" stroke="#BA9C00"/>
<path d="M298.184 74L316.51 89.3478L334.836 74H298.184Z" fill="#FDD750" stroke="#BA9C00"/>
<g filter="url(#filter0_d)">
<path d="M300.435 72.5195C300.435 71.4518 300.136 70.6055 299.537 69.9805C298.951 69.3424 297.948 68.7565 296.529 68.2227C295.11 67.6888 293.886 67.1615 292.857 66.6406C291.829 66.1068 290.943 65.5013 290.201 64.8242C289.472 64.1341 288.899 63.3268 288.482 62.4023C288.079 61.4779 287.877 60.3776 287.877 59.1016C287.877 56.901 288.58 55.0977 289.986 53.6914C291.392 52.2852 293.261 51.4648 295.592 51.2305V47.0508H298.717V51.2891C301.021 51.6146 302.825 52.5781 304.127 54.1797C305.429 55.7682 306.08 57.832 306.08 60.3711H300.435C300.435 58.8086 300.11 57.6432 299.459 56.875C298.821 56.0938 297.961 55.7031 296.881 55.7031C295.813 55.7031 294.986 56.0091 294.4 56.6211C293.814 57.2201 293.521 58.0534 293.521 59.1211C293.521 60.1107 293.808 60.9049 294.381 61.5039C294.954 62.1029 296.015 62.7148 297.564 63.3398C299.127 63.9648 300.409 64.5573 301.412 65.1172C302.414 65.6641 303.261 66.2891 303.951 66.9922C304.641 67.6823 305.168 68.4766 305.533 69.375C305.898 70.2604 306.08 71.2956 306.08 72.4805C306.08 74.694 305.39 76.4909 304.01 77.8711C302.629 79.2513 300.728 80.0651 298.306 80.3125V84.1992H295.201V80.332C292.532 80.0456 290.461 79.1016 288.99 77.5C287.532 75.8854 286.803 73.7435 286.803 71.0742H292.447C292.447 72.6237 292.812 73.8151 293.541 74.6484C294.283 75.4688 295.344 75.8789 296.724 75.8789C297.87 75.8789 298.775 75.5794 299.439 74.9805C300.103 74.3685 300.435 73.5482 300.435 72.5195Z" fill="#BD0909"/>
<path d="M299.537 69.9805L299.39 70.1158L299.392 70.1188L299.537 69.9805ZM292.857 66.6406L292.765 66.8182L292.767 66.8191L292.857 66.6406ZM290.201 64.8242L290.063 64.9695L290.066 64.972L290.201 64.8242ZM288.482 62.4023L288.299 62.4824L288.3 62.4845L288.482 62.4023ZM295.592 51.2305L295.612 51.4295L295.792 51.4114V51.2305H295.592ZM295.592 47.0508V46.8508H295.392V47.0508H295.592ZM298.717 47.0508H298.917V46.8508H298.717V47.0508ZM298.717 51.2891H298.517V51.4628L298.689 51.4871L298.717 51.2891ZM304.127 54.1797L303.972 54.3059L303.972 54.3065L304.127 54.1797ZM306.08 60.3711V60.5711H306.28V60.3711H306.08ZM300.435 60.3711H300.235V60.5711H300.435V60.3711ZM299.459 56.875L299.304 57.0015L299.306 57.0043L299.459 56.875ZM294.4 56.6211L294.543 56.761L294.545 56.7594L294.4 56.6211ZM297.564 63.3398L297.489 63.5253L297.49 63.5255L297.564 63.3398ZM301.412 65.1172L301.314 65.2918L301.316 65.2928L301.412 65.1172ZM303.951 66.9922L303.808 67.1323L303.81 67.1336L303.951 66.9922ZM305.533 69.375L305.348 69.4502L305.348 69.4511L305.533 69.375ZM304.01 77.8711L303.868 77.7297L304.01 77.8711ZM298.306 80.3125L298.286 80.1135L298.106 80.1319V80.3125H298.306ZM298.306 84.1992V84.3992H298.506V84.1992H298.306ZM295.201 84.1992H295.001V84.3992H295.201V84.1992ZM295.201 80.332H295.401V80.1523L295.222 80.1332L295.201 80.332ZM288.99 77.5L288.842 77.6341L288.843 77.6353L288.99 77.5ZM286.803 71.0742V70.8742H286.603V71.0742H286.803ZM292.447 71.0742H292.647V70.8742H292.447V71.0742ZM293.541 74.6484L293.39 74.7802L293.392 74.7826L293.541 74.6484ZM299.439 74.9805L299.573 75.129L299.575 75.1275L299.439 74.9805ZM300.635 72.5195C300.635 71.4129 300.324 70.5126 299.681 69.8421L299.392 70.1188C299.948 70.6984 300.235 71.4907 300.235 72.5195H300.635ZM299.684 69.8452C299.067 69.1728 298.029 68.5732 296.599 68.0355L296.459 68.4099C297.868 68.9398 298.835 69.5121 299.39 70.1157L299.684 69.8452ZM296.599 68.0355C295.185 67.5034 293.968 66.9789 292.948 66.4622L292.767 66.8191C293.804 67.344 295.035 67.8742 296.459 68.4099L296.599 68.0355ZM292.949 66.4631C291.934 65.9361 291.063 65.3402 290.336 64.6765L290.066 64.972C290.823 65.6624 291.723 66.2775 292.765 66.8181L292.949 66.4631ZM290.338 64.679C289.628 64.0069 289.071 63.2211 288.665 62.3202L288.3 62.4845C288.727 63.4325 289.315 64.2613 290.063 64.9695L290.338 64.679ZM288.665 62.3223C288.275 61.4288 288.077 60.3571 288.077 59.1016H287.677C287.677 60.3981 287.882 61.5269 288.299 62.4824L288.665 62.3223ZM288.077 59.1016C288.077 56.9479 288.763 55.1974 290.128 53.8328L289.845 53.55C288.397 54.9979 287.677 56.8542 287.677 59.1016H288.077ZM290.128 53.8328C291.496 52.4648 293.318 51.6601 295.612 51.4295L295.572 51.0315C293.203 51.2696 291.289 52.1055 289.845 53.55L290.128 53.8328ZM295.792 51.2305V47.0508H295.392V51.2305H295.792ZM295.592 47.2508H298.717V46.8508H295.592V47.2508ZM298.517 47.0508V51.2891H298.917V47.0508H298.517ZM298.689 51.4871C300.95 51.8065 302.705 52.7485 303.972 54.3059L304.282 54.0535C302.944 52.4077 301.092 51.4226 298.745 51.091L298.689 51.4871ZM303.972 54.3065C305.238 55.8514 305.88 57.867 305.88 60.3711H306.28C306.28 57.797 305.619 55.685 304.281 54.0529L303.972 54.3065ZM306.08 60.1711H300.435V60.5711H306.08V60.1711ZM300.635 60.3711C300.635 58.7861 300.306 57.5653 299.611 56.7457L299.306 57.0043C299.914 57.7211 300.235 58.8311 300.235 60.3711H300.635ZM299.614 56.7485C298.935 55.9171 298.016 55.5031 296.881 55.5031V55.9031C297.906 55.9031 298.707 56.2704 299.304 57.0015L299.614 56.7485ZM296.881 55.5031C295.773 55.5031 294.889 55.8217 294.256 56.4828L294.545 56.7594C295.084 56.1965 295.852 55.9031 296.881 55.9031V55.5031ZM294.257 56.4812C293.625 57.1271 293.321 58.0161 293.321 59.1211H293.721C293.721 58.0907 294.003 57.313 294.543 56.761L294.257 56.4812ZM293.321 59.1211C293.321 60.1515 293.621 60.9989 294.236 61.6422L294.525 61.3657C293.995 60.811 293.721 60.0698 293.721 59.1211H293.321ZM294.236 61.6422C294.84 62.2735 295.935 62.8983 297.489 63.5253L297.639 63.1544C296.095 62.5314 295.067 61.9322 294.525 61.3657L294.236 61.6422ZM297.49 63.5255C299.048 64.1487 300.322 64.7375 301.314 65.2918L301.509 64.9426C300.497 64.3771 299.206 63.781 297.638 63.1541L297.49 63.5255ZM301.316 65.2928C302.304 65.8317 303.134 66.4453 303.808 67.1323L304.094 66.8521C303.388 66.1329 302.525 65.4965 301.508 64.9416L301.316 65.2928ZM303.81 67.1336C304.481 67.8049 304.993 68.5767 305.348 69.4502L305.718 69.2998C305.344 68.3764 304.801 67.5597 304.092 66.8508L303.81 67.1336ZM305.348 69.4511C305.701 70.3074 305.88 71.3157 305.88 72.4805H306.28C306.28 71.2755 306.094 70.2134 305.718 69.2989L305.348 69.4511ZM305.88 72.4805C305.88 74.6487 305.206 76.3921 303.868 77.7297L304.151 78.0125C305.574 76.5897 306.28 74.7393 306.28 72.4805H305.88ZM303.868 77.7297C302.528 79.0699 300.674 79.8696 298.286 80.1135L298.327 80.5115C300.783 80.2606 302.731 79.4327 304.151 78.0125L303.868 77.7297ZM298.106 80.3125V84.1992H298.506V80.3125H298.106ZM298.306 83.9992H295.201V84.3992H298.306V83.9992ZM295.401 84.1992V80.332H295.001V84.1992H295.401ZM295.222 80.1332C292.59 79.8506 290.569 78.9226 289.137 77.3647L288.843 77.6353C290.354 79.2805 292.474 80.2405 295.18 80.5309L295.222 80.1332ZM289.138 77.3659C287.72 75.796 287.003 73.7057 287.003 71.0742H286.603C286.603 73.7813 287.343 75.9748 288.842 77.6341L289.138 77.3659ZM286.803 71.2742H292.447V70.8742H286.803V71.2742ZM292.247 71.0742C292.247 72.6529 292.618 73.8981 293.39 74.7801L293.691 74.5167C293.005 73.7321 292.647 72.5945 292.647 71.0742H292.247ZM293.392 74.7826C294.182 75.6548 295.303 76.0789 296.724 76.0789V75.6789C295.386 75.6789 294.384 75.2827 293.689 74.5143L293.392 74.7826ZM296.724 76.0789C297.905 76.0789 298.863 75.7696 299.573 75.129L299.305 74.832C298.687 75.3893 297.835 75.6789 296.724 75.6789V76.0789ZM299.575 75.1275C300.286 74.4723 300.635 73.5955 300.635 72.5195H300.235C300.235 73.5009 299.921 74.2647 299.304 74.8334L299.575 75.1275Z" fill="black"/>
</g>
<g filter="url(#filter1_d)">
<path d="M320.455 61.5195C320.455 60.4518 320.156 59.6055 319.557 58.9805C318.971 58.3424 317.968 57.7565 316.549 57.2227C315.13 56.6888 313.906 56.1615 312.877 55.6406C311.849 55.1068 310.963 54.5013 310.221 53.8242C309.492 53.1341 308.919 52.3268 308.502 51.4023C308.099 50.4779 307.897 49.3776 307.897 48.1016C307.897 45.901 308.6 44.0977 310.006 42.6914C311.412 41.2852 313.281 40.4648 315.612 40.2305V36.0508H318.737V40.2891C321.041 40.6146 322.845 41.5781 324.147 43.1797C325.449 44.7682 326.1 46.832 326.1 49.3711H320.455C320.455 47.8086 320.13 46.6432 319.479 45.875C318.841 45.0938 317.981 44.7031 316.901 44.7031C315.833 44.7031 315.006 45.0091 314.42 45.6211C313.834 46.2201 313.541 47.0534 313.541 48.1211C313.541 49.1107 313.828 49.9049 314.401 50.5039C314.974 51.1029 316.035 51.7148 317.584 52.3398C319.147 52.9648 320.429 53.5573 321.432 54.1172C322.435 54.6641 323.281 55.2891 323.971 55.9922C324.661 56.6823 325.188 57.4766 325.553 58.375C325.918 59.2604 326.1 60.2956 326.1 61.4805C326.1 63.694 325.41 65.4909 324.03 66.8711C322.649 68.2513 320.748 69.0651 318.326 69.3125V73.1992H315.221V69.332C312.552 69.0456 310.481 68.1016 309.01 66.5C307.552 64.8854 306.823 62.7435 306.823 60.0742H312.467C312.467 61.6237 312.832 62.8151 313.561 63.6484C314.303 64.4688 315.364 64.8789 316.744 64.8789C317.89 64.8789 318.795 64.5794 319.459 63.9805C320.123 63.3685 320.455 62.5482 320.455 61.5195Z" fill="#03A700"/>
<path d="M319.557 58.9805L319.41 59.1158L319.412 59.1188L319.557 58.9805ZM312.877 55.6406L312.785 55.8182L312.787 55.8191L312.877 55.6406ZM310.221 53.8242L310.083 53.9695L310.086 53.972L310.221 53.8242ZM308.502 51.4023L308.319 51.4824L308.32 51.4845L308.502 51.4023ZM315.612 40.2305L315.632 40.4295L315.812 40.4114V40.2305H315.612ZM315.612 36.0508V35.8508H315.412V36.0508H315.612ZM318.737 36.0508H318.937V35.8508H318.737V36.0508ZM318.737 40.2891H318.537V40.4628L318.709 40.4871L318.737 40.2891ZM324.147 43.1797L323.992 43.3059L323.992 43.3065L324.147 43.1797ZM326.1 49.3711V49.5711H326.3V49.3711H326.1ZM320.455 49.3711H320.255V49.5711H320.455V49.3711ZM319.479 45.875L319.324 46.0015L319.326 46.0043L319.479 45.875ZM314.42 45.6211L314.563 45.761L314.565 45.7594L314.42 45.6211ZM317.584 52.3398L317.509 52.5253L317.51 52.5255L317.584 52.3398ZM321.432 54.1172L321.334 54.2918L321.336 54.2928L321.432 54.1172ZM323.971 55.9922L323.828 56.1323L323.83 56.1336L323.971 55.9922ZM325.553 58.375L325.368 58.4502L325.368 58.4511L325.553 58.375ZM324.03 66.8711L323.888 66.7297L324.03 66.8711ZM318.326 69.3125L318.306 69.1135L318.126 69.1319V69.3125H318.326ZM318.326 73.1992V73.3992H318.526V73.1992H318.326ZM315.221 73.1992H315.021V73.3992H315.221V73.1992ZM315.221 69.332H315.421V69.1523L315.242 69.1332L315.221 69.332ZM309.01 66.5L308.862 66.6341L308.863 66.6353L309.01 66.5ZM306.823 60.0742V59.8742H306.623V60.0742H306.823ZM312.467 60.0742H312.667V59.8742H312.467V60.0742ZM313.561 63.6484L313.41 63.7802L313.412 63.7826L313.561 63.6484ZM319.459 63.9805L319.593 64.129L319.595 64.1275L319.459 63.9805ZM320.655 61.5195C320.655 60.4129 320.344 59.5126 319.701 58.8421L319.412 59.1188C319.968 59.6984 320.255 60.4907 320.255 61.5195H320.655ZM319.704 58.8452C319.087 58.1728 318.049 57.5732 316.619 57.0355L316.479 57.4099C317.888 57.9398 318.855 58.5121 319.41 59.1157L319.704 58.8452ZM316.619 57.0355C315.205 56.5034 313.988 55.9789 312.968 55.4622L312.787 55.8191C313.824 56.344 315.055 56.8742 316.479 57.4099L316.619 57.0355ZM312.969 55.4631C311.954 54.9361 311.083 54.3402 310.356 53.6765L310.086 53.972C310.843 54.6624 311.743 55.2775 312.785 55.8181L312.969 55.4631ZM310.358 53.679C309.648 53.0069 309.091 52.2211 308.685 51.3202L308.32 51.4845C308.747 52.4325 309.335 53.2613 310.083 53.9695L310.358 53.679ZM308.685 51.3223C308.295 50.4288 308.097 49.3571 308.097 48.1016H307.697C307.697 49.3981 307.902 50.5269 308.319 51.4824L308.685 51.3223ZM308.097 48.1016C308.097 45.9479 308.783 44.1974 310.148 42.8328L309.865 42.55C308.417 43.9979 307.697 45.8542 307.697 48.1016H308.097ZM310.148 42.8328C311.516 41.4648 313.338 40.6601 315.632 40.4295L315.592 40.0315C313.223 40.2696 311.309 41.1055 309.865 42.55L310.148 42.8328ZM315.812 40.2305V36.0508H315.412V40.2305H315.812ZM315.612 36.2508H318.737V35.8508H315.612V36.2508ZM318.537 36.0508V40.2891H318.937V36.0508H318.537ZM318.709 40.4871C320.97 40.8065 322.725 41.7485 323.992 43.3059L324.302 43.0535C322.964 41.4077 321.112 40.4226 318.765 40.091L318.709 40.4871ZM323.992 43.3065C325.258 44.8514 325.9 46.867 325.9 49.3711H326.3C326.3 46.797 325.639 44.685 324.301 43.0529L323.992 43.3065ZM326.1 49.1711H320.455V49.5711H326.1V49.1711ZM320.655 49.3711C320.655 47.7861 320.326 46.5653 319.631 45.7457L319.326 46.0043C319.934 46.7211 320.255 47.8311 320.255 49.3711H320.655ZM319.634 45.7485C318.955 44.9171 318.037 44.5031 316.901 44.5031V44.9031C317.926 44.9031 318.727 45.2704 319.324 46.0015L319.634 45.7485ZM316.901 44.5031C315.793 44.5031 314.909 44.8217 314.276 45.4828L314.565 45.7594C315.104 45.1965 315.872 44.9031 316.901 44.9031V44.5031ZM314.277 45.4812C313.645 46.1271 313.341 47.0161 313.341 48.1211H313.741C313.741 47.0907 314.023 46.313 314.563 45.761L314.277 45.4812ZM313.341 48.1211C313.341 49.1515 313.641 49.9989 314.256 50.6422L314.545 50.3657C314.015 49.811 313.741 49.0698 313.741 48.1211H313.341ZM314.256 50.6422C314.86 51.2735 315.955 51.8983 317.509 52.5253L317.659 52.1544C316.115 51.5314 315.087 50.9322 314.545 50.3657L314.256 50.6422ZM317.51 52.5255C319.068 53.1487 320.342 53.7375 321.334 54.2918L321.529 53.9426C320.517 53.3771 319.226 52.781 317.659 52.1541L317.51 52.5255ZM321.336 54.2928C322.324 54.8317 323.154 55.4453 323.828 56.1323L324.114 55.8521C323.408 55.1329 322.545 54.4965 321.528 53.9416L321.336 54.2928ZM323.83 56.1336C324.501 56.8049 325.013 57.5767 325.368 58.4502L325.738 58.2998C325.364 57.3764 324.821 56.5597 324.112 55.8508L323.83 56.1336ZM325.368 58.4511C325.721 59.3074 325.9 60.3157 325.9 61.4805H326.3C326.3 60.2755 326.115 59.2134 325.738 58.2989L325.368 58.4511ZM325.9 61.4805C325.9 63.6487 325.226 65.3921 323.888 66.7297L324.171 67.0125C325.594 65.5897 326.3 63.7393 326.3 61.4805H325.9ZM323.888 66.7297C322.548 68.0699 320.694 68.8696 318.306 69.1135L318.347 69.5115C320.803 69.2606 322.751 68.4327 324.171 67.0125L323.888 66.7297ZM318.126 69.3125V73.1992H318.526V69.3125H318.126ZM318.326 72.9992H315.221V73.3992H318.326V72.9992ZM315.421 73.1992V69.332H315.021V73.1992H315.421ZM315.242 69.1332C312.61 68.8506 310.589 67.9226 309.157 66.3647L308.863 66.6353C310.374 68.2805 312.494 69.2405 315.2 69.5309L315.242 69.1332ZM309.158 66.3659C307.74 64.796 307.023 62.7057 307.023 60.0742H306.623C306.623 62.7813 307.363 64.9748 308.862 66.6341L309.158 66.3659ZM306.823 60.2742H312.467V59.8742H306.823V60.2742ZM312.267 60.0742C312.267 61.6529 312.638 62.8981 313.41 63.7801L313.711 63.5167C313.025 62.7321 312.667 61.5945 312.667 60.0742H312.267ZM313.412 63.7826C314.202 64.6548 315.323 65.0789 316.744 65.0789V64.6789C315.406 64.6789 314.404 64.2827 313.709 63.5143L313.412 63.7826ZM316.744 65.0789C317.925 65.0789 318.883 64.7696 319.593 64.129L319.325 63.832C318.707 64.3893 317.855 64.6789 316.744 64.6789V65.0789ZM319.595 64.1275C320.306 63.4723 320.655 62.5955 320.655 61.5195H320.255C320.255 62.5009 319.941 63.2647 319.324 63.8334L319.595 64.1275Z" fill="black"/>
</g>
<defs>
<filter id="filter0_d" x="276.603" y="40.8508" width="39.6773" height="57.5484" filterUnits="userSpaceOnUse" color-interpolation-filters="sRGB">
<feFlood flood-opacity="0" result="BackgroundImageFix"/>
<feColorMatrix in="SourceAlpha" type="matrix" values="0 0 0 0 0 0 0 0 0 0 0 0 0 0 0 0 0 0 127 0"/>
<feOffset dy="4"/>
<feGaussianBlur stdDeviation="5"/>
<feColorMatrix type="matrix" values="0 0 0 0 0 0 0 0 0 0 0 0 0 0 0 0 0 0 0.5 0"/>
<feBlend mode="normal" in2="BackgroundImageFix" result="effect1_dropShadow"/>
<feBlend mode="normal" in="SourceGraphic" in2="effect1_dropShadow" result="shape"/>
</filter>
<filter id="filter1_d" x="296.623" y="29.8508" width="39.6773" height="57.5484" filterUnits="userSpaceOnUse" color-interpolation-filters="sRGB">
<feFlood flood-opacity="0" result="BackgroundImageFix"/>
<feColorMatrix in="SourceAlpha" type="matrix" values="0 0 0 0 0 0 0 0 0 0 0 0 0 0 0 0 0 0 127 0"/>
<feOffset dy="4"/>
<feGaussianBlur stdDeviation="5"/>
<feColorMatrix type="matrix" values="0 0 0 0 0 0 0 0 0 0 0 0 0 0 0 0 0 0 0.5 0"/>
<feBlend mode="normal" in2="BackgroundImageFix" result="effect1_dropShadow"/>
<feBlend mode="normal" in="SourceGraphic" in2="effect1_dropShadow" result="shape"/>
</filter>
<clipPath id="clip0">
<rect width="120" height="28" fill="white" transform="translate(24 24)"/>
</clipPath>
</defs>
</svg>
