<svg width="180" height="60" viewBox="0 0 180 60" fill="none" xmlns="http://www.w3.org/2000/svg">
<rect width="180" height="60" fill="#C4C4C4"/>
<g clip-path="url(#clip0)">
<path d="M23.0931 22.3086L24.8015 13.2031H27.4077L24.5923 26H21.9599L19.8942 17.4395L17.8284 26H15.196L12.3806 13.2031H14.9868L16.704 22.291L18.7959 13.2031H21.0099L23.0931 22.3086ZM32.7247 26.1758C31.3418 26.1758 30.2144 25.748 29.3428 24.8926C28.4769 24.0371 28.044 22.8974 28.044 21.4736V21.2275C28.044 20.2724 28.2271 19.4199 28.5932 18.6699C28.9593 17.9141 29.4764 17.334 30.1447 16.9297C30.8188 16.5195 31.5858 16.3145 32.4458 16.3145C33.7359 16.3145 34.7499 16.7246 35.4879 17.5449C36.2317 18.3653 36.6036 19.5283 36.6036 21.0342V22.0713H30.598C30.6793 22.6924 30.9234 23.1904 31.3301 23.5654C31.7427 23.9404 32.2628 24.1279 32.8904 24.1279C33.8608 24.1279 34.6191 23.7734 35.1654 23.0645L36.4031 24.4619C36.0254 25.001 35.514 25.4228 34.869 25.7275C34.224 26.0264 33.5093 26.1758 32.7247 26.1758ZM32.4371 18.3711C31.9374 18.3711 31.5306 18.541 31.2168 18.8808C30.9088 19.2207 30.7113 19.707 30.6241 20.3398H34.1281V20.1377C34.1165 19.5752 33.9654 19.1416 33.6748 18.8369C33.3843 18.5264 32.9717 18.3711 32.4371 18.3711ZM40.8223 21.4912V26H38.2074V13.2031H43.1583C44.1113 13.2031 44.9481 13.3789 45.6686 13.7305C46.395 14.082 46.9529 14.583 47.3422 15.2334C47.7315 15.8779 47.9262 16.6133 47.9262 17.4395C47.9262 18.6933 47.4991 19.6836 46.6449 20.4102C45.7965 21.1308 44.6198 21.4912 43.1147 21.4912H40.8223ZM40.8223 19.3555H43.1583C43.8498 19.3555 44.3757 19.1914 44.736 18.8633C45.1021 18.5352 45.2851 18.0664 45.2851 17.457C45.2851 16.8301 45.1021 16.3232 44.736 15.9365C44.3699 15.5498 43.8644 15.3506 43.2193 15.3389H40.8223V19.3555ZM52.2234 26H49.6956V12.5H52.2234V26ZM59.7718 26C59.6556 25.7715 59.5713 25.4873 59.5191 25.1475C58.9089 25.833 58.1157 26.1758 57.1394 26.1758C56.2155 26.1758 55.4485 25.9062 54.8383 25.3672C54.234 24.8281 53.9318 24.1484 53.9318 23.3281C53.9318 22.3203 54.3008 21.5469 55.0388 21.0078C55.7826 20.4688 56.8547 20.1963 58.2551 20.1905H59.4144V19.6455C59.4144 19.2061 59.3011 18.8545 59.0745 18.5908C58.8537 18.3271 58.5021 18.1953 58.0198 18.1953C57.5956 18.1953 57.2615 18.2979 57.0174 18.503C56.7792 18.708 56.6601 18.9893 56.6601 19.3467H54.141C54.141 18.7959 54.3095 18.2861 54.6466 17.8174C54.9836 17.3486 55.4601 16.9824 56.076 16.7188C56.692 16.4492 57.3835 16.3145 58.1506 16.3145C59.3128 16.3145 60.2338 16.6103 60.9137 17.2021C61.5992 17.7881 61.9423 18.6143 61.9423 19.6807V23.8027C61.9483 24.7051 62.0727 25.3877 62.3172 25.8506V26H59.7718ZM57.6886 24.2334C58.0605 24.2334 58.4033 24.1514 58.7171 23.9873C59.0309 23.8174 59.2634 23.5918 59.4144 23.3105V21.6758H58.4731C57.2121 21.6758 56.5409 22.1153 56.4596 22.9942L56.4509 23.1435C56.4509 23.4599 56.5613 23.7207 56.7821 23.9258C57.0029 24.1309 57.3051 24.2334 57.6886 24.2334ZM66.1959 16.4902L66.2742 17.5889C66.9481 16.7393 67.8521 16.3145 68.9851 16.3145C69.9848 16.3145 70.7286 16.6103 71.2165 17.2021C71.7045 17.794 71.9544 18.6787 71.9663 19.8565V26H69.4473V19.918C69.4473 19.3789 69.3307 18.9893 69.0982 18.749C68.8661 18.503 68.4793 18.3799 67.9393 18.3799C67.2302 18.3799 66.6987 18.6846 66.3441 19.294V26H63.8251V16.4902H66.1959Z" fill="#FF9900"/>
</g>
<path d="M51.6387 37.9746H45.916V44H43.4453V29.7812H52.4785V31.7734H45.916V36.002H51.6387V37.9746ZM56.7363 44H54.3633V33.4336H56.7363V44ZM54.2168 30.6895C54.2168 30.3249 54.3307 30.0221 54.5586 29.7812C54.793 29.5404 55.125 29.4199 55.5547 29.4199C55.9844 29.4199 56.3164 29.5404 56.5508 29.7812C56.7852 30.0221 56.9023 30.3249 56.9023 30.6895C56.9023 31.0475 56.7852 31.347 56.5508 31.5879C56.3164 31.8223 55.9844 31.9395 55.5547 31.9395C55.125 31.9395 54.793 31.8223 54.5586 31.5879C54.3307 31.347 54.2168 31.0475 54.2168 30.6895ZM61.5312 33.4336L61.5996 34.6543C62.3809 33.7103 63.4062 33.2383 64.6758 33.2383C66.8763 33.2383 67.9961 34.498 68.0352 37.0176V44H65.6621V37.1543C65.6621 36.4837 65.5156 35.9889 65.2227 35.6699C64.9362 35.3444 64.4642 35.1816 63.8066 35.1816C62.8496 35.1816 62.1367 35.6146 61.668 36.4805V44H59.2949V33.4336H61.5312ZM76.7754 44C76.6712 43.7982 76.5801 43.4694 76.502 43.0137C75.7467 43.8014 74.8223 44.1953 73.7285 44.1953C72.6673 44.1953 71.8014 43.8926 71.1309 43.2871C70.4603 42.6816 70.125 41.9329 70.125 41.041C70.125 39.9147 70.5417 39.0521 71.375 38.4531C72.2148 37.8477 73.4128 37.5449 74.9688 37.5449H76.4238V36.8516C76.4238 36.3047 76.2708 35.8685 75.9648 35.543C75.6589 35.2109 75.1934 35.0449 74.5684 35.0449C74.028 35.0449 73.5853 35.1816 73.2402 35.4551C72.8952 35.722 72.7227 36.0638 72.7227 36.4805H70.3496C70.3496 35.901 70.5417 35.3607 70.9258 34.8594C71.3099 34.3516 71.8307 33.9544 72.4883 33.668C73.1523 33.3815 73.8913 33.2383 74.7051 33.2383C75.9421 33.2383 76.9284 33.5508 77.6641 34.1758C78.3997 34.7943 78.7773 35.6667 78.7969 36.793V41.5586C78.7969 42.5091 78.9303 43.2676 79.1973 43.834V44H76.7754ZM74.168 42.291C74.6367 42.291 75.0762 42.1771 75.4863 41.9492C75.903 41.7214 76.2155 41.4154 76.4238 41.0312V39.0391H75.1445C74.2656 39.0391 73.6048 39.1921 73.1621 39.498C72.7194 39.804 72.498 40.237 72.498 40.7969C72.498 41.2526 72.6478 41.6172 72.9473 41.8906C73.2533 42.1576 73.6602 42.291 74.168 42.291ZM83.4844 33.4336L83.5527 34.6543C84.334 33.7103 85.3594 33.2383 86.6289 33.2383C88.8294 33.2383 89.9492 34.498 89.9883 37.0176V44H87.6152V37.1543C87.6152 36.4837 87.4688 35.9889 87.1758 35.6699C86.8893 35.3444 86.4173 35.1816 85.7598 35.1816C84.8027 35.1816 84.0898 35.6146 83.6211 36.4805V44H81.248V33.4336H83.4844ZM96.7559 42.3008C97.3483 42.3008 97.8398 42.1283 98.2305 41.7832C98.6211 41.4382 98.8294 41.0117 98.8555 40.5039H101.092C101.066 41.1615 100.861 41.7767 100.477 42.3496C100.092 42.916 99.5716 43.3652 98.9141 43.6973C98.2565 44.0293 97.5469 44.1953 96.7852 44.1953C95.3073 44.1953 94.1354 43.7168 93.2695 42.7598C92.4036 41.8027 91.9707 40.4811 91.9707 38.7949V38.5508C91.9707 36.9427 92.4004 35.6569 93.2598 34.6934C94.1191 33.7233 95.291 33.2383 96.7754 33.2383C98.0319 33.2383 99.054 33.6061 99.8418 34.3418C100.636 35.071 101.053 36.0312 101.092 37.2227H98.8555C98.8294 36.6172 98.6211 36.1191 98.2305 35.7285C97.8464 35.3379 97.3548 35.1426 96.7559 35.1426C95.9876 35.1426 95.3952 35.4225 94.9785 35.9824C94.5618 36.5358 94.3503 37.3789 94.3438 38.5117V38.8926C94.3438 40.0384 94.5488 40.8945 94.959 41.4609C95.3757 42.0208 95.9746 42.3008 96.7559 42.3008ZM107.537 44.1953C106.033 44.1953 104.812 43.7233 103.875 42.7793C102.944 41.8288 102.479 40.5658 102.479 38.9902V38.6973C102.479 37.6426 102.68 36.7018 103.084 35.875C103.494 35.0417 104.067 34.3939 104.803 33.9316C105.538 33.4694 106.359 33.2383 107.264 33.2383C108.702 33.2383 109.812 33.6973 110.594 34.6152C111.382 35.5332 111.775 36.832 111.775 38.5117V39.4688H104.871C104.943 40.3411 105.232 41.0312 105.74 41.5391C106.255 42.0469 106.899 42.3008 107.674 42.3008C108.761 42.3008 109.646 41.8613 110.33 40.9824L111.609 42.2031C111.186 42.8346 110.62 43.3262 109.91 43.6777C109.207 44.0228 108.416 44.1953 107.537 44.1953ZM107.254 35.1426C106.603 35.1426 106.076 35.3704 105.672 35.8262C105.275 36.2819 105.021 36.9167 104.91 37.7305H109.432V37.5547C109.38 36.7604 109.168 36.1615 108.797 35.7578C108.426 35.3477 107.911 35.1426 107.254 35.1426ZM116.15 44H113.777V33.4336H116.15V44ZM113.631 30.6895C113.631 30.3249 113.745 30.0221 113.973 29.7812C114.207 29.5404 114.539 29.4199 114.969 29.4199C115.398 29.4199 115.73 29.5404 115.965 29.7812C116.199 30.0221 116.316 30.3249 116.316 30.6895C116.316 31.0475 116.199 31.347 115.965 31.5879C115.73 31.8223 115.398 31.9395 114.969 31.9395C114.539 31.9395 114.207 31.8223 113.973 31.5879C113.745 31.347 113.631 31.0475 113.631 30.6895ZM124.275 35.6016C123.963 35.5495 123.641 35.5234 123.309 35.5234C122.221 35.5234 121.489 35.9401 121.111 36.7734V44H118.738V33.4336H121.004L121.062 34.6152C121.635 33.6973 122.43 33.2383 123.445 33.2383C123.784 33.2383 124.064 33.2839 124.285 33.375L124.275 35.6016ZM124.979 38.6191C124.979 37.584 125.184 36.653 125.594 35.8262C126.004 34.9928 126.58 34.3548 127.322 33.9121C128.064 33.4629 128.917 33.2383 129.881 33.2383C131.307 33.2383 132.462 33.6973 133.348 34.6152C134.24 35.5332 134.721 36.7507 134.793 38.2676L134.803 38.8242C134.803 39.8659 134.601 40.7969 134.197 41.6172C133.8 42.4375 133.227 43.0723 132.479 43.5215C131.736 43.9707 130.877 44.1953 129.9 44.1953C128.41 44.1953 127.215 43.7005 126.316 42.7109C125.424 41.7148 124.979 40.39 124.979 38.7363V38.6191ZM127.352 38.8242C127.352 39.9115 127.576 40.7643 128.025 41.3828C128.475 41.9948 129.1 42.3008 129.9 42.3008C130.701 42.3008 131.323 41.9883 131.766 41.3633C132.215 40.7383 132.439 39.8236 132.439 38.6191C132.439 37.5514 132.208 36.7051 131.746 36.0801C131.29 35.4551 130.669 35.1426 129.881 35.1426C129.106 35.1426 128.491 35.4518 128.035 36.0703C127.579 36.6823 127.352 37.6003 127.352 38.8242Z" fill="#FF0000"/>
<rect x="0.5" y="-0.5" width="3.55" height="12.5" transform="matrix(1 0 0 -1 145.97 36)" fill="#8D4C4C" fill-opacity="0.5" stroke="#730808"/>
<path d="M139.77 23.25L148.245 16.1522L156.72 23.25H139.77Z" fill="#8D4C4C" fill-opacity="0.5" stroke="#730808"/>
<rect x="156.48" y="24" width="3.55" height="17.5" fill="#FDD750" stroke="#BA9C00"/>
<path d="M149.78 37.25L158.255 44.3478L166.73 37.25H149.78Z" fill="#FDD750" stroke="#BA9C00"/>
<g filter="url(#filter0_d)">
<path d="M150.218 36.2598C150.218 35.7259 150.068 35.3027 149.768 34.9902C149.475 34.6712 148.974 34.3783 148.265 34.1113C147.555 33.8444 146.943 33.5807 146.429 33.3203C145.914 33.0534 145.472 32.7507 145.1 32.4121C144.736 32.0671 144.449 31.6634 144.241 31.2012C144.039 30.7389 143.938 30.1888 143.938 29.5508C143.938 28.4505 144.29 27.5488 144.993 26.8457C145.696 26.1426 146.63 25.7324 147.796 25.6152V23.5254H149.358V25.6445C150.511 25.8073 151.412 26.2891 152.063 27.0898C152.714 27.8841 153.04 28.916 153.04 30.1855H150.218C150.218 29.4043 150.055 28.8216 149.729 28.4375C149.41 28.0469 148.981 27.8516 148.44 27.8516C147.906 27.8516 147.493 28.0046 147.2 28.3105C146.907 28.61 146.761 29.0267 146.761 29.5605C146.761 30.0553 146.904 30.4525 147.19 30.752C147.477 31.0514 148.007 31.3574 148.782 31.6699C149.563 31.9824 150.205 32.2786 150.706 32.5586C151.207 32.832 151.63 33.1445 151.975 33.4961C152.321 33.8411 152.584 34.2383 152.766 34.6875C152.949 35.1302 153.04 35.6478 153.04 36.2402C153.04 37.347 152.695 38.2454 152.005 38.9355C151.315 39.6257 150.364 40.0326 149.153 40.1562V42.0996H147.6V40.166C146.266 40.0228 145.231 39.5508 144.495 38.75C143.766 37.9427 143.401 36.8717 143.401 35.5371H146.224C146.224 36.3118 146.406 36.9076 146.77 37.3242C147.141 37.7344 147.672 37.9395 148.362 37.9395C148.935 37.9395 149.388 37.7897 149.72 37.4902C150.052 37.1842 150.218 36.7741 150.218 36.2598Z" fill="#BD0909"/>
<path d="M149.768 34.9902L149.621 35.1255L149.624 35.1286L149.768 34.9902ZM146.429 33.3203L146.336 33.4978L146.338 33.4987L146.429 33.3203ZM145.1 32.4121L144.963 32.5574L144.966 32.5599L145.1 32.4121ZM144.241 31.2012L144.058 31.2812L144.059 31.2834L144.241 31.2012ZM147.796 25.6152L147.816 25.8142L147.996 25.7961V25.6152H147.796ZM147.796 23.5254V23.3254H147.596V23.5254H147.796ZM149.358 23.5254H149.558V23.3254H149.358V23.5254ZM149.358 25.6445H149.158V25.8183L149.33 25.8426L149.358 25.6445ZM152.063 27.0898L151.908 27.216L151.909 27.2166L152.063 27.0898ZM153.04 30.1855V30.3855H153.24V30.1855H153.04ZM150.218 30.1855H150.018V30.3855H150.218V30.1855ZM149.729 28.4375L149.574 28.564L149.577 28.5668L149.729 28.4375ZM147.2 28.3105L147.343 28.4504L147.345 28.4489L147.2 28.3105ZM148.782 31.6699L148.707 31.8554L148.708 31.8556L148.782 31.6699ZM150.706 32.5586L150.608 32.7332L150.61 32.7342L150.706 32.5586ZM151.975 33.4961L151.833 33.6362L151.834 33.6375L151.975 33.4961ZM152.766 34.6875L152.581 34.7627L152.582 34.7637L152.766 34.6875ZM152.005 38.9355L151.863 38.7941L152.005 38.9355ZM149.153 40.1562L149.133 39.9573L148.953 39.9756V40.1562H149.153ZM149.153 42.0996V42.2996H149.353V42.0996H149.153ZM147.6 42.0996H147.4V42.2996H147.6V42.0996ZM147.6 40.166H147.8V39.9863L147.622 39.9672L147.6 40.166ZM144.495 38.75L144.347 38.8841L144.348 38.8853L144.495 38.75ZM143.401 35.5371V35.3371H143.201V35.5371H143.401ZM146.224 35.5371H146.424V35.3371H146.224V35.5371ZM146.77 37.3242L146.62 37.4559L146.622 37.4584L146.77 37.3242ZM149.72 37.4902L149.854 37.6388L149.855 37.6373L149.72 37.4902ZM150.418 36.2598C150.418 35.687 150.256 35.2098 149.913 34.8519L149.624 35.1286C149.88 35.3956 150.018 35.7648 150.018 36.2598H150.418ZM149.916 34.855C149.591 34.5015 149.055 34.195 148.335 33.9241L148.194 34.2985C148.893 34.5615 149.36 34.8409 149.621 35.1255L149.916 34.855ZM148.335 33.9241C147.63 33.659 147.025 33.3982 146.519 33.1419L146.338 33.4987C146.861 33.7633 147.48 34.0298 148.194 34.2985L148.335 33.9241ZM146.521 33.1428C146.02 32.8827 145.592 32.5895 145.235 32.2644L144.966 32.5599C145.351 32.9118 145.809 33.2241 146.336 33.4978L146.521 33.1428ZM145.238 32.2669C144.892 31.9399 144.621 31.5577 144.423 31.119L144.059 31.2834C144.278 31.7691 144.579 32.1942 144.963 32.5574L145.238 32.2669ZM144.424 31.1211C144.236 30.6899 144.138 30.1683 144.138 29.5508H143.738C143.738 30.2093 143.842 30.788 144.058 31.2812L144.424 31.1211ZM144.138 29.5508C144.138 28.4974 144.473 27.6486 145.134 26.9871L144.852 26.7043C144.107 27.4491 143.738 28.4037 143.738 29.5508H144.138ZM145.134 26.9871C145.799 26.3222 146.688 25.9277 147.816 25.8142L147.776 25.4162C146.573 25.5372 145.593 25.9629 144.852 26.7043L145.134 26.9871ZM147.996 25.6152V23.5254H147.596V25.6152H147.996ZM147.796 23.7254H149.358V23.3254H147.796V23.7254ZM149.158 23.5254V25.6445H149.558V23.5254H149.158ZM149.33 25.8426C150.44 25.9992 151.293 26.4594 151.908 27.216L152.219 26.9637C151.532 26.1187 150.582 25.6153 149.386 25.4465L149.33 25.8426ZM151.909 27.2166C152.524 27.9673 152.84 28.951 152.84 30.1855H153.24C153.24 28.881 152.905 27.8009 152.218 26.9631L151.909 27.2166ZM153.04 29.9855H150.218V30.3855H153.04V29.9855ZM150.418 30.1855C150.418 29.3818 150.251 28.7437 149.882 28.3082L149.577 28.5668C149.859 28.8995 150.018 29.4268 150.018 30.1855H150.418ZM149.884 28.311C149.524 27.8702 149.036 27.6516 148.44 27.6516V28.0516C148.926 28.0516 149.296 28.2236 149.574 28.564L149.884 28.311ZM148.44 27.6516C147.867 27.6516 147.396 27.8171 147.056 28.1722L147.345 28.4489C147.591 28.192 147.946 28.0516 148.44 28.0516V27.6516ZM147.057 28.1707C146.718 28.517 146.561 28.9894 146.561 29.5605H146.961C146.961 29.064 147.096 28.703 147.343 28.4504L147.057 28.1707ZM146.561 29.5605C146.561 30.0962 146.717 30.5465 147.046 30.8902L147.335 30.6137C147.091 30.3585 146.961 30.0145 146.961 29.5605H146.561ZM147.046 30.8902C147.363 31.2221 147.928 31.5409 148.707 31.8554L148.857 31.4844C148.087 31.1739 147.59 30.8808 147.335 30.6137L147.046 30.8902ZM148.708 31.8556C149.484 32.1662 150.117 32.4589 150.608 32.7332L150.803 32.384C150.292 32.0984 149.642 31.7986 148.856 31.4842L148.708 31.8556ZM150.61 32.7342C151.097 32.9996 151.503 33.3007 151.833 33.6362L152.118 33.356C151.757 32.9883 151.318 32.6644 150.802 32.383L150.61 32.7342ZM151.834 33.6375C152.16 33.9638 152.409 34.3384 152.581 34.7627L152.952 34.6123C152.759 34.1381 152.481 33.7185 152.117 33.3547L151.834 33.6375ZM152.582 34.7637C152.752 35.1772 152.84 35.6679 152.84 36.2402H153.24C153.24 35.6277 153.146 35.0832 152.951 34.6113L152.582 34.7637ZM152.84 36.2402C152.84 37.3017 152.511 38.1467 151.863 38.7941L152.146 39.077C152.879 38.3442 153.24 37.3923 153.24 36.2402H152.84ZM151.863 38.7941C151.213 39.4443 150.31 39.8371 149.133 39.9573L149.174 40.3552C150.419 40.228 151.416 39.807 152.146 39.077L151.863 38.7941ZM148.953 40.1562V42.0996H149.353V40.1562H148.953ZM149.153 41.8996H147.6V42.2996H149.153V41.8996ZM147.8 42.0996V40.166H147.4V42.0996H147.8ZM147.622 39.9672C146.324 39.8278 145.338 39.3718 144.642 38.6147L144.348 38.8853C145.123 39.7297 146.208 40.2177 147.579 40.3649L147.622 39.9672ZM144.643 38.6159C143.955 37.8533 143.601 36.834 143.601 35.5371H143.201C143.201 36.9095 143.577 38.0321 144.347 38.8841L144.643 38.6159ZM143.401 35.7371H146.224V35.3371H143.401V35.7371ZM146.024 35.5371C146.024 36.341 146.213 36.9905 146.62 37.4559L146.921 37.1925C146.599 36.8246 146.424 36.2827 146.424 35.5371H146.024ZM146.622 37.4584C147.04 37.9205 147.631 38.1395 148.362 38.1395V37.7395C147.714 37.7395 147.243 37.5483 146.919 37.19L146.622 37.4584ZM148.362 38.1395C148.97 38.1395 149.475 37.9799 149.854 37.6387L149.586 37.3417C149.3 37.5996 148.9 37.7395 148.362 37.7395V38.1395ZM149.855 37.6373C150.234 37.288 150.418 36.8214 150.418 36.2598H150.018C150.018 36.7268 149.869 37.0805 149.584 37.3432L149.855 37.6373Z" fill="black"/>
</g>
<g filter="url(#filter1_d)">
<path d="M160.228 30.7598C160.228 30.2259 160.078 29.8027 159.778 29.4902C159.485 29.1712 158.984 28.8783 158.275 28.6113C157.565 28.3444 156.953 28.0807 156.439 27.8203C155.924 27.5534 155.482 27.2507 155.11 26.9121C154.746 26.5671 154.459 26.1634 154.251 25.7012C154.049 25.2389 153.948 24.6888 153.948 24.0508C153.948 22.9505 154.3 22.0488 155.003 21.3457C155.706 20.6426 156.64 20.2324 157.806 20.1152V18.0254H159.368V20.1445C160.521 20.3073 161.422 20.7891 162.073 21.5898C162.724 22.3841 163.05 23.416 163.05 24.6855H160.228C160.228 23.9043 160.065 23.3216 159.739 22.9375C159.42 22.5469 158.991 22.3516 158.45 22.3516C157.916 22.3516 157.503 22.5046 157.21 22.8105C156.917 23.11 156.771 23.5267 156.771 24.0605C156.771 24.5553 156.914 24.9525 157.2 25.252C157.487 25.5514 158.017 25.8574 158.792 26.1699C159.573 26.4824 160.215 26.7786 160.716 27.0586C161.217 27.332 161.64 27.6445 161.985 27.9961C162.331 28.3411 162.594 28.7383 162.776 29.1875C162.959 29.6302 163.05 30.1478 163.05 30.7402C163.05 31.847 162.705 32.7454 162.015 33.4355C161.325 34.1257 160.374 34.5326 159.163 34.6562V36.5996H157.61V34.666C156.276 34.5228 155.241 34.0508 154.505 33.25C153.776 32.4427 153.411 31.3717 153.411 30.0371H156.234C156.234 30.8118 156.416 31.4076 156.78 31.8242C157.151 32.2344 157.682 32.4395 158.372 32.4395C158.945 32.4395 159.398 32.2897 159.73 31.9902C160.062 31.6842 160.228 31.2741 160.228 30.7598Z" fill="#03A700"/>
<path d="M159.778 29.4902L159.631 29.6255L159.634 29.6286L159.778 29.4902ZM156.439 27.8203L156.346 27.9978L156.348 27.9987L156.439 27.8203ZM155.11 26.9121L154.973 27.0574L154.976 27.0599L155.11 26.9121ZM154.251 25.7012L154.068 25.7812L154.069 25.7834L154.251 25.7012ZM157.806 20.1152L157.826 20.3142L158.006 20.2961V20.1152H157.806ZM157.806 18.0254V17.8254H157.606V18.0254H157.806ZM159.368 18.0254H159.568V17.8254H159.368V18.0254ZM159.368 20.1445H159.168V20.3183L159.34 20.3426L159.368 20.1445ZM162.073 21.5898L161.918 21.716L161.919 21.7166L162.073 21.5898ZM163.05 24.6855V24.8855H163.25V24.6855H163.05ZM160.228 24.6855H160.028V24.8855H160.228V24.6855ZM159.739 22.9375L159.584 23.064L159.587 23.0668L159.739 22.9375ZM157.21 22.8105L157.353 22.9504L157.355 22.9489L157.21 22.8105ZM158.792 26.1699L158.717 26.3554L158.718 26.3556L158.792 26.1699ZM160.716 27.0586L160.618 27.2332L160.62 27.2342L160.716 27.0586ZM161.985 27.9961L161.843 28.1362L161.844 28.1375L161.985 27.9961ZM162.776 29.1875L162.591 29.2627L162.592 29.2637L162.776 29.1875ZM162.015 33.4355L161.873 33.2941L162.015 33.4355ZM159.163 34.6562L159.143 34.4573L158.963 34.4756V34.6562H159.163ZM159.163 36.5996V36.7996H159.363V36.5996H159.163ZM157.61 36.5996H157.41V36.7996H157.61V36.5996ZM157.61 34.666H157.81V34.4863L157.632 34.4672L157.61 34.666ZM154.505 33.25L154.357 33.3841L154.358 33.3853L154.505 33.25ZM153.411 30.0371V29.8371H153.211V30.0371H153.411ZM156.234 30.0371H156.434V29.8371H156.234V30.0371ZM156.78 31.8242L156.63 31.9559L156.632 31.9584L156.78 31.8242ZM159.73 31.9902L159.864 32.1388L159.865 32.1373L159.73 31.9902ZM160.428 30.7598C160.428 30.187 160.266 29.7098 159.923 29.3519L159.634 29.6286C159.89 29.8956 160.028 30.2648 160.028 30.7598H160.428ZM159.926 29.355C159.601 29.0015 159.065 28.695 158.345 28.4241L158.204 28.7985C158.903 29.0615 159.37 29.3409 159.631 29.6255L159.926 29.355ZM158.345 28.4241C157.64 28.159 157.035 27.8982 156.529 27.6419L156.348 27.9987C156.871 28.2633 157.49 28.5298 158.204 28.7985L158.345 28.4241ZM156.531 27.6428C156.03 27.3827 155.602 27.0895 155.245 26.7644L154.976 27.0599C155.361 27.4118 155.819 27.7241 156.346 27.9978L156.531 27.6428ZM155.248 26.7669C154.902 26.4399 154.631 26.0577 154.433 25.619L154.069 25.7834C154.288 26.2691 154.589 26.6942 154.973 27.0574L155.248 26.7669ZM154.434 25.6211C154.246 25.1899 154.148 24.6683 154.148 24.0508H153.748C153.748 24.7093 153.852 25.288 154.068 25.7812L154.434 25.6211ZM154.148 24.0508C154.148 22.9974 154.483 22.1486 155.144 21.4871L154.862 21.2043C154.117 21.9491 153.748 22.9037 153.748 24.0508H154.148ZM155.144 21.4871C155.809 20.8222 156.698 20.4277 157.826 20.3142L157.786 19.9162C156.583 20.0372 155.603 20.4629 154.862 21.2043L155.144 21.4871ZM158.006 20.1152V18.0254H157.606V20.1152H158.006ZM157.806 18.2254H159.368V17.8254H157.806V18.2254ZM159.168 18.0254V20.1445H159.568V18.0254H159.168ZM159.34 20.3426C160.45 20.4992 161.303 20.9594 161.918 21.716L162.229 21.4637C161.542 20.6187 160.592 20.1153 159.396 19.9465L159.34 20.3426ZM161.919 21.7166C162.534 22.4673 162.85 23.451 162.85 24.6855H163.25C163.25 23.381 162.915 22.3009 162.228 21.4631L161.919 21.7166ZM163.05 24.4855H160.228V24.8855H163.05V24.4855ZM160.428 24.6855C160.428 23.8818 160.261 23.2437 159.892 22.8082L159.587 23.0668C159.869 23.3995 160.028 23.9268 160.028 24.6855H160.428ZM159.894 22.811C159.534 22.3702 159.046 22.1516 158.45 22.1516V22.5516C158.936 22.5516 159.306 22.7236 159.584 23.064L159.894 22.811ZM158.45 22.1516C157.877 22.1516 157.406 22.3171 157.066 22.6722L157.355 22.9489C157.601 22.692 157.956 22.5516 158.45 22.5516V22.1516ZM157.067 22.6707C156.728 23.017 156.571 23.4894 156.571 24.0605H156.971C156.971 23.564 157.106 23.203 157.353 22.9504L157.067 22.6707ZM156.571 24.0605C156.571 24.5962 156.727 25.0465 157.056 25.3902L157.345 25.1137C157.101 24.8585 156.971 24.5145 156.971 24.0605H156.571ZM157.056 25.3902C157.373 25.7221 157.938 26.0409 158.717 26.3554L158.867 25.9844C158.097 25.6739 157.6 25.3808 157.345 25.1137L157.056 25.3902ZM158.718 26.3556C159.494 26.6662 160.127 26.9589 160.618 27.2332L160.813 26.884C160.302 26.5984 159.652 26.2986 158.866 25.9842L158.718 26.3556ZM160.62 27.2342C161.107 27.4996 161.514 27.8007 161.843 28.1362L162.128 27.856C161.767 27.4883 161.328 27.1644 160.812 26.883L160.62 27.2342ZM161.844 28.1375C162.17 28.4638 162.419 28.8384 162.591 29.2627L162.962 29.1123C162.769 28.6381 162.491 28.2185 162.127 27.8547L161.844 28.1375ZM162.592 29.2637C162.762 29.6772 162.85 30.1679 162.85 30.7402H163.25C163.25 30.1277 163.156 29.5832 162.961 29.1113L162.592 29.2637ZM162.85 30.7402C162.85 31.8017 162.521 32.6467 161.873 33.2941L162.156 33.577C162.889 32.8442 163.25 31.8923 163.25 30.7402H162.85ZM161.873 33.2941C161.223 33.9443 160.32 34.3371 159.143 34.4573L159.184 34.8552C160.429 34.728 161.426 34.307 162.156 33.577L161.873 33.2941ZM158.963 34.6562V36.5996H159.363V34.6562H158.963ZM159.163 36.3996H157.61V36.7996H159.163V36.3996ZM157.81 36.5996V34.666H157.41V36.5996H157.81ZM157.632 34.4672C156.334 34.3278 155.348 33.8718 154.652 33.1147L154.358 33.3853C155.133 34.2297 156.218 34.7177 157.589 34.8649L157.632 34.4672ZM154.653 33.1159C153.965 32.3533 153.611 31.334 153.611 30.0371H153.211C153.211 31.4095 153.587 32.5321 154.357 33.3841L154.653 33.1159ZM153.411 30.2371H156.234V29.8371H153.411V30.2371ZM156.034 30.0371C156.034 30.841 156.223 31.4905 156.63 31.9559L156.931 31.6925C156.609 31.3246 156.434 30.7827 156.434 30.0371H156.034ZM156.632 31.9584C157.05 32.4205 157.641 32.6395 158.372 32.6395V32.2395C157.724 32.2395 157.253 32.0483 156.929 31.69L156.632 31.9584ZM158.372 32.6395C158.98 32.6395 159.485 32.4799 159.864 32.1387L159.596 31.8417C159.31 32.0996 158.91 32.2395 158.372 32.2395V32.6395ZM159.865 32.1373C160.244 31.788 160.428 31.3214 160.428 30.7598H160.028C160.028 31.2268 159.879 31.5805 159.594 31.8432L159.865 32.1373Z" fill="black"/>
</g>
<defs>
<filter id="filter0_d" x="133.201" y="17.3254" width="30.0387" height="38.9742" filterUnits="userSpaceOnUse" color-interpolation-filters="sRGB">
<feFlood flood-opacity="0" result="BackgroundImageFix"/>
<feColorMatrix in="SourceAlpha" type="matrix" values="0 0 0 0 0 0 0 0 0 0 0 0 0 0 0 0 0 0 127 0"/>
<feOffset dy="4"/>
<feGaussianBlur stdDeviation="5"/>
<feColorMatrix type="matrix" values="0 0 0 0 0 0 0 0 0 0 0 0 0 0 0 0 0 0 0.5 0"/>
<feBlend mode="normal" in2="BackgroundImageFix" result="effect1_dropShadow"/>
<feBlend mode="normal" in="SourceGraphic" in2="effect1_dropShadow" result="shape"/>
</filter>
<filter id="filter1_d" x="143.211" y="11.8254" width="30.0387" height="38.9742" filterUnits="userSpaceOnUse" color-interpolation-filters="sRGB">
<feFlood flood-opacity="0" result="BackgroundImageFix"/>
<feColorMatrix in="SourceAlpha" type="matrix" values="0 0 0 0 0 0 0 0 0 0 0 0 0 0 0 0 0 0 127 0"/>
<feOffset dy="4"/>
<feGaussianBlur stdDeviation="5"/>
<feColorMatrix type="matrix" values="0 0 0 0 0 0 0 0 0 0 0 0 0 0 0 0 0 0 0.5 0"/>
<feBlend mode="normal" in2="BackgroundImageFix" result="effect1_dropShadow"/>
<feBlend mode="normal" in="SourceGraphic" in2="effect1_dropShadow" result="shape"/>
</filter>
<clipPath id="clip0">
<rect width="60" height="14" fill="white" transform="translate(12 12)"/>
</clipPath>
</defs>
</svg>
