<svg width="360" height="120" viewBox="0 0 360 120" fill="none" xmlns="http://www.w3.org/2000/svg">
<rect width="360" height="120" fill="#C4C4C4"/>
<g clip-path="url(#clip0)">
<path d="M46.1862 44.6172L49.603 26.4062H54.8155L49.1846 52H43.9199L39.7883 34.8789L35.6568 52H30.392L24.7612 26.4062H29.9737L33.4079 44.582L37.5918 26.4062H42.0197L46.1862 44.6172ZM65.4495 52.3516C62.6835 52.3516 60.4288 51.4961 58.6855 49.7852C56.9539 48.0742 56.0881 45.7949 56.0881 42.9473V42.4551C56.0881 40.5449 56.4541 38.8398 57.1863 37.3398C57.9185 35.8281 58.9528 34.668 60.2894 33.8594C61.6375 33.0391 63.1716 32.6289 64.8916 32.6289C67.4717 32.6289 69.4997 33.4492 70.9757 35.0898C72.4633 36.7305 73.2071 39.0566 73.2071 42.0684V44.1426H61.1959C61.3586 45.3848 61.8467 46.3809 62.6602 47.1309C63.4854 47.8809 64.5256 48.2559 65.7807 48.2559C67.7215 48.2559 69.2382 47.5469 70.3307 46.1289L72.8062 48.9238C72.0508 50.002 71.028 50.8457 69.7379 51.4551C68.448 52.0527 67.0185 52.3516 65.4495 52.3516ZM64.8742 36.7422C63.8747 36.7422 63.0612 37.082 62.4336 37.7617C61.8176 38.4414 61.4225 39.4141 61.2482 40.6797H68.2562V40.2754C68.233 39.1504 67.9308 38.2832 67.3496 37.6738C66.7686 37.0527 65.9435 36.7422 64.8742 36.7422ZM81.6446 42.9824V52H76.4148V26.4062H86.3166C88.2226 26.4062 89.8962 26.7578 91.3372 27.4609C92.79 28.1641 93.9057 29.166 94.6844 30.4668C95.4631 31.7559 95.8524 33.2266 95.8524 34.8789C95.8524 37.3867 94.9981 39.3672 93.2898 40.8203C91.5929 42.2617 89.2395 42.9824 86.2294 42.9824H81.6446ZM81.6446 38.7109H86.3166C87.6997 38.7109 88.7514 38.3828 89.472 37.7266C90.2042 37.0703 90.5702 36.1328 90.5702 34.9141C90.5702 33.6602 90.2042 32.6465 89.472 31.8731C88.7398 31.0996 87.7287 30.7012 86.4387 30.6777H81.6446V38.7109ZM104.447 52H99.3912V25H104.447V52ZM119.544 52C119.311 51.543 119.143 50.9746 119.038 50.2949C117.818 51.666 116.231 52.3516 114.279 52.3516C112.431 52.3516 110.897 51.8125 109.677 50.7344C108.468 49.6562 107.864 48.2969 107.864 46.6562C107.864 44.6406 108.602 43.0938 110.078 42.0156C111.565 40.9375 113.709 40.3926 116.51 40.3809H118.829V39.291C118.829 38.4121 118.602 37.709 118.149 37.1816C117.707 36.6543 117.004 36.3906 116.04 36.3906C115.191 36.3906 114.523 36.5957 114.035 37.0059C113.558 37.416 113.32 37.9785 113.32 38.6934H108.282C108.282 37.5918 108.619 36.5723 109.293 35.6348C109.967 34.6973 110.92 33.9648 112.152 33.4375C113.384 32.8984 114.767 32.6289 116.301 32.6289C118.626 32.6289 120.468 33.2207 121.827 34.4043C123.198 35.5762 123.885 37.2285 123.885 39.3613V47.6055C123.897 49.4102 124.145 50.7754 124.634 51.7012V52H119.544ZM115.377 48.4668C116.121 48.4668 116.807 48.3027 117.434 47.9746C118.062 47.6348 118.527 47.1836 118.829 46.6211V43.3516H116.946C114.424 43.3516 113.082 44.2305 112.919 45.9883L112.902 46.2871C112.902 46.9199 113.123 47.4414 113.564 47.8516C114.006 48.2617 114.61 48.4668 115.377 48.4668ZM132.392 32.9805L132.548 35.1777C133.896 33.4785 135.704 32.6289 137.97 32.6289C139.97 32.6289 141.457 33.2207 142.433 34.4043C143.409 35.5879 143.909 37.3574 143.933 39.7129V52H138.895V39.8359C138.895 38.7578 138.661 37.9785 138.196 37.498C137.732 37.0059 136.959 36.7598 135.879 36.7598C134.46 36.7598 133.397 37.3691 132.688 38.5879V52H127.65V32.9805H132.392Z" fill="#FF9900"/>
</g>
<path d="M97.3398 78.043H91.832V89H86.8906V60.5625H96.8906C100.172 60.5625 102.704 61.2982 104.488 62.7695C106.272 64.2409 107.164 66.3698 107.164 69.1562C107.164 71.0573 106.702 72.6523 105.777 73.9414C104.866 75.2174 103.59 76.2005 101.949 76.8906L108.336 88.7461V89H103.043L97.3398 78.043ZM91.832 74.0781H96.9102C98.5768 74.0781 99.8789 73.6615 100.816 72.8281C101.754 71.9818 102.223 70.8294 102.223 69.3711C102.223 67.8477 101.786 66.6693 100.914 65.8359C100.055 65.0026 98.7656 64.5729 97.0469 64.5469H91.832V74.0781ZM114.352 84C115.237 84 115.921 84.2539 116.402 84.7617C116.884 85.2565 117.125 85.8815 117.125 86.6367C117.125 87.3789 116.884 87.9974 116.402 88.4922C115.921 88.974 115.237 89.2148 114.352 89.2148C113.505 89.2148 112.835 88.974 112.34 88.4922C111.845 88.0104 111.598 87.3919 111.598 86.6367C111.598 85.8815 111.839 85.2565 112.32 84.7617C112.802 84.2539 113.479 84 114.352 84ZM145.602 89H140.68V76.3633H127.965V89H123.023V60.5625H127.965V72.3984H140.68V60.5625H145.602V89ZM153.961 84C154.846 84 155.53 84.2539 156.012 84.7617C156.493 85.2565 156.734 85.8815 156.734 86.6367C156.734 87.3789 156.493 87.9974 156.012 88.4922C155.53 88.974 154.846 89.2148 153.961 89.2148C153.115 89.2148 152.444 88.974 151.949 88.4922C151.454 88.0104 151.207 87.3919 151.207 86.6367C151.207 85.8815 151.448 85.2565 151.93 84.7617C152.411 84.2539 153.089 84 153.961 84Z" fill="#FF0000"/>
<path d="M312 62C316.98 62 320.97 57.98 320.97 53C320.97 48.02 316.98 44 312 44C307.02 44 303 48.02 303 53C303 57.98 307.02 62 312 62ZM288 62C292.98 62 296.97 57.98 296.97 53C296.97 48.02 292.98 44 288 44C283.02 44 279 48.02 279 53C279 57.98 283.02 62 288 62ZM288 68C281.01 68 267 71.51 267 78.5V86H309V78.5C309 71.51 294.99 68 288 68ZM312 68C311.13 68 310.14 68.06 309.09 68.15C312.57 70.67 315 74.06 315 78.5V86H333V78.5C333 71.51 318.99 68 312 68Z" fill="black"/>
<defs>
<clipPath id="clip0">
<rect width="120" height="28" fill="white" transform="translate(24 24)"/>
</clipPath>
</defs>
</svg>
