<svg width="180" height="60" viewBox="0 0 180 60" fill="none" xmlns="http://www.w3.org/2000/svg">
<rect width="180" height="60" fill="#C4C4C4"/>
<g clip-path="url(#clip0)">
<path d="M23.0931 22.3086L24.8015 13.2031H27.4077L24.5923 26H21.9599L19.8942 17.4395L17.8284 26H15.196L12.3806 13.2031H14.9868L16.704 22.291L18.7959 13.2031H21.0099L23.0931 22.3086ZM32.7247 26.1758C31.3418 26.1758 30.2144 25.748 29.3428 24.8926C28.4769 24.0371 28.044 22.8974 28.044 21.4736V21.2275C28.044 20.2724 28.2271 19.4199 28.5932 18.6699C28.9593 17.9141 29.4764 17.334 30.1447 16.9297C30.8188 16.5195 31.5858 16.3145 32.4458 16.3145C33.7359 16.3145 34.7499 16.7246 35.4879 17.5449C36.2317 18.3653 36.6036 19.5283 36.6036 21.0342V22.0713H30.598C30.6793 22.6924 30.9234 23.1904 31.3301 23.5654C31.7427 23.9404 32.2628 24.1279 32.8904 24.1279C33.8608 24.1279 34.6191 23.7734 35.1654 23.0645L36.4031 24.4619C36.0254 25.001 35.514 25.4228 34.869 25.7275C34.224 26.0264 33.5093 26.1758 32.7247 26.1758ZM32.4371 18.3711C31.9374 18.3711 31.5306 18.541 31.2168 18.8808C30.9088 19.2207 30.7113 19.707 30.6241 20.3398H34.1281V20.1377C34.1165 19.5752 33.9654 19.1416 33.6748 18.8369C33.3843 18.5264 32.9717 18.3711 32.4371 18.3711ZM40.8223 21.4912V26H38.2074V13.2031H43.1583C44.1113 13.2031 44.9481 13.3789 45.6686 13.7305C46.395 14.082 46.9529 14.583 47.3422 15.2334C47.7315 15.8779 47.9262 16.6133 47.9262 17.4395C47.9262 18.6933 47.4991 19.6836 46.6449 20.4102C45.7965 21.1308 44.6198 21.4912 43.1147 21.4912H40.8223ZM40.8223 19.3555H43.1583C43.8498 19.3555 44.3757 19.1914 44.736 18.8633C45.1021 18.5352 45.2851 18.0664 45.2851 17.457C45.2851 16.8301 45.1021 16.3232 44.736 15.9365C44.3699 15.5498 43.8644 15.3506 43.2193 15.3389H40.8223V19.3555ZM52.2234 26H49.6956V12.5H52.2234V26ZM59.7718 26C59.6556 25.7715 59.5713 25.4873 59.5191 25.1475C58.9089 25.833 58.1157 26.1758 57.1394 26.1758C56.2155 26.1758 55.4485 25.9062 54.8383 25.3672C54.234 24.8281 53.9318 24.1484 53.9318 23.3281C53.9318 22.3203 54.3008 21.5469 55.0388 21.0078C55.7826 20.4688 56.8547 20.1963 58.2551 20.1905H59.4144V19.6455C59.4144 19.2061 59.3011 18.8545 59.0745 18.5908C58.8537 18.3271 58.5021 18.1953 58.0198 18.1953C57.5956 18.1953 57.2615 18.2979 57.0174 18.503C56.7792 18.708 56.6601 18.9893 56.6601 19.3467H54.141C54.141 18.7959 54.3095 18.2861 54.6466 17.8174C54.9836 17.3486 55.4601 16.9824 56.076 16.7188C56.692 16.4492 57.3835 16.3145 58.1506 16.3145C59.3128 16.3145 60.2338 16.6103 60.9137 17.2021C61.5992 17.7881 61.9423 18.6143 61.9423 19.6807V23.8027C61.9483 24.7051 62.0727 25.3877 62.3172 25.8506V26H59.7718ZM57.6886 24.2334C58.0605 24.2334 58.4033 24.1514 58.7171 23.9873C59.0309 23.8174 59.2634 23.5918 59.4144 23.3105V21.6758H58.4731C57.2121 21.6758 56.5409 22.1153 56.4596 22.9942L56.4509 23.1435C56.4509 23.4599 56.5613 23.7207 56.7821 23.9258C57.0029 24.1309 57.3051 24.2334 57.6886 24.2334ZM66.1959 16.4902L66.2742 17.5889C66.9481 16.7393 67.8521 16.3145 68.9851 16.3145C69.9848 16.3145 70.7286 16.6103 71.2165 17.2021C71.7045 17.794 71.9544 18.6787 71.9663 19.8565V26H69.4473V19.918C69.4473 19.3789 69.3307 18.9893 69.0982 18.749C68.8661 18.503 68.4793 18.3799 67.9393 18.3799C67.2302 18.3799 66.6987 18.6846 66.3441 19.294V26H63.8251V16.4902H66.1959Z" fill="#FF9900"/>
</g>
<path d="M48.6699 38.5215H45.916V44H43.4453V29.7812H48.4453C50.0859 29.7812 51.3522 30.1491 52.2441 30.8848C53.1361 31.6204 53.582 32.6849 53.582 34.0781C53.582 35.0286 53.3509 35.8262 52.8887 36.4707C52.4329 37.1087 51.7949 37.6003 50.9746 37.9453L54.168 43.873V44H51.5215L48.6699 38.5215ZM45.916 36.5391H48.4551C49.2884 36.5391 49.9395 36.3307 50.4082 35.9141C50.877 35.4909 51.1113 34.9147 51.1113 34.1855C51.1113 33.4238 50.8932 32.8346 50.457 32.418C50.0273 32.0013 49.3828 31.7865 48.5234 31.7734H45.916V36.5391ZM57.1758 41.5C57.6185 41.5 57.9603 41.627 58.2012 41.8809C58.4421 42.1283 58.5625 42.4408 58.5625 42.8184C58.5625 43.1895 58.4421 43.4987 58.2012 43.7461C57.9603 43.987 57.6185 44.1074 57.1758 44.1074C56.7526 44.1074 56.4173 43.987 56.1699 43.7461C55.9225 43.5052 55.7988 43.196 55.7988 42.8184C55.7988 42.4408 55.9193 42.1283 56.1602 41.8809C56.401 41.627 56.7396 41.5 57.1758 41.5ZM72.8008 44H70.3398V37.6816H63.9824V44H61.5117V29.7812H63.9824V35.6992H70.3398V29.7812H72.8008V44ZM76.9805 41.5C77.4232 41.5 77.765 41.627 78.0059 41.8809C78.2467 42.1283 78.3672 42.4408 78.3672 42.8184C78.3672 43.1895 78.2467 43.4987 78.0059 43.7461C77.765 43.987 77.4232 44.1074 76.9805 44.1074C76.5573 44.1074 76.222 43.987 75.9746 43.7461C75.7272 43.5052 75.6035 43.196 75.6035 42.8184C75.6035 42.4408 75.724 42.1283 75.9648 41.8809C76.2057 41.627 76.5443 41.5 76.9805 41.5Z" fill="#FF0000"/>
<path d="M156 31C158.49 31 160.485 28.99 160.485 26.5C160.485 24.01 158.49 22 156 22C153.51 22 151.5 24.01 151.5 26.5C151.5 28.99 153.51 31 156 31ZM144 31C146.49 31 148.485 28.99 148.485 26.5C148.485 24.01 146.49 22 144 22C141.51 22 139.5 24.01 139.5 26.5C139.5 28.99 141.51 31 144 31ZM144 34C140.505 34 133.5 35.755 133.5 39.25V43H154.5V39.25C154.5 35.755 147.495 34 144 34ZM156 34C155.565 34 155.07 34.03 154.545 34.075C156.285 35.335 157.5 37.03 157.5 39.25V43H166.5V39.25C166.5 35.755 159.495 34 156 34Z" fill="black"/>
<defs>
<clipPath id="clip0">
<rect width="60" height="14" fill="white" transform="translate(12 12)"/>
</clipPath>
</defs>
</svg>
