<svg width="360" height="120" viewBox="0 0 360 120" fill="none" xmlns="http://www.w3.org/2000/svg">
<rect width="360" height="120" fill="#C4C4C4"/>
<g clip-path="url(#clip0)">
<path d="M46.1862 44.6172L49.603 26.4062H54.8155L49.1846 52H43.9199L39.7883 34.8789L35.6568 52H30.392L24.7612 26.4062H29.9737L33.4079 44.582L37.5918 26.4062H42.0197L46.1862 44.6172ZM65.4495 52.3516C62.6835 52.3516 60.4288 51.4961 58.6855 49.7852C56.9539 48.0742 56.0881 45.7949 56.0881 42.9473V42.4551C56.0881 40.5449 56.4541 38.8398 57.1863 37.3398C57.9185 35.8281 58.9528 34.668 60.2894 33.8594C61.6375 33.0391 63.1716 32.6289 64.8916 32.6289C67.4717 32.6289 69.4997 33.4492 70.9757 35.0898C72.4633 36.7305 73.2071 39.0566 73.2071 42.0684V44.1426H61.1959C61.3586 45.3848 61.8467 46.3809 62.6602 47.1309C63.4854 47.8809 64.5256 48.2559 65.7807 48.2559C67.7215 48.2559 69.2382 47.5469 70.3307 46.1289L72.8062 48.9238C72.0508 50.002 71.028 50.8457 69.7379 51.4551C68.448 52.0527 67.0185 52.3516 65.4495 52.3516ZM64.8742 36.7422C63.8747 36.7422 63.0612 37.082 62.4336 37.7617C61.8176 38.4414 61.4225 39.4141 61.2482 40.6797H68.2562V40.2754C68.233 39.1504 67.9308 38.2832 67.3496 37.6738C66.7686 37.0527 65.9435 36.7422 64.8742 36.7422ZM81.6446 42.9824V52H76.4148V26.4062H86.3166C88.2226 26.4062 89.8962 26.7578 91.3372 27.4609C92.79 28.1641 93.9057 29.166 94.6844 30.4668C95.4631 31.7559 95.8524 33.2266 95.8524 34.8789C95.8524 37.3867 94.9981 39.3672 93.2898 40.8203C91.5929 42.2617 89.2395 42.9824 86.2294 42.9824H81.6446ZM81.6446 38.7109H86.3166C87.6997 38.7109 88.7514 38.3828 89.472 37.7266C90.2042 37.0703 90.5702 36.1328 90.5702 34.9141C90.5702 33.6602 90.2042 32.6465 89.472 31.8731C88.7398 31.0996 87.7287 30.7012 86.4387 30.6777H81.6446V38.7109ZM104.447 52H99.3912V25H104.447V52ZM119.544 52C119.311 51.543 119.143 50.9746 119.038 50.2949C117.818 51.666 116.231 52.3516 114.279 52.3516C112.431 52.3516 110.897 51.8125 109.677 50.7344C108.468 49.6562 107.864 48.2969 107.864 46.6562C107.864 44.6406 108.602 43.0938 110.078 42.0156C111.565 40.9375 113.709 40.3926 116.51 40.3809H118.829V39.291C118.829 38.4121 118.602 37.709 118.149 37.1816C117.707 36.6543 117.004 36.3906 116.04 36.3906C115.191 36.3906 114.523 36.5957 114.035 37.0059C113.558 37.416 113.32 37.9785 113.32 38.6934H108.282C108.282 37.5918 108.619 36.5723 109.293 35.6348C109.967 34.6973 110.92 33.9648 112.152 33.4375C113.384 32.8984 114.767 32.6289 116.301 32.6289C118.626 32.6289 120.468 33.2207 121.827 34.4043C123.198 35.5762 123.885 37.2285 123.885 39.3613V47.6055C123.897 49.4102 124.145 50.7754 124.634 51.7012V52H119.544ZM115.377 48.4668C116.121 48.4668 116.807 48.3027 117.434 47.9746C118.062 47.6348 118.527 47.1836 118.829 46.6211V43.3516H116.946C114.424 43.3516 113.082 44.2305 112.919 45.9883L112.902 46.2871C112.902 46.9199 113.123 47.4414 113.564 47.8516C114.006 48.2617 114.61 48.4668 115.377 48.4668ZM132.392 32.9805L132.548 35.1777C133.896 33.4785 135.704 32.6289 137.97 32.6289C139.97 32.6289 141.457 33.2207 142.433 34.4043C143.409 35.5879 143.909 37.3574 143.933 39.7129V52H138.895V39.8359C138.895 38.7578 138.661 37.9785 138.196 37.498C137.732 37.0059 136.959 36.7598 135.879 36.7598C134.46 36.7598 133.397 37.3691 132.688 38.5879V52H127.65V32.9805H132.392Z" fill="#FF9900"/>
</g>
<path d="M93.2969 60.5625L101.5 82.3594L109.684 60.5625H116.07V89H111.148V79.625L111.637 67.0859L103.238 89H99.7031L91.3242 67.1055L91.8125 79.625V89H86.8906V60.5625H93.2969ZM134.098 89C133.889 88.5964 133.707 87.9388 133.551 87.0273C132.04 88.6029 130.191 89.3906 128.004 89.3906C125.882 89.3906 124.15 88.7852 122.809 87.5742C121.467 86.3633 120.797 84.8659 120.797 83.082C120.797 80.8294 121.63 79.1042 123.297 77.9062C124.977 76.6953 127.372 76.0898 130.484 76.0898H133.395V74.7031C133.395 73.6094 133.089 72.737 132.477 72.0859C131.865 71.4219 130.934 71.0898 129.684 71.0898C128.603 71.0898 127.717 71.3633 127.027 71.9102C126.337 72.444 125.992 73.1276 125.992 73.9609H121.246C121.246 72.8021 121.63 71.7214 122.398 70.7188C123.167 69.7031 124.208 68.9089 125.523 68.3359C126.852 67.763 128.329 67.4766 129.957 67.4766C132.431 67.4766 134.404 68.1016 135.875 69.3516C137.346 70.5885 138.102 72.3333 138.141 74.5859V84.1172C138.141 86.0182 138.408 87.5352 138.941 88.668V89H134.098ZM128.883 85.582C129.82 85.582 130.699 85.3542 131.52 84.8984C132.353 84.4427 132.978 83.8307 133.395 83.0625V79.0781H130.836C129.078 79.0781 127.757 79.3841 126.871 79.9961C125.986 80.6081 125.543 81.474 125.543 82.5938C125.543 83.5052 125.842 84.2344 126.441 84.7812C127.053 85.3151 127.867 85.582 128.883 85.582ZM154.176 72.2031C153.551 72.099 152.906 72.0469 152.242 72.0469C150.068 72.0469 148.603 72.8802 147.848 74.5469V89H143.102V67.8672H147.633L147.75 70.2305C148.896 68.3945 150.484 67.4766 152.516 67.4766C153.193 67.4766 153.753 67.5677 154.195 67.75L154.176 72.2031ZM164.039 79.9375L161.93 82.1055V89H157.184V59H161.93V76.3047L163.414 74.4492L169.254 67.8672H174.957L167.105 76.6758L175.797 89H170.309L164.039 79.9375ZM186.988 89.3906C183.98 89.3906 181.539 88.4466 179.664 86.5586C177.802 84.6576 176.871 82.1315 176.871 78.9805V78.3945C176.871 76.2852 177.275 74.4036 178.082 72.75C178.902 71.0833 180.048 69.7878 181.52 68.8633C182.991 67.9388 184.632 67.4766 186.441 67.4766C189.319 67.4766 191.539 68.3945 193.102 70.2305C194.677 72.0664 195.465 74.6641 195.465 78.0234V79.9375H181.656C181.799 81.6823 182.379 83.0625 183.395 84.0781C184.423 85.0938 185.712 85.6016 187.262 85.6016C189.436 85.6016 191.207 84.7227 192.574 82.9648L195.133 85.4062C194.286 86.6693 193.154 87.6523 191.734 88.3555C190.328 89.0456 188.746 89.3906 186.988 89.3906ZM186.422 71.2852C185.12 71.2852 184.065 71.7409 183.258 72.6523C182.464 73.5638 181.956 74.8333 181.734 76.4609H190.777V76.1094C190.673 74.5208 190.25 73.3229 189.508 72.5156C188.766 71.6953 187.737 71.2852 186.422 71.2852ZM205.113 62.7305V67.8672H208.844V71.3828H205.113V83.1797C205.113 83.987 205.27 84.5729 205.582 84.9375C205.908 85.2891 206.48 85.4648 207.301 85.4648C207.848 85.4648 208.401 85.3997 208.961 85.2695V88.9414C207.88 89.2409 206.839 89.3906 205.836 89.3906C202.19 89.3906 200.367 87.3789 200.367 83.3555V71.3828H196.891V67.8672H200.367V62.7305H205.113Z" fill="#FF0000"/>
<rect x="256" y="24" width="80" height="72" rx="5" fill="#2B9311"/>
<path d="M302.312 69.5312C302.312 67.8229 301.833 66.4688 300.875 65.4688C299.938 64.4479 298.333 63.5104 296.062 62.6562C293.792 61.8021 291.833 60.9583 290.188 60.125C288.542 59.2708 287.125 58.3021 285.938 57.2188C284.771 56.1146 283.854 54.8229 283.188 53.3438C282.542 51.8646 282.219 50.1042 282.219 48.0625C282.219 44.5417 283.344 41.6562 285.594 39.4062C287.844 37.1562 290.833 35.8438 294.562 35.4688V28.7812H299.562V35.5625C303.25 36.0833 306.135 37.625 308.219 40.1875C310.302 42.7292 311.344 46.0312 311.344 50.0938H302.312C302.312 47.5938 301.792 45.7292 300.75 44.5C299.729 43.25 298.354 42.625 296.625 42.625C294.917 42.625 293.594 43.1146 292.656 44.0938C291.719 45.0521 291.25 46.3854 291.25 48.0938C291.25 49.6771 291.708 50.9479 292.625 51.9062C293.542 52.8646 295.24 53.8438 297.719 54.8438C300.219 55.8438 302.271 56.7917 303.875 57.6875C305.479 58.5625 306.833 59.5625 307.938 60.6875C309.042 61.7917 309.885 63.0625 310.469 64.5C311.052 65.9167 311.344 67.5729 311.344 69.4688C311.344 73.0104 310.24 75.8854 308.031 78.0938C305.823 80.3021 302.781 81.6042 298.906 82V88.2188H293.938V82.0312C289.667 81.5729 286.354 80.0625 284 77.5C281.667 74.9167 280.5 71.4896 280.5 67.2188H289.531C289.531 69.6979 290.115 71.6042 291.281 72.9375C292.469 74.25 294.167 74.9062 296.375 74.9062C298.208 74.9062 299.656 74.4271 300.719 73.4688C301.781 72.4896 302.312 71.1771 302.312 69.5312Z" fill="#FFA825"/>
<defs>
<clipPath id="clip0">
<rect width="120" height="28" fill="white" transform="translate(24 24)"/>
</clipPath>
</defs>
</svg>
