<svg width="180" height="60" viewBox="0 0 180 60" fill="none" xmlns="http://www.w3.org/2000/svg">
<rect width="180" height="60" fill="#C4C4C4"/>
<g clip-path="url(#clip0)">
<path d="M23.0931 22.3086L24.8015 13.2031H27.4077L24.5923 26H21.9599L19.8942 17.4395L17.8284 26H15.196L12.3806 13.2031H14.9868L16.704 22.291L18.7959 13.2031H21.0099L23.0931 22.3086ZM32.7247 26.1758C31.3418 26.1758 30.2144 25.748 29.3428 24.8926C28.4769 24.0371 28.044 22.8974 28.044 21.4736V21.2275C28.044 20.2724 28.2271 19.4199 28.5932 18.6699C28.9593 17.9141 29.4764 17.334 30.1447 16.9297C30.8188 16.5195 31.5858 16.3145 32.4458 16.3145C33.7359 16.3145 34.7499 16.7246 35.4879 17.5449C36.2317 18.3653 36.6036 19.5283 36.6036 21.0342V22.0713H30.598C30.6793 22.6924 30.9234 23.1904 31.3301 23.5654C31.7427 23.9404 32.2628 24.1279 32.8904 24.1279C33.8608 24.1279 34.6191 23.7734 35.1654 23.0645L36.4031 24.4619C36.0254 25.001 35.514 25.4228 34.869 25.7275C34.224 26.0264 33.5093 26.1758 32.7247 26.1758ZM32.4371 18.3711C31.9374 18.3711 31.5306 18.541 31.2168 18.8808C30.9088 19.2207 30.7113 19.707 30.6241 20.3398H34.1281V20.1377C34.1165 19.5752 33.9654 19.1416 33.6748 18.8369C33.3843 18.5264 32.9717 18.3711 32.4371 18.3711ZM40.8223 21.4912V26H38.2074V13.2031H43.1583C44.1113 13.2031 44.9481 13.3789 45.6686 13.7305C46.395 14.082 46.9529 14.583 47.3422 15.2334C47.7315 15.8779 47.9262 16.6133 47.9262 17.4395C47.9262 18.6933 47.4991 19.6836 46.6449 20.4102C45.7965 21.1308 44.6198 21.4912 43.1147 21.4912H40.8223ZM40.8223 19.3555H43.1583C43.8498 19.3555 44.3757 19.1914 44.736 18.8633C45.1021 18.5352 45.2851 18.0664 45.2851 17.457C45.2851 16.8301 45.1021 16.3232 44.736 15.9365C44.3699 15.5498 43.8644 15.3506 43.2193 15.3389H40.8223V19.3555ZM52.2234 26H49.6956V12.5H52.2234V26ZM59.7718 26C59.6556 25.7715 59.5713 25.4873 59.5191 25.1475C58.9089 25.833 58.1157 26.1758 57.1394 26.1758C56.2155 26.1758 55.4485 25.9062 54.8383 25.3672C54.234 24.8281 53.9318 24.1484 53.9318 23.3281C53.9318 22.3203 54.3008 21.5469 55.0388 21.0078C55.7826 20.4688 56.8547 20.1963 58.2551 20.1905H59.4144V19.6455C59.4144 19.2061 59.3011 18.8545 59.0745 18.5908C58.8537 18.3271 58.5021 18.1953 58.0198 18.1953C57.5956 18.1953 57.2615 18.2979 57.0174 18.503C56.7792 18.708 56.6601 18.9893 56.6601 19.3467H54.141C54.141 18.7959 54.3095 18.2861 54.6466 17.8174C54.9836 17.3486 55.4601 16.9824 56.076 16.7188C56.692 16.4492 57.3835 16.3145 58.1506 16.3145C59.3128 16.3145 60.2338 16.6103 60.9137 17.2021C61.5992 17.7881 61.9423 18.6143 61.9423 19.6807V23.8027C61.9483 24.7051 62.0727 25.3877 62.3172 25.8506V26H59.7718ZM57.6886 24.2334C58.0605 24.2334 58.4033 24.1514 58.7171 23.9873C59.0309 23.8174 59.2634 23.5918 59.4144 23.3105V21.6758H58.4731C57.2121 21.6758 56.5409 22.1153 56.4596 22.9942L56.4509 23.1435C56.4509 23.4599 56.5613 23.7207 56.7821 23.9258C57.0029 24.1309 57.3051 24.2334 57.6886 24.2334ZM66.1959 16.4902L66.2742 17.5889C66.9481 16.7393 67.8521 16.3145 68.9851 16.3145C69.9848 16.3145 70.7286 16.6103 71.2165 17.2021C71.7045 17.794 71.9544 18.6787 71.9663 19.8565V26H69.4473V19.918C69.4473 19.3789 69.3307 18.9893 69.0982 18.749C68.8661 18.503 68.4793 18.3799 67.9393 18.3799C67.2302 18.3799 66.6987 18.6846 66.3441 19.294V26H63.8251V16.4902H66.1959Z" fill="#FF9900"/>
</g>
<path d="M45.916 38.7168V44H43.4453V29.7812H48.8848C50.4733 29.7812 51.7331 30.1947 52.6641 31.0215C53.6016 31.8483 54.0703 32.9421 54.0703 34.3027C54.0703 35.696 53.6113 36.7799 52.6934 37.5547C51.7819 38.3294 50.5026 38.7168 48.8555 38.7168H45.916ZM45.916 36.7344H48.8848C49.7637 36.7344 50.4342 36.5293 50.8965 36.1191C51.3587 35.7025 51.5898 35.1035 51.5898 34.3223C51.5898 33.554 51.3555 32.9421 50.8867 32.4863C50.418 32.0241 49.7734 31.7865 48.9531 31.7734H45.916V36.7344ZM61.541 35.6016C61.2285 35.5495 60.9062 35.5234 60.5742 35.5234C59.487 35.5234 58.7546 35.9401 58.377 36.7734V44H56.0039V33.4336H58.2695L58.3281 34.6152C58.901 33.6973 59.6953 33.2383 60.7109 33.2383C61.0495 33.2383 61.3294 33.2839 61.5508 33.375L61.541 35.6016ZM62.2441 38.6191C62.2441 37.584 62.4492 36.653 62.8594 35.8262C63.2695 34.9928 63.8457 34.3548 64.5879 33.9121C65.3301 33.4629 66.1829 33.2383 67.1465 33.2383C68.5723 33.2383 69.7279 33.6973 70.6133 34.6152C71.5052 35.5332 71.987 36.7507 72.0586 38.2676L72.0684 38.8242C72.0684 39.8659 71.8665 40.7969 71.4629 41.6172C71.0658 42.4375 70.4928 43.0723 69.7441 43.5215C69.002 43.9707 68.1426 44.1953 67.166 44.1953C65.6751 44.1953 64.4805 43.7005 63.582 42.7109C62.6901 41.7148 62.2441 40.39 62.2441 38.7363V38.6191ZM64.6172 38.8242C64.6172 39.9115 64.8418 40.7643 65.291 41.3828C65.7402 41.9948 66.3652 42.3008 67.166 42.3008C67.9668 42.3008 68.5885 41.9883 69.0312 41.3633C69.4805 40.7383 69.7051 39.8236 69.7051 38.6191C69.7051 37.5514 69.474 36.7051 69.0117 36.0801C68.556 35.4551 67.9342 35.1426 67.1465 35.1426C66.3717 35.1426 65.7565 35.4518 65.3008 36.0703C64.8451 36.6823 64.6172 37.6003 64.6172 38.8242ZM73.6309 38.6387C73.6309 37.0111 74.0085 35.7057 74.7637 34.7227C75.5189 33.7331 76.5312 33.2383 77.8008 33.2383C78.9206 33.2383 79.8255 33.6289 80.5156 34.4102V29H82.8887V44H80.7402L80.623 42.9062C79.9134 43.7656 78.9661 44.1953 77.7812 44.1953C76.5443 44.1953 75.5417 43.6973 74.7734 42.7012C74.0117 41.7051 73.6309 40.3509 73.6309 38.6387ZM76.0039 38.8438C76.0039 39.918 76.209 40.7578 76.6191 41.3633C77.0358 41.9622 77.625 42.2617 78.3867 42.2617C79.3568 42.2617 80.0664 41.8288 80.5156 40.9629V36.4512C80.0794 35.6048 79.3763 35.1816 78.4062 35.1816C77.638 35.1816 77.0456 35.4876 76.6289 36.0996C76.2122 36.7051 76.0039 37.6198 76.0039 38.8438ZM91.7656 42.9648C91.069 43.7852 90.0794 44.1953 88.7969 44.1953C87.651 44.1953 86.7819 43.86 86.1895 43.1895C85.6035 42.5189 85.3105 41.5488 85.3105 40.2793V33.4336H87.6836V40.25C87.6836 41.5911 88.2402 42.2617 89.3535 42.2617C90.5059 42.2617 91.2839 41.8483 91.6875 41.0215V33.4336H94.0605V44H91.8242L91.7656 42.9648ZM100.818 42.3008C101.411 42.3008 101.902 42.1283 102.293 41.7832C102.684 41.4382 102.892 41.0117 102.918 40.5039H105.154C105.128 41.1615 104.923 41.7767 104.539 42.3496C104.155 42.916 103.634 43.3652 102.977 43.6973C102.319 44.0293 101.609 44.1953 100.848 44.1953C99.3698 44.1953 98.1979 43.7168 97.332 42.7598C96.4661 41.8027 96.0332 40.4811 96.0332 38.7949V38.5508C96.0332 36.9427 96.4629 35.6569 97.3223 34.6934C98.1816 33.7233 99.3535 33.2383 100.838 33.2383C102.094 33.2383 103.117 33.6061 103.904 34.3418C104.699 35.071 105.115 36.0312 105.154 37.2227H102.918C102.892 36.6172 102.684 36.1191 102.293 35.7285C101.909 35.3379 101.417 35.1426 100.818 35.1426C100.05 35.1426 99.4577 35.4225 99.041 35.9824C98.6243 36.5358 98.4128 37.3789 98.4062 38.5117V38.8926C98.4062 40.0384 98.6113 40.8945 99.0215 41.4609C99.4382 42.0208 100.037 42.3008 100.818 42.3008ZM101.463 44.0195L101.355 44.5469C102.332 44.7227 102.82 45.2858 102.82 46.2363C102.82 46.9199 102.54 47.4538 101.98 47.8379C101.421 48.222 100.636 48.4141 99.627 48.4141L99.5586 47.0762C99.9883 47.0762 100.317 46.998 100.545 46.8418C100.779 46.6921 100.896 46.4805 100.896 46.207C100.896 45.9141 100.779 45.709 100.545 45.5918C100.317 45.4811 99.9427 45.4095 99.4219 45.377L99.7344 44.0195H101.463ZM113.26 44C113.156 43.7982 113.064 43.4694 112.986 43.0137C112.231 43.8014 111.307 44.1953 110.213 44.1953C109.152 44.1953 108.286 43.8926 107.615 43.2871C106.945 42.6816 106.609 41.9329 106.609 41.041C106.609 39.9147 107.026 39.0521 107.859 38.4531C108.699 37.8477 109.897 37.5449 111.453 37.5449H112.908V36.8516C112.908 36.3047 112.755 35.8685 112.449 35.543C112.143 35.2109 111.678 35.0449 111.053 35.0449C110.512 35.0449 110.07 35.1816 109.725 35.4551C109.38 35.722 109.207 36.0638 109.207 36.4805H106.834C106.834 35.901 107.026 35.3607 107.41 34.8594C107.794 34.3516 108.315 33.9544 108.973 33.668C109.637 33.3815 110.376 33.2383 111.189 33.2383C112.426 33.2383 113.413 33.5508 114.148 34.1758C114.884 34.7943 115.262 35.6667 115.281 36.793V41.5586C115.281 42.5091 115.415 43.2676 115.682 43.834V44H113.26ZM110.652 42.291C111.121 42.291 111.561 42.1771 111.971 41.9492C112.387 41.7214 112.7 41.4154 112.908 41.0312V39.0391H111.629C110.75 39.0391 110.089 39.1921 109.646 39.498C109.204 39.804 108.982 40.237 108.982 40.7969C108.982 41.2526 109.132 41.6172 109.432 41.8906C109.738 42.1576 110.145 42.291 110.652 42.291ZM114.852 29.2148C114.852 29.931 114.643 30.5267 114.227 31.002C113.816 31.4772 113.299 31.7148 112.674 31.7148C112.42 31.7148 112.199 31.6888 112.01 31.6367C111.827 31.5781 111.564 31.4512 111.219 31.2559C110.88 31.0605 110.639 30.9434 110.496 30.9043C110.359 30.8652 110.206 30.8457 110.037 30.8457C109.79 30.8457 109.578 30.9401 109.402 31.1289C109.233 31.3112 109.148 31.5521 109.148 31.8516L107.693 31.7734C107.693 31.0573 107.898 30.4551 108.309 29.9668C108.725 29.4785 109.243 29.2344 109.861 29.2344C110.232 29.2344 110.678 29.3809 111.199 29.6738C111.727 29.9668 112.16 30.1133 112.498 30.1133C112.745 30.1133 112.957 30.0221 113.133 29.8398C113.309 29.651 113.396 29.4036 113.396 29.0977L114.852 29.2148ZM117.322 38.6191C117.322 37.584 117.527 36.653 117.938 35.8262C118.348 34.9928 118.924 34.3548 119.666 33.9121C120.408 33.4629 121.261 33.2383 122.225 33.2383C123.65 33.2383 124.806 33.6973 125.691 34.6152C126.583 35.5332 127.065 36.7507 127.137 38.2676L127.146 38.8242C127.146 39.8659 126.945 40.7969 126.541 41.6172C126.144 42.4375 125.571 43.0723 124.822 43.5215C124.08 43.9707 123.221 44.1953 122.244 44.1953C120.753 44.1953 119.559 43.7005 118.66 42.7109C117.768 41.7148 117.322 40.39 117.322 38.7363V38.6191ZM119.695 38.8242C119.695 39.9115 119.92 40.7643 120.369 41.3828C120.818 41.9948 121.443 42.3008 122.244 42.3008C123.045 42.3008 123.667 41.9883 124.109 41.3633C124.559 40.7383 124.783 39.8236 124.783 38.6191C124.783 37.5514 124.552 36.7051 124.09 36.0801C123.634 35.4551 123.012 35.1426 122.225 35.1426C121.45 35.1426 120.835 35.4518 120.379 36.0703C119.923 36.6823 119.695 37.6003 119.695 38.8242Z" fill="#FF0000"/>
<path d="M141.05 37.202C141.075 36.977 141.091 36.743 141.091 36.5C141.091 36.257 141.075 36.023 141.042 35.798L142.425 34.61C142.547 34.502 142.58 34.304 142.506 34.151L141.197 31.658C141.115 31.496 140.944 31.442 140.796 31.496L139.168 32.216C138.825 31.928 138.465 31.694 138.064 31.514L137.818 29.606C137.794 29.426 137.655 29.3 137.491 29.3H134.873C134.709 29.3 134.578 29.426 134.554 29.606L134.308 31.514C133.907 31.694 133.539 31.937 133.204 32.216L131.575 31.496C131.428 31.433 131.256 31.496 131.175 31.658L129.865 34.151C129.784 34.313 129.816 34.502 129.947 34.61L131.33 35.798C131.297 36.023 131.273 36.266 131.273 36.5C131.273 36.734 131.289 36.977 131.322 37.202L129.939 38.39C129.816 38.498 129.784 38.696 129.857 38.849L131.166 41.342C131.248 41.504 131.42 41.558 131.567 41.504L133.195 40.784C133.539 41.072 133.899 41.306 134.3 41.486L134.545 43.394C134.578 43.574 134.709 43.7 134.873 43.7H137.491C137.655 43.7 137.794 43.574 137.81 43.394L138.055 41.486C138.456 41.306 138.825 41.063 139.16 40.784L140.788 41.504C140.935 41.567 141.107 41.504 141.189 41.342L142.498 38.849C142.58 38.687 142.547 38.498 142.416 38.39L141.05 37.202ZM136.182 39.2C134.832 39.2 133.727 37.985 133.727 36.5C133.727 35.015 134.832 33.8 136.182 33.8C137.532 33.8 138.636 35.015 138.636 36.5C138.636 37.985 137.532 39.2 136.182 39.2Z" fill="black"/>
<path d="M149.232 26.702C149.256 26.477 149.273 26.243 149.273 26C149.273 25.757 149.256 25.523 149.224 25.298L150.606 24.11C150.729 24.002 150.762 23.804 150.688 23.651L149.379 21.158C149.297 20.996 149.125 20.942 148.978 20.996L147.35 21.716C147.006 21.428 146.646 21.194 146.245 21.014L146 19.106C145.975 18.926 145.836 18.8 145.673 18.8H143.055C142.891 18.8 142.76 18.926 142.735 19.106L142.49 21.014C142.089 21.194 141.721 21.437 141.385 21.716L139.757 20.996C139.61 20.933 139.438 20.996 139.356 21.158L138.047 23.651C137.965 23.813 137.998 24.002 138.129 24.11L139.512 25.298C139.479 25.523 139.455 25.766 139.455 26C139.455 26.234 139.471 26.477 139.504 26.702L138.121 27.89C137.998 27.998 137.965 28.196 138.039 28.349L139.348 30.842C139.43 31.004 139.602 31.058 139.749 31.004L141.377 30.284C141.721 30.572 142.081 30.806 142.482 30.986L142.727 32.894C142.76 33.074 142.891 33.2 143.055 33.2H145.673C145.836 33.2 145.975 33.074 145.992 32.894L146.237 30.986C146.638 30.806 147.006 30.563 147.342 30.284L148.97 31.004C149.117 31.067 149.289 31.004 149.371 30.842L150.68 28.349C150.762 28.187 150.729 27.998 150.598 27.89L149.232 26.702ZM144.364 28.7C143.014 28.7 141.909 27.485 141.909 26C141.909 24.515 143.014 23.3 144.364 23.3C145.714 23.3 146.818 24.515 146.818 26C146.818 27.485 145.714 28.7 144.364 28.7Z" fill="black"/>
<path d="M157.005 36.7161C157.029 36.4911 157.045 36.2571 157.045 36.0141C157.045 35.7711 157.029 35.5371 156.996 35.3121L158.379 34.1241C158.502 34.0161 158.535 33.8181 158.461 33.6651L157.152 31.1721C157.07 31.0101 156.898 30.9561 156.751 31.0101L155.123 31.7301C154.779 31.4421 154.419 31.2081 154.018 31.0281L153.773 29.1201C153.748 28.9401 153.609 28.8141 153.445 28.8141H150.827C150.664 28.8141 150.533 28.9401 150.508 29.1201L150.263 31.0281C149.862 31.2081 149.494 31.4511 149.158 31.7301L147.53 31.0101C147.383 30.9471 147.211 31.0101 147.129 31.1721L145.82 33.6651C145.738 33.8271 145.771 34.0161 145.902 34.1241L147.285 35.3121C147.252 35.5371 147.227 35.7801 147.227 36.0141C147.227 36.2481 147.244 36.4911 147.276 36.7161L145.894 37.9041C145.771 38.0121 145.738 38.2101 145.812 38.3631L147.121 40.8561C147.203 41.0181 147.375 41.0721 147.522 41.0181L149.15 40.2981C149.494 40.5861 149.854 40.8201 150.255 41.0001L150.5 42.9081C150.533 43.0881 150.664 43.2141 150.827 43.2141H153.445C153.609 43.2141 153.748 43.0881 153.765 42.9081L154.01 41.0001C154.411 40.8201 154.779 40.5771 155.115 40.2981L156.743 41.0181C156.89 41.0811 157.062 41.0181 157.144 40.8561L158.453 38.3631C158.535 38.2011 158.502 38.0121 158.371 37.9041L157.005 36.7161ZM152.136 38.7141C150.786 38.7141 149.682 37.4991 149.682 36.0141C149.682 34.5291 150.786 33.3141 152.136 33.3141C153.486 33.3141 154.591 34.5291 154.591 36.0141C154.591 37.4991 153.486 38.7141 152.136 38.7141Z" fill="black"/>
<path d="M165.186 26.8076C165.211 26.5826 165.227 26.3486 165.227 26.1056C165.227 25.8626 165.211 25.6286 165.178 25.4036L166.561 24.2156C166.684 24.1076 166.716 23.9096 166.643 23.7566L165.334 21.2636C165.252 21.1016 165.08 21.0476 164.933 21.1016L163.305 21.8216C162.961 21.5336 162.601 21.2996 162.2 21.1196L161.955 19.2116C161.93 19.0316 161.791 18.9056 161.627 18.9056H159.009C158.845 18.9056 158.715 19.0316 158.69 19.2116L158.445 21.1196C158.044 21.2996 157.675 21.5426 157.34 21.8216L155.712 21.1016C155.565 21.0386 155.393 21.1016 155.311 21.2636L154.002 23.7566C153.92 23.9186 153.953 24.1076 154.084 24.2156L155.466 25.4036C155.434 25.6286 155.409 25.8716 155.409 26.1056C155.409 26.3396 155.425 26.5826 155.458 26.8076L154.075 27.9956C153.953 28.1036 153.92 28.3016 153.994 28.4546L155.303 30.9476C155.385 31.1096 155.556 31.1636 155.704 31.1096L157.332 30.3896C157.675 30.6776 158.035 30.9116 158.436 31.0916L158.682 32.9996C158.715 33.1796 158.845 33.3056 159.009 33.3056H161.627C161.791 33.3056 161.93 33.1796 161.946 32.9996L162.192 31.0916C162.593 30.9116 162.961 30.6686 163.296 30.3896L164.925 31.1096C165.072 31.1726 165.244 31.1096 165.325 30.9476L166.635 28.4546C166.716 28.2926 166.684 28.1036 166.553 27.9956L165.186 26.8076ZM160.318 28.8056C158.968 28.8056 157.864 27.5906 157.864 26.1056C157.864 24.6206 158.968 23.4056 160.318 23.4056C161.668 23.4056 162.773 24.6206 162.773 26.1056C162.773 27.5906 161.668 28.8056 160.318 28.8056Z" fill="black"/>
<defs>
<clipPath id="clip0">
<rect width="60" height="14" fill="white" transform="translate(12 12)"/>
</clipPath>
</defs>
</svg>
