<svg width="360" height="120" viewBox="0 0 360 120" fill="none" xmlns="http://www.w3.org/2000/svg">
<rect width="360" height="120" fill="#C4C4C4"/>
<g clip-path="url(#clip0)">
<path d="M46.1862 44.6172L49.603 26.4062H54.8155L49.1846 52H43.9199L39.7883 34.8789L35.6568 52H30.392L24.7612 26.4062H29.9737L33.4079 44.582L37.5918 26.4062H42.0197L46.1862 44.6172ZM65.4495 52.3516C62.6835 52.3516 60.4288 51.4961 58.6855 49.7852C56.9539 48.0742 56.0881 45.7949 56.0881 42.9473V42.4551C56.0881 40.5449 56.4541 38.8398 57.1863 37.3398C57.9185 35.8281 58.9528 34.668 60.2894 33.8594C61.6375 33.0391 63.1716 32.6289 64.8916 32.6289C67.4717 32.6289 69.4997 33.4492 70.9757 35.0898C72.4633 36.7305 73.2071 39.0566 73.2071 42.0684V44.1426H61.1959C61.3586 45.3848 61.8467 46.3809 62.6602 47.1309C63.4854 47.8809 64.5256 48.2559 65.7807 48.2559C67.7215 48.2559 69.2382 47.5469 70.3307 46.1289L72.8062 48.9238C72.0508 50.002 71.028 50.8457 69.7379 51.4551C68.448 52.0527 67.0185 52.3516 65.4495 52.3516ZM64.8742 36.7422C63.8747 36.7422 63.0612 37.082 62.4336 37.7617C61.8176 38.4414 61.4225 39.4141 61.2482 40.6797H68.2562V40.2754C68.233 39.1504 67.9308 38.2832 67.3496 37.6738C66.7686 37.0527 65.9435 36.7422 64.8742 36.7422ZM81.6446 42.9824V52H76.4148V26.4062H86.3166C88.2226 26.4062 89.8962 26.7578 91.3372 27.4609C92.79 28.1641 93.9057 29.166 94.6844 30.4668C95.4631 31.7559 95.8524 33.2266 95.8524 34.8789C95.8524 37.3867 94.9981 39.3672 93.2898 40.8203C91.5929 42.2617 89.2395 42.9824 86.2294 42.9824H81.6446ZM81.6446 38.7109H86.3166C87.6997 38.7109 88.7514 38.3828 89.472 37.7266C90.2042 37.0703 90.5702 36.1328 90.5702 34.9141C90.5702 33.6602 90.2042 32.6465 89.472 31.8731C88.7398 31.0996 87.7287 30.7012 86.4387 30.6777H81.6446V38.7109ZM104.447 52H99.3912V25H104.447V52ZM119.544 52C119.311 51.543 119.143 50.9746 119.038 50.2949C117.818 51.666 116.231 52.3516 114.279 52.3516C112.431 52.3516 110.897 51.8125 109.677 50.7344C108.468 49.6562 107.864 48.2969 107.864 46.6562C107.864 44.6406 108.602 43.0938 110.078 42.0156C111.565 40.9375 113.709 40.3926 116.51 40.3809H118.829V39.291C118.829 38.4121 118.602 37.709 118.149 37.1816C117.707 36.6543 117.004 36.3906 116.04 36.3906C115.191 36.3906 114.523 36.5957 114.035 37.0059C113.558 37.416 113.32 37.9785 113.32 38.6934H108.282C108.282 37.5918 108.619 36.5723 109.293 35.6348C109.967 34.6973 110.92 33.9648 112.152 33.4375C113.384 32.8984 114.767 32.6289 116.301 32.6289C118.626 32.6289 120.468 33.2207 121.827 34.4043C123.198 35.5762 123.885 37.2285 123.885 39.3613V47.6055C123.897 49.4102 124.145 50.7754 124.634 51.7012V52H119.544ZM115.377 48.4668C116.121 48.4668 116.807 48.3027 117.434 47.9746C118.062 47.6348 118.527 47.1836 118.829 46.6211V43.3516H116.946C114.424 43.3516 113.082 44.2305 112.919 45.9883L112.902 46.2871C112.902 46.9199 113.123 47.4414 113.564 47.8516C114.006 48.2617 114.61 48.4668 115.377 48.4668ZM132.392 32.9805L132.548 35.1777C133.896 33.4785 135.704 32.6289 137.97 32.6289C139.97 32.6289 141.457 33.2207 142.433 34.4043C143.409 35.5879 143.909 37.3574 143.933 39.7129V52H138.895V39.8359C138.895 38.7578 138.661 37.9785 138.196 37.498C137.732 37.0059 136.959 36.7598 135.879 36.7598C134.46 36.7598 133.397 37.3691 132.688 38.5879V52H127.65V32.9805H132.392Z" fill="#FF9900"/>
</g>
<path d="M91.832 78.4336V89H86.8906V60.5625H97.7695C100.947 60.5625 103.466 61.3893 105.328 63.043C107.203 64.6966 108.141 66.8841 108.141 69.6055C108.141 72.3919 107.223 74.5599 105.387 76.1094C103.564 77.6589 101.005 78.4336 97.7109 78.4336H91.832ZM91.832 74.4688H97.7695C99.5273 74.4688 100.868 74.0586 101.793 73.2383C102.717 72.4049 103.18 71.207 103.18 69.6445C103.18 68.1081 102.711 66.8841 101.773 65.9727C100.836 65.0482 99.5469 64.5729 97.9062 64.5469H91.832V74.4688ZM123.082 72.2031C122.457 72.099 121.812 72.0469 121.148 72.0469C118.974 72.0469 117.509 72.8802 116.754 74.5469V89H112.008V67.8672H116.539L116.656 70.2305C117.802 68.3945 119.391 67.4766 121.422 67.4766C122.099 67.4766 122.659 67.5677 123.102 67.75L123.082 72.2031ZM124.488 78.2383C124.488 76.168 124.898 74.306 125.719 72.6523C126.539 70.9857 127.691 69.7096 129.176 68.8242C130.66 67.9258 132.366 67.4766 134.293 67.4766C137.145 67.4766 139.456 68.3945 141.227 70.2305C143.01 72.0664 143.974 74.5013 144.117 77.5352L144.137 78.6484C144.137 80.7318 143.733 82.5938 142.926 84.2344C142.132 85.875 140.986 87.1445 139.488 88.043C138.004 88.9414 136.285 89.3906 134.332 89.3906C131.35 89.3906 128.961 88.401 127.164 86.4219C125.38 84.4297 124.488 81.7799 124.488 78.4727V78.2383ZM129.234 78.6484C129.234 80.8229 129.684 82.5286 130.582 83.7656C131.48 84.9896 132.73 85.6016 134.332 85.6016C135.934 85.6016 137.177 84.9766 138.062 83.7266C138.961 82.4766 139.41 80.6471 139.41 78.2383C139.41 76.1029 138.948 74.4102 138.023 73.1602C137.112 71.9102 135.868 71.2852 134.293 71.2852C132.743 71.2852 131.513 71.9036 130.602 73.1406C129.69 74.3646 129.234 76.2005 129.234 78.6484ZM147.262 78.2773C147.262 75.0221 148.017 72.4115 149.527 70.4453C151.038 68.4661 153.062 67.4766 155.602 67.4766C157.841 67.4766 159.651 68.2578 161.031 69.8203V59H165.777V89H161.48L161.246 86.8125C159.827 88.5312 157.932 89.3906 155.562 89.3906C153.089 89.3906 151.083 88.3945 149.547 86.4023C148.023 84.4102 147.262 81.7018 147.262 78.2773ZM152.008 78.6875C152.008 80.8359 152.418 82.5156 153.238 83.7266C154.072 84.9245 155.25 85.5234 156.773 85.5234C158.714 85.5234 160.133 84.6576 161.031 82.9258V73.9023C160.159 72.2096 158.753 71.3633 156.812 71.3633C155.276 71.3633 154.091 71.9753 153.258 73.1992C152.424 74.4102 152.008 76.2396 152.008 78.6875ZM183.531 86.9297C182.138 88.5703 180.159 89.3906 177.594 89.3906C175.302 89.3906 173.564 88.7201 172.379 87.3789C171.207 86.0378 170.621 84.0977 170.621 81.5586V67.8672H175.367V81.5C175.367 84.1823 176.48 85.5234 178.707 85.5234C181.012 85.5234 182.568 84.6966 183.375 83.043V67.8672H188.121V89H183.648L183.531 86.9297ZM201.637 85.6016C202.822 85.6016 203.805 85.2565 204.586 84.5664C205.367 83.8763 205.784 83.0234 205.836 82.0078H210.309C210.257 83.3229 209.846 84.5534 209.078 85.6992C208.31 86.832 207.268 87.7305 205.953 88.3945C204.638 89.0586 203.219 89.3906 201.695 89.3906C198.74 89.3906 196.396 88.4336 194.664 86.5195C192.932 84.6055 192.066 81.9622 192.066 78.5898V78.1016C192.066 74.8854 192.926 72.3138 194.645 70.3867C196.363 68.4466 198.707 67.4766 201.676 67.4766C204.189 67.4766 206.233 68.2122 207.809 69.6836C209.397 71.1419 210.23 73.0625 210.309 75.4453H205.836C205.784 74.2344 205.367 73.2383 204.586 72.457C203.818 71.6758 202.835 71.2852 201.637 71.2852C200.1 71.2852 198.915 71.8451 198.082 72.9648C197.249 74.0716 196.826 75.7578 196.812 78.0234V78.7852C196.812 81.0768 197.223 82.7891 198.043 83.9219C198.876 85.0417 200.074 85.6016 201.637 85.6016ZM202.926 89.0391L202.711 90.0938C204.664 90.4453 205.641 91.5716 205.641 93.4727C205.641 94.8398 205.081 95.9076 203.961 96.6758C202.841 97.444 201.272 97.8281 199.254 97.8281L199.117 95.1523C199.977 95.1523 200.634 94.9961 201.09 94.6836C201.559 94.3841 201.793 93.9609 201.793 93.4141C201.793 92.8281 201.559 92.418 201.09 92.1836C200.634 91.9622 199.885 91.819 198.844 91.7539L199.469 89.0391H202.926ZM226.52 89C226.311 88.5964 226.129 87.9388 225.973 87.0273C224.462 88.6029 222.613 89.3906 220.426 89.3906C218.303 89.3906 216.572 88.7852 215.23 87.5742C213.889 86.3633 213.219 84.8659 213.219 83.082C213.219 80.8294 214.052 79.1042 215.719 77.9062C217.398 76.6953 219.794 76.0898 222.906 76.0898H225.816V74.7031C225.816 73.6094 225.51 72.737 224.898 72.0859C224.286 71.4219 223.355 71.0898 222.105 71.0898C221.025 71.0898 220.139 71.3633 219.449 71.9102C218.759 72.444 218.414 73.1276 218.414 73.9609H213.668C213.668 72.8021 214.052 71.7214 214.82 70.7188C215.589 69.7031 216.63 68.9089 217.945 68.3359C219.273 67.763 220.751 67.4766 222.379 67.4766C224.853 67.4766 226.826 68.1016 228.297 69.3516C229.768 70.5885 230.523 72.3333 230.562 74.5859V84.1172C230.562 86.0182 230.829 87.5352 231.363 88.668V89H226.52ZM221.305 85.582C222.242 85.582 223.121 85.3542 223.941 84.8984C224.775 84.4427 225.4 83.8307 225.816 83.0625V79.0781H223.258C221.5 79.0781 220.178 79.3841 219.293 79.9961C218.408 80.6081 217.965 81.474 217.965 82.5938C217.965 83.5052 218.264 84.2344 218.863 84.7812C219.475 85.3151 220.289 85.582 221.305 85.582ZM229.703 59.4297C229.703 60.862 229.286 62.0534 228.453 63.0039C227.633 63.9544 226.598 64.4297 225.348 64.4297C224.84 64.4297 224.397 64.3776 224.02 64.2734C223.655 64.1562 223.128 63.9023 222.438 63.5117C221.76 63.1211 221.279 62.8867 220.992 62.8086C220.719 62.7305 220.413 62.6914 220.074 62.6914C219.579 62.6914 219.156 62.8802 218.805 63.2578C218.466 63.6224 218.297 64.1042 218.297 64.7031L215.387 64.5469C215.387 63.1146 215.797 61.9102 216.617 60.9336C217.451 59.957 218.486 59.4688 219.723 59.4688C220.465 59.4688 221.357 59.7617 222.398 60.3477C223.453 60.9336 224.319 61.2266 224.996 61.2266C225.491 61.2266 225.914 61.0443 226.266 60.6797C226.617 60.3021 226.793 59.8073 226.793 59.1953L229.703 59.4297ZM234.645 78.2383C234.645 76.168 235.055 74.306 235.875 72.6523C236.695 70.9857 237.848 69.7096 239.332 68.8242C240.816 67.9258 242.522 67.4766 244.449 67.4766C247.301 67.4766 249.612 68.3945 251.383 70.2305C253.167 72.0664 254.13 74.5013 254.273 77.5352L254.293 78.6484C254.293 80.7318 253.889 82.5938 253.082 84.2344C252.288 85.875 251.142 87.1445 249.645 88.043C248.16 88.9414 246.441 89.3906 244.488 89.3906C241.507 89.3906 239.117 88.401 237.32 86.4219C235.536 84.4297 234.645 81.7799 234.645 78.4727V78.2383ZM239.391 78.6484C239.391 80.8229 239.84 82.5286 240.738 83.7656C241.637 84.9896 242.887 85.6016 244.488 85.6016C246.09 85.6016 247.333 84.9766 248.219 83.7266C249.117 82.4766 249.566 80.6471 249.566 78.2383C249.566 76.1029 249.104 74.4102 248.18 73.1602C247.268 71.9102 246.025 71.2852 244.449 71.2852C242.9 71.2852 241.669 71.9036 240.758 73.1406C239.846 74.3646 239.391 76.2005 239.391 78.6484Z" fill="#FF0000"/>
<path d="M282.1 74.404C282.149 73.954 282.182 73.486 282.182 73C282.182 72.514 282.149 72.046 282.084 71.596L284.849 69.22C285.094 69.004 285.16 68.608 285.013 68.302L282.394 63.316C282.231 62.992 281.887 62.884 281.593 62.992L278.336 64.432C277.649 63.856 276.929 63.388 276.127 63.028L275.636 59.212C275.587 58.852 275.309 58.6 274.982 58.6H269.745C269.418 58.6 269.156 58.852 269.107 59.212L268.616 63.028C267.814 63.388 267.078 63.874 266.407 64.432L263.151 62.992C262.856 62.866 262.513 62.992 262.349 63.316L259.731 68.302C259.567 68.626 259.633 69.004 259.894 69.22L262.66 71.596C262.594 72.046 262.545 72.532 262.545 73C262.545 73.468 262.578 73.954 262.644 74.404L259.878 76.78C259.633 76.996 259.567 77.392 259.714 77.698L262.333 82.684C262.496 83.008 262.84 83.116 263.134 83.008L266.391 81.568C267.078 82.144 267.798 82.612 268.6 82.972L269.091 86.788C269.156 87.148 269.418 87.4 269.745 87.4H274.982C275.309 87.4 275.587 87.148 275.62 86.788L276.111 82.972C276.913 82.612 277.649 82.126 278.32 81.568L281.576 83.008C281.871 83.134 282.214 83.008 282.378 82.684L284.996 77.698C285.16 77.374 285.094 76.996 284.833 76.78L282.1 74.404V74.404ZM272.364 78.4C269.664 78.4 267.454 75.97 267.454 73C267.454 70.03 269.664 67.6 272.364 67.6C275.064 67.6 277.273 70.03 277.273 73C277.273 75.97 275.064 78.4 272.364 78.4Z" fill="black"/>
<path d="M298.464 53.404C298.513 52.954 298.545 52.486 298.545 52C298.545 51.514 298.513 51.046 298.447 50.596L301.213 48.22C301.458 48.004 301.524 47.608 301.376 47.302L298.758 42.316C298.594 41.992 298.251 41.884 297.956 41.992L294.7 43.432C294.013 42.856 293.293 42.388 292.491 42.028L292 38.212C291.951 37.852 291.673 37.6 291.345 37.6H286.109C285.782 37.6 285.52 37.852 285.471 38.212L284.98 42.028C284.178 42.388 283.442 42.874 282.771 43.432L279.514 41.992C279.22 41.866 278.876 41.992 278.713 42.316L276.094 47.302C275.931 47.626 275.996 48.004 276.258 48.22L279.024 50.596C278.958 51.046 278.909 51.532 278.909 52C278.909 52.468 278.942 52.954 279.007 53.404L276.242 55.78C275.996 55.996 275.931 56.392 276.078 56.698L278.696 61.684C278.86 62.008 279.204 62.116 279.498 62.008L282.754 60.568C283.442 61.144 284.162 61.612 284.964 61.972L285.454 65.788C285.52 66.148 285.782 66.4 286.109 66.4H291.345C291.673 66.4 291.951 66.148 291.984 65.788L292.474 61.972C293.276 61.612 294.013 61.126 294.684 60.568L297.94 62.008C298.234 62.134 298.578 62.008 298.742 61.684L301.36 56.698C301.524 56.374 301.458 55.996 301.196 55.78L298.464 53.404V53.404ZM288.727 57.4C286.027 57.4 283.818 54.97 283.818 52C283.818 49.03 286.027 46.6 288.727 46.6C291.427 46.6 293.636 49.03 293.636 52C293.636 54.97 291.427 57.4 288.727 57.4Z" fill="black"/>
<path d="M314.009 73.4322C314.058 72.9822 314.091 72.5142 314.091 72.0282C314.091 71.5422 314.058 71.0742 313.993 70.6242L316.758 68.2482C317.004 68.0322 317.069 67.6362 316.922 67.3302L314.304 62.3442C314.14 62.0202 313.796 61.9122 313.502 62.0202L310.245 63.4602C309.558 62.8842 308.838 62.4162 308.036 62.0562L307.545 58.2402C307.496 57.8802 307.218 57.6282 306.891 57.6282H301.654C301.327 57.6282 301.065 57.8802 301.016 58.2402L300.525 62.0562C299.724 62.4162 298.987 62.9022 298.316 63.4602L295.06 62.0202C294.765 61.8942 294.422 62.0202 294.258 62.3442L291.64 67.3302C291.476 67.6542 291.542 68.0322 291.804 68.2482L294.569 70.6242C294.504 71.0742 294.454 71.5602 294.454 72.0282C294.454 72.4962 294.487 72.9822 294.553 73.4322L291.787 75.8082C291.542 76.0242 291.476 76.4202 291.624 76.7262L294.242 81.7122C294.405 82.0362 294.749 82.1442 295.044 82.0362L298.3 80.5962C298.987 81.1722 299.707 81.6402 300.509 82.0002L301 85.8162C301.065 86.1762 301.327 86.4282 301.654 86.4282H306.891C307.218 86.4282 307.496 86.1762 307.529 85.8162L308.02 82.0002C308.822 81.6402 309.558 81.1542 310.229 80.5962L313.485 82.0362C313.78 82.1622 314.124 82.0362 314.287 81.7122L316.905 76.7262C317.069 76.4022 317.004 76.0242 316.742 75.8082L314.009 73.4322V73.4322ZM304.273 77.4282C301.573 77.4282 299.364 74.9982 299.364 72.0282C299.364 69.0582 301.573 66.6282 304.273 66.6282C306.973 66.6282 309.182 69.0582 309.182 72.0282C309.182 74.9982 306.973 77.4282 304.273 77.4282Z" fill="black"/>
<path d="M330.373 53.6153C330.422 53.1653 330.454 52.6973 330.454 52.2113C330.454 51.7253 330.422 51.2573 330.356 50.8073L333.122 48.4313C333.367 48.2153 333.433 47.8193 333.285 47.5133L330.667 42.5273C330.504 42.2033 330.16 42.0953 329.865 42.2033L326.609 43.6433C325.922 43.0673 325.202 42.5993 324.4 42.2393L323.909 38.4233C323.86 38.0633 323.582 37.8113 323.254 37.8113H318.018C317.691 37.8113 317.429 38.0633 317.38 38.4233L316.889 42.2393C316.087 42.5993 315.351 43.0853 314.68 43.6433L311.424 42.2033C311.129 42.0773 310.785 42.2033 310.622 42.5273L308.004 47.5133C307.84 47.8373 307.905 48.2153 308.167 48.4313L310.933 50.8073C310.867 51.2573 310.818 51.7433 310.818 52.2113C310.818 52.6793 310.851 53.1653 310.916 53.6153L308.151 55.9913C307.905 56.2073 307.84 56.6033 307.987 56.9093L310.605 61.8953C310.769 62.2193 311.113 62.3273 311.407 62.2193L314.664 60.7793C315.351 61.3553 316.071 61.8233 316.873 62.1833L317.364 65.9993C317.429 66.3593 317.691 66.6113 318.018 66.6113H323.254C323.582 66.6113 323.86 66.3593 323.893 65.9993L324.384 62.1833C325.185 61.8233 325.922 61.3373 326.593 60.7793L329.849 62.2193C330.144 62.3453 330.487 62.2193 330.651 61.8953L333.269 56.9093C333.433 56.5853 333.367 56.2073 333.105 55.9913L330.373 53.6153V53.6153ZM320.636 57.6113C317.936 57.6113 315.727 55.1813 315.727 52.2113C315.727 49.2413 317.936 46.8113 320.636 46.8113C323.336 46.8113 325.545 49.2413 325.545 52.2113C325.545 55.1813 323.336 57.6113 320.636 57.6113Z" fill="black"/>
<defs>
<clipPath id="clip0">
<rect width="120" height="28" fill="white" transform="translate(24 24)"/>
</clipPath>
</defs>
</svg>
