<svg width="180" height="61" viewBox="0 0 180 61" fill="none" xmlns="http://www.w3.org/2000/svg">
<rect y="0.5" width="180" height="60" fill="#C4C4C4"/>
<g clip-path="url(#clip0)">
<path d="M23.0931 22.8086L24.8015 13.7031H27.4077L24.5923 26.5H21.9599L19.8942 17.9395L17.8284 26.5H15.196L12.3806 13.7031H14.9868L16.704 22.791L18.7959 13.7031H21.0099L23.0931 22.8086ZM32.7247 26.6758C31.3418 26.6758 30.2144 26.248 29.3428 25.3926C28.4769 24.5371 28.044 23.3974 28.044 21.9736V21.7275C28.044 20.7724 28.2271 19.9199 28.5932 19.1699C28.9593 18.4141 29.4764 17.834 30.1447 17.4297C30.8188 17.0195 31.5858 16.8145 32.4458 16.8145C33.7359 16.8145 34.7499 17.2246 35.4879 18.0449C36.2317 18.8653 36.6036 20.0283 36.6036 21.5342V22.5713H30.598C30.6793 23.1924 30.9234 23.6904 31.3301 24.0654C31.7427 24.4404 32.2628 24.6279 32.8904 24.6279C33.8608 24.6279 34.6191 24.2734 35.1654 23.5645L36.4031 24.9619C36.0254 25.501 35.514 25.9228 34.869 26.2275C34.224 26.5264 33.5093 26.6758 32.7247 26.6758ZM32.4371 18.8711C31.9374 18.8711 31.5306 19.041 31.2168 19.3808C30.9088 19.7207 30.7113 20.207 30.6241 20.8398H34.1281V20.6377C34.1165 20.0752 33.9654 19.6416 33.6748 19.3369C33.3843 19.0264 32.9717 18.8711 32.4371 18.8711ZM40.8223 21.9912V26.5H38.2074V13.7031H43.1583C44.1113 13.7031 44.9481 13.8789 45.6686 14.2305C46.395 14.582 46.9529 15.083 47.3422 15.7334C47.7315 16.3779 47.9262 17.1133 47.9262 17.9395C47.9262 19.1933 47.4991 20.1836 46.6449 20.9102C45.7965 21.6308 44.6198 21.9912 43.1147 21.9912H40.8223ZM40.8223 19.8555H43.1583C43.8498 19.8555 44.3757 19.6914 44.736 19.3633C45.1021 19.0352 45.2851 18.5664 45.2851 17.957C45.2851 17.3301 45.1021 16.8232 44.736 16.4365C44.3699 16.0498 43.8644 15.8506 43.2193 15.8389H40.8223V19.8555ZM52.2234 26.5H49.6956V13H52.2234V26.5ZM59.7718 26.5C59.6556 26.2715 59.5713 25.9873 59.5191 25.6475C58.9089 26.333 58.1157 26.6758 57.1394 26.6758C56.2155 26.6758 55.4485 26.4062 54.8383 25.8672C54.234 25.3281 53.9318 24.6484 53.9318 23.8281C53.9318 22.8203 54.3008 22.0469 55.0388 21.5078C55.7826 20.9688 56.8547 20.6963 58.2551 20.6905H59.4144V20.1455C59.4144 19.7061 59.3011 19.3545 59.0745 19.0908C58.8537 18.8271 58.5021 18.6953 58.0198 18.6953C57.5956 18.6953 57.2615 18.7979 57.0174 19.003C56.7792 19.208 56.6601 19.4893 56.6601 19.8467H54.141C54.141 19.2959 54.3095 18.7861 54.6466 18.3174C54.9836 17.8486 55.4601 17.4824 56.076 17.2188C56.692 16.9492 57.3835 16.8145 58.1506 16.8145C59.3128 16.8145 60.2338 17.1103 60.9137 17.7021C61.5992 18.2881 61.9423 19.1143 61.9423 20.1807V24.3027C61.9483 25.2051 62.0727 25.8877 62.3172 26.3506V26.5H59.7718ZM57.6886 24.7334C58.0605 24.7334 58.4033 24.6514 58.7171 24.4873C59.0309 24.3174 59.2634 24.0918 59.4144 23.8105V22.1758H58.4731C57.2121 22.1758 56.5409 22.6153 56.4596 23.4942L56.4509 23.6435C56.4509 23.9599 56.5613 24.2207 56.7821 24.4258C57.0029 24.6309 57.3051 24.7334 57.6886 24.7334ZM66.1959 16.9902L66.2742 18.0889C66.9481 17.2393 67.8521 16.8145 68.9851 16.8145C69.9848 16.8145 70.7286 17.1103 71.2165 17.7021C71.7045 18.294 71.9544 19.1787 71.9663 20.3565V26.5H69.4473V20.418C69.4473 19.8789 69.3307 19.4893 69.0982 19.249C68.8661 19.003 68.4793 18.8799 67.9393 18.8799C67.2302 18.8799 66.6987 19.1846 66.3441 19.794V26.5H63.8251V16.9902H66.1959Z" fill="#FF9900"/>
</g>
<path d="M45.916 39.2168V44.5H43.4453V30.2812H48.8848C50.4733 30.2812 51.7331 30.6947 52.6641 31.5215C53.6016 32.3483 54.0703 33.4421 54.0703 34.8027C54.0703 36.196 53.6113 37.2799 52.6934 38.0547C51.7819 38.8294 50.5026 39.2168 48.8555 39.2168H45.916ZM45.916 37.2344H48.8848C49.7637 37.2344 50.4342 37.0293 50.8965 36.6191C51.3587 36.2025 51.5898 35.6035 51.5898 34.8223C51.5898 34.054 51.3555 33.4421 50.8867 32.9863C50.418 32.5241 49.7734 32.2865 48.9531 32.2734H45.916V37.2344ZM61.541 36.1016C61.2285 36.0495 60.9062 36.0234 60.5742 36.0234C59.487 36.0234 58.7546 36.4401 58.377 37.2734V44.5H56.0039V33.9336H58.2695L58.3281 35.1152C58.901 34.1973 59.6953 33.7383 60.7109 33.7383C61.0495 33.7383 61.3294 33.7839 61.5508 33.875L61.541 36.1016ZM62.2441 39.1191C62.2441 38.084 62.4492 37.153 62.8594 36.3262C63.2695 35.4928 63.8457 34.8548 64.5879 34.4121C65.3301 33.9629 66.1829 33.7383 67.1465 33.7383C68.5723 33.7383 69.7279 34.1973 70.6133 35.1152C71.5052 36.0332 71.987 37.2507 72.0586 38.7676L72.0684 39.3242C72.0684 40.3659 71.8665 41.2969 71.4629 42.1172C71.0658 42.9375 70.4928 43.5723 69.7441 44.0215C69.002 44.4707 68.1426 44.6953 67.166 44.6953C65.6751 44.6953 64.4805 44.2005 63.582 43.2109C62.6901 42.2148 62.2441 40.89 62.2441 39.2363V39.1191ZM64.6172 39.3242C64.6172 40.4115 64.8418 41.2643 65.291 41.8828C65.7402 42.4948 66.3652 42.8008 67.166 42.8008C67.9668 42.8008 68.5885 42.4883 69.0312 41.8633C69.4805 41.2383 69.7051 40.3236 69.7051 39.1191C69.7051 38.0514 69.474 37.2051 69.0117 36.5801C68.556 35.9551 67.9342 35.6426 67.1465 35.6426C66.3717 35.6426 65.7565 35.9518 65.3008 36.5703C64.8451 37.1823 64.6172 38.1003 64.6172 39.3242ZM76.5508 33.9336V45.4375C76.5508 46.5182 76.2806 47.3418 75.7402 47.9082C75.2064 48.4811 74.4219 48.7676 73.3867 48.7676C72.9505 48.7676 72.5306 48.7122 72.127 48.6016V46.7266C72.3743 46.7852 72.6543 46.8145 72.9668 46.8145C73.7546 46.8145 74.1582 46.3848 74.1777 45.5254V33.9336H76.5508ZM73.9727 31.1895C73.9727 30.8249 74.0866 30.5221 74.3145 30.2812C74.5488 30.0404 74.8809 29.9199 75.3105 29.9199C75.7402 29.9199 76.0723 30.0404 76.3066 30.2812C76.541 30.5221 76.6582 30.8249 76.6582 31.1895C76.6582 31.5475 76.541 31.847 76.3066 32.0879C76.0723 32.3223 75.7402 32.4395 75.3105 32.4395C74.8809 32.4395 74.5488 32.3223 74.3145 32.0879C74.0866 31.847 73.9727 31.5475 73.9727 31.1895ZM83.748 44.6953C82.2441 44.6953 81.0234 44.2233 80.0859 43.2793C79.1549 42.3288 78.6895 41.0658 78.6895 39.4902V39.1973C78.6895 38.1426 78.8913 37.2018 79.2949 36.375C79.7051 35.5417 80.278 34.8939 81.0137 34.4316C81.7493 33.9694 82.5697 33.7383 83.4746 33.7383C84.9134 33.7383 86.0234 34.1973 86.8047 35.1152C87.5924 36.0332 87.9863 37.332 87.9863 39.0117V39.9688H81.082C81.1536 40.8411 81.4434 41.5312 81.9512 42.0391C82.4655 42.5469 83.11 42.8008 83.8848 42.8008C84.972 42.8008 85.8574 42.3613 86.541 41.4824L87.8203 42.7031C87.3971 43.3346 86.8307 43.8262 86.1211 44.1777C85.418 44.5228 84.627 44.6953 83.748 44.6953ZM83.4648 35.6426C82.8138 35.6426 82.2865 35.8704 81.8828 36.3262C81.4857 36.7819 81.2318 37.4167 81.1211 38.2305H85.6426V38.0547C85.5905 37.2604 85.3789 36.6615 85.0078 36.2578C84.6367 35.8477 84.1224 35.6426 83.4648 35.6426ZM92.8105 31.3652V33.9336H94.6758V35.6914H92.8105V41.5898C92.8105 41.9935 92.8887 42.2865 93.0449 42.4688C93.2077 42.6445 93.4941 42.7324 93.9043 42.7324C94.1777 42.7324 94.4544 42.6999 94.7344 42.6348V44.4707C94.194 44.6204 93.6732 44.6953 93.1719 44.6953C91.349 44.6953 90.4375 43.6895 90.4375 41.6777V35.6914H88.6992V33.9336H90.4375V31.3652H92.8105ZM95.7598 39.1191C95.7598 38.084 95.9648 37.153 96.375 36.3262C96.7852 35.4928 97.3613 34.8548 98.1035 34.4121C98.8457 33.9629 99.6986 33.7383 100.662 33.7383C102.088 33.7383 103.243 34.1973 104.129 35.1152C105.021 36.0332 105.503 37.2507 105.574 38.7676L105.584 39.3242C105.584 40.3659 105.382 41.2969 104.979 42.1172C104.581 42.9375 104.008 43.5723 103.26 44.0215C102.518 44.4707 101.658 44.6953 100.682 44.6953C99.1908 44.6953 97.9961 44.2005 97.0977 43.2109C96.2057 42.2148 95.7598 40.89 95.7598 39.2363V39.1191ZM98.1328 39.3242C98.1328 40.4115 98.3574 41.2643 98.8066 41.8828C99.2559 42.4948 99.8809 42.8008 100.682 42.8008C101.482 42.8008 102.104 42.4883 102.547 41.8633C102.996 41.2383 103.221 40.3236 103.221 39.1191C103.221 38.0514 102.99 37.2051 102.527 36.5801C102.072 35.9551 101.45 35.6426 100.662 35.6426C99.8874 35.6426 99.2721 35.9518 98.8164 36.5703C98.3607 37.1823 98.1328 38.1003 98.1328 39.3242ZM113.514 41.6289C113.514 41.2057 113.338 40.8835 112.986 40.6621C112.641 40.4408 112.065 40.2454 111.258 40.0762C110.451 39.9069 109.777 39.6921 109.236 39.4316C108.051 38.8587 107.459 38.0286 107.459 36.9414C107.459 36.0299 107.843 35.2682 108.611 34.6562C109.38 34.0443 110.356 33.7383 111.541 33.7383C112.804 33.7383 113.823 34.0508 114.598 34.6758C115.379 35.3008 115.77 36.1113 115.77 37.1074H113.396C113.396 36.6517 113.227 36.2741 112.889 35.9746C112.55 35.6686 112.101 35.5156 111.541 35.5156C111.02 35.5156 110.594 35.6361 110.262 35.877C109.936 36.1178 109.773 36.4401 109.773 36.8438C109.773 37.2083 109.926 37.4915 110.232 37.6934C110.538 37.8952 111.157 38.1003 112.088 38.3086C113.019 38.5104 113.748 38.7546 114.275 39.041C114.809 39.321 115.203 39.6595 115.457 40.0566C115.717 40.4538 115.848 40.9355 115.848 41.502C115.848 42.4525 115.454 43.224 114.666 43.8164C113.878 44.4023 112.846 44.6953 111.57 44.6953C110.704 44.6953 109.933 44.5391 109.256 44.2266C108.579 43.9141 108.051 43.4844 107.674 42.9375C107.296 42.3906 107.107 41.8014 107.107 41.1699H109.412C109.445 41.7298 109.656 42.1628 110.047 42.4688C110.438 42.7682 110.955 42.918 111.6 42.918C112.225 42.918 112.7 42.8008 113.025 42.5664C113.351 42.3255 113.514 42.013 113.514 41.6289Z" fill="#FF0000"/>
<path d="M137.092 34.35C137.092 37.1681 135.286 39.35 133.171 39.35C131.056 39.35 129.25 37.1681 129.25 34.35C129.25 31.5318 131.056 29.35 133.171 29.35C135.286 29.35 137.092 31.5318 137.092 34.35Z" fill="#FFDE68" fill-opacity="0.8" stroke="black" stroke-width="0.5"/>
<path d="M131.191 42.75H134.947L135.932 38.34H130.313L131.191 42.75Z" fill="#C4C4C4"/>
<rect width="5.25826" height="0.209868" rx="0.104934" transform="matrix(0.997472 0.0710651 -0.0385224 0.999258 130.475 38.9887)" fill="black" fill-opacity="0.3"/>
<rect width="4.79429" height="0.209868" rx="0.104934" transform="matrix(0.997472 0.0710651 -0.0385224 0.999258 130.63 39.8287)" fill="black" fill-opacity="0.3"/>
<rect width="4.48498" height="0.209868" rx="0.104934" transform="matrix(0.997472 0.0710651 -0.0385224 0.999258 130.784 40.6687)" fill="black" fill-opacity="0.3"/>
<rect width="4.09835" height="0.209868" rx="0.104934" transform="matrix(0.997472 0.0710651 -0.0385224 0.999258 130.97 41.5087)" fill="black" fill-opacity="0.3"/>
<rect width="1.54655" height="0.209868" rx="0.104934" transform="matrix(0.997472 0.0710651 -0.0385224 0.999258 131.124 42.3487)" fill="black" fill-opacity="0.3"/>
<line y1="-0.5" x2="4.42412" y2="-0.5" transform="matrix(0.314249 0.949341 -0.85304 0.521846 131.703 34.14)" stroke="black" stroke-opacity="0.5"/>
<line y1="-0.5" x2="4.42412" y2="-0.5" transform="matrix(0.314249 -0.949341 -0.85304 -0.521846 133.094 38.34)" stroke="black" stroke-opacity="0.5"/>
<line x1="133.594" y1="34.14" x2="133.594" y2="38.34" stroke="black" stroke-opacity="0.5"/>
<path d="M140.55 36.2324C140.55 35.2388 141.634 34.6251 142.486 35.1361L142.569 35.1857C142.84 35.3483 143.16 35.4093 143.471 35.3578L144.705 35.154C145.352 35.0472 145.94 35.5463 145.94 36.202C145.94 36.8346 145.39 37.327 144.762 37.2578L143.418 37.1098C143.138 37.079 142.855 37.1334 142.607 37.2659L142.43 37.3604C141.578 37.8143 140.55 37.1973 140.55 36.2324Z" fill="#F29B19"/>
<path d="M149.79 36.25L144.592 39.909V32.5911L149.79 36.25Z" fill="#F29B19"/>
<rect x="152.1" y="26.5" width="15.4" height="19.5" fill="#C4C4C4"/>
<rect x="152.1" y="26.5" width="15.4" height="2.6" fill="#FFCA42"/>
<rect x="152.1" y="26.5" width="2.05333" height="19.5" fill="#FFCA42"/>
<rect x="154.153" y="29.1" width="13.3467" height="0.65" fill="#FFF1F1"/>
<rect x="154.153" y="30.4" width="13.3467" height="0.65" fill="#FFF1F1"/>
<rect x="154.153" y="31.7" width="13.3467" height="0.65" fill="#FFF1F1"/>
<rect x="154.153" y="33" width="13.3467" height="0.65" fill="#FFF1F1"/>
<rect x="154.153" y="34.3" width="13.3467" height="0.65" fill="#FFF1F1"/>
<rect x="154.153" y="35.6" width="13.3467" height="0.65" fill="#FFF1F1"/>
<rect x="154.153" y="36.9" width="13.3467" height="0.65" fill="#FFF1F1"/>
<rect x="154.153" y="38.2" width="13.3467" height="0.65" fill="#FFF1F1"/>
<rect x="154.153" y="39.5" width="13.3467" height="0.65" fill="#FFF1F1"/>
<rect x="154.153" y="40.8" width="13.3467" height="0.65" fill="#FFF1F1"/>
<rect x="154.153" y="42.1" width="13.3467" height="0.65" fill="#FFF1F1"/>
<rect x="154.153" y="43.4" width="13.3467" height="0.65" fill="#FFF1F1"/>
<rect x="154.153" y="44.7" width="13.3467" height="0.65" fill="#FFF1F1"/>
<rect x="154.153" y="26.5" width="0.256667" height="2.6" fill="black" fill-opacity="0.5"/>
<rect x="156.207" y="26.5" width="0.256667" height="2.6" fill="black" fill-opacity="0.5"/>
<rect x="160.313" y="26.5" width="0.256667" height="2.6" fill="black" fill-opacity="0.5"/>
<rect x="162.367" y="26.5" width="0.256667" height="2.6" fill="black" fill-opacity="0.5"/>
<rect x="164.42" y="26.5" width="0.256667" height="2.6" fill="black" fill-opacity="0.5"/>
<rect x="166.473" y="26.5" width="0.256667" height="2.6" fill="black" fill-opacity="0.5"/>
<rect x="158.26" y="26.5" width="0.256667" height="2.6" fill="black" fill-opacity="0.5"/>
<defs>
<clipPath id="clip0">
<rect width="60" height="14" fill="white" transform="translate(12 12.5)"/>
</clipPath>
</defs>
</svg>
