<svg width="360" height="120" viewBox="0 0 360 120" fill="none" xmlns="http://www.w3.org/2000/svg">
<rect width="360" height="120" fill="#C4C4C4"/>
<g clip-path="url(#clip0)">
<path d="M46.1862 44.6172L49.603 26.4062H54.8155L49.1846 52H43.9199L39.7883 34.8789L35.6568 52H30.392L24.7612 26.4062H29.9737L33.4079 44.582L37.5918 26.4062H42.0197L46.1862 44.6172ZM65.4495 52.3516C62.6835 52.3516 60.4288 51.4961 58.6855 49.7852C56.9539 48.0742 56.0881 45.7949 56.0881 42.9473V42.4551C56.0881 40.5449 56.4541 38.8398 57.1863 37.3398C57.9185 35.8281 58.9528 34.668 60.2894 33.8594C61.6375 33.0391 63.1716 32.6289 64.8916 32.6289C67.4717 32.6289 69.4997 33.4492 70.9757 35.0898C72.4633 36.7305 73.2071 39.0566 73.2071 42.0684V44.1426H61.1959C61.3586 45.3848 61.8467 46.3809 62.6602 47.1309C63.4854 47.8809 64.5256 48.2559 65.7807 48.2559C67.7215 48.2559 69.2382 47.5469 70.3307 46.1289L72.8062 48.9238C72.0508 50.002 71.028 50.8457 69.7379 51.4551C68.448 52.0527 67.0185 52.3516 65.4495 52.3516ZM64.8742 36.7422C63.8747 36.7422 63.0612 37.082 62.4336 37.7617C61.8176 38.4414 61.4225 39.4141 61.2482 40.6797H68.2562V40.2754C68.233 39.1504 67.9308 38.2832 67.3496 37.6738C66.7686 37.0527 65.9435 36.7422 64.8742 36.7422ZM81.6446 42.9824V52H76.4148V26.4062H86.3166C88.2226 26.4062 89.8962 26.7578 91.3372 27.4609C92.79 28.1641 93.9057 29.166 94.6844 30.4668C95.4631 31.7559 95.8524 33.2266 95.8524 34.8789C95.8524 37.3867 94.9981 39.3672 93.2898 40.8203C91.5929 42.2617 89.2395 42.9824 86.2294 42.9824H81.6446ZM81.6446 38.7109H86.3166C87.6997 38.7109 88.7514 38.3828 89.472 37.7266C90.2042 37.0703 90.5702 36.1328 90.5702 34.9141C90.5702 33.6602 90.2042 32.6465 89.472 31.8731C88.7398 31.0996 87.7287 30.7012 86.4387 30.6777H81.6446V38.7109ZM104.447 52H99.3912V25H104.447V52ZM119.544 52C119.311 51.543 119.143 50.9746 119.038 50.2949C117.818 51.666 116.231 52.3516 114.279 52.3516C112.431 52.3516 110.897 51.8125 109.677 50.7344C108.468 49.6562 107.864 48.2969 107.864 46.6562C107.864 44.6406 108.602 43.0938 110.078 42.0156C111.565 40.9375 113.709 40.3926 116.51 40.3809H118.829V39.291C118.829 38.4121 118.602 37.709 118.149 37.1816C117.707 36.6543 117.004 36.3906 116.04 36.3906C115.191 36.3906 114.523 36.5957 114.035 37.0059C113.558 37.416 113.32 37.9785 113.32 38.6934H108.282C108.282 37.5918 108.619 36.5723 109.293 35.6348C109.967 34.6973 110.92 33.9648 112.152 33.4375C113.384 32.8984 114.767 32.6289 116.301 32.6289C118.626 32.6289 120.468 33.2207 121.827 34.4043C123.198 35.5762 123.885 37.2285 123.885 39.3613V47.6055C123.897 49.4102 124.145 50.7754 124.634 51.7012V52H119.544ZM115.377 48.4668C116.121 48.4668 116.807 48.3027 117.434 47.9746C118.062 47.6348 118.527 47.1836 118.829 46.6211V43.3516H116.946C114.424 43.3516 113.082 44.2305 112.919 45.9883L112.902 46.2871C112.902 46.9199 113.123 47.4414 113.564 47.8516C114.006 48.2617 114.61 48.4668 115.377 48.4668ZM132.392 32.9805L132.548 35.1777C133.896 33.4785 135.704 32.6289 137.97 32.6289C139.97 32.6289 141.457 33.2207 142.433 34.4043C143.409 35.5879 143.909 37.3574 143.933 39.7129V52H138.895V39.8359C138.895 38.7578 138.661 37.9785 138.196 37.498C137.732 37.0059 136.959 36.7598 135.879 36.7598C134.46 36.7598 133.397 37.3691 132.688 38.5879V52H127.65V32.9805H132.392Z" fill="#FF9900"/>
</g>
<path d="M91.832 78.4336V89H86.8906V60.5625H97.7695C100.947 60.5625 103.466 61.3893 105.328 63.043C107.203 64.6966 108.141 66.8841 108.141 69.6055C108.141 72.3919 107.223 74.5599 105.387 76.1094C103.564 77.6589 101.005 78.4336 97.7109 78.4336H91.832ZM91.832 74.4688H97.7695C99.5273 74.4688 100.868 74.0586 101.793 73.2383C102.717 72.4049 103.18 71.207 103.18 69.6445C103.18 68.1081 102.711 66.8841 101.773 65.9727C100.836 65.0482 99.5469 64.5729 97.9062 64.5469H91.832V74.4688ZM123.082 72.2031C122.457 72.099 121.812 72.0469 121.148 72.0469C118.974 72.0469 117.509 72.8802 116.754 74.5469V89H112.008V67.8672H116.539L116.656 70.2305C117.802 68.3945 119.391 67.4766 121.422 67.4766C122.099 67.4766 122.659 67.5677 123.102 67.75L123.082 72.2031ZM124.488 78.2383C124.488 76.168 124.898 74.306 125.719 72.6523C126.539 70.9857 127.691 69.7096 129.176 68.8242C130.66 67.9258 132.366 67.4766 134.293 67.4766C137.145 67.4766 139.456 68.3945 141.227 70.2305C143.01 72.0664 143.974 74.5013 144.117 77.5352L144.137 78.6484C144.137 80.7318 143.733 82.5938 142.926 84.2344C142.132 85.875 140.986 87.1445 139.488 88.043C138.004 88.9414 136.285 89.3906 134.332 89.3906C131.35 89.3906 128.961 88.401 127.164 86.4219C125.38 84.4297 124.488 81.7799 124.488 78.4727V78.2383ZM129.234 78.6484C129.234 80.8229 129.684 82.5286 130.582 83.7656C131.48 84.9896 132.73 85.6016 134.332 85.6016C135.934 85.6016 137.177 84.9766 138.062 83.7266C138.961 82.4766 139.41 80.6471 139.41 78.2383C139.41 76.1029 138.948 74.4102 138.023 73.1602C137.112 71.9102 135.868 71.2852 134.293 71.2852C132.743 71.2852 131.513 71.9036 130.602 73.1406C129.69 74.3646 129.234 76.2005 129.234 78.6484ZM153.102 67.8672V90.875C153.102 93.0365 152.561 94.6836 151.48 95.8164C150.413 96.9622 148.844 97.5352 146.773 97.5352C145.901 97.5352 145.061 97.4245 144.254 97.2031V93.4531C144.749 93.5703 145.309 93.6289 145.934 93.6289C147.509 93.6289 148.316 92.7695 148.355 91.0508V67.8672H153.102ZM147.945 62.3789C147.945 61.6497 148.173 61.0443 148.629 60.5625C149.098 60.0807 149.762 59.8398 150.621 59.8398C151.48 59.8398 152.145 60.0807 152.613 60.5625C153.082 61.0443 153.316 61.6497 153.316 62.3789C153.316 63.0951 153.082 63.694 152.613 64.1758C152.145 64.6445 151.48 64.8789 150.621 64.8789C149.762 64.8789 149.098 64.6445 148.629 64.1758C148.173 63.694 147.945 63.0951 147.945 62.3789ZM167.496 89.3906C164.488 89.3906 162.047 88.4466 160.172 86.5586C158.31 84.6576 157.379 82.1315 157.379 78.9805V78.3945C157.379 76.2852 157.783 74.4036 158.59 72.75C159.41 71.0833 160.556 69.7878 162.027 68.8633C163.499 67.9388 165.139 67.4766 166.949 67.4766C169.827 67.4766 172.047 68.3945 173.609 70.2305C175.185 72.0664 175.973 74.6641 175.973 78.0234V79.9375H162.164C162.307 81.6823 162.887 83.0625 163.902 84.0781C164.931 85.0938 166.22 85.6016 167.77 85.6016C169.944 85.6016 171.715 84.7227 173.082 82.9648L175.641 85.4062C174.794 86.6693 173.661 87.6523 172.242 88.3555C170.836 89.0456 169.254 89.3906 167.496 89.3906ZM166.93 71.2852C165.628 71.2852 164.573 71.7409 163.766 72.6523C162.971 73.5638 162.464 74.8333 162.242 76.4609H171.285V76.1094C171.181 74.5208 170.758 73.3229 170.016 72.5156C169.273 71.6953 168.245 71.2852 166.93 71.2852ZM185.621 62.7305V67.8672H189.352V71.3828H185.621V83.1797C185.621 83.987 185.777 84.5729 186.09 84.9375C186.415 85.2891 186.988 85.4648 187.809 85.4648C188.355 85.4648 188.909 85.3997 189.469 85.2695V88.9414C188.388 89.2409 187.346 89.3906 186.344 89.3906C182.698 89.3906 180.875 87.3789 180.875 83.3555V71.3828H177.398V67.8672H180.875V62.7305H185.621ZM191.52 78.2383C191.52 76.168 191.93 74.306 192.75 72.6523C193.57 70.9857 194.723 69.7096 196.207 68.8242C197.691 67.9258 199.397 67.4766 201.324 67.4766C204.176 67.4766 206.487 68.3945 208.258 70.2305C210.042 72.0664 211.005 74.5013 211.148 77.5352L211.168 78.6484C211.168 80.7318 210.764 82.5938 209.957 84.2344C209.163 85.875 208.017 87.1445 206.52 88.043C205.035 88.9414 203.316 89.3906 201.363 89.3906C198.382 89.3906 195.992 88.401 194.195 86.4219C192.411 84.4297 191.52 81.7799 191.52 78.4727V78.2383ZM196.266 78.6484C196.266 80.8229 196.715 82.5286 197.613 83.7656C198.512 84.9896 199.762 85.6016 201.363 85.6016C202.965 85.6016 204.208 84.9766 205.094 83.7266C205.992 82.4766 206.441 80.6471 206.441 78.2383C206.441 76.1029 205.979 74.4102 205.055 73.1602C204.143 71.9102 202.9 71.2852 201.324 71.2852C199.775 71.2852 198.544 71.9036 197.633 73.1406C196.721 74.3646 196.266 76.2005 196.266 78.6484ZM227.027 83.2578C227.027 82.4115 226.676 81.7669 225.973 81.3242C225.283 80.8815 224.13 80.4909 222.516 80.1523C220.901 79.8138 219.553 79.3841 218.473 78.8633C216.103 77.7174 214.918 76.0573 214.918 73.8828C214.918 72.0599 215.686 70.5365 217.223 69.3125C218.759 68.0885 220.712 67.4766 223.082 67.4766C225.608 67.4766 227.646 68.1016 229.195 69.3516C230.758 70.6016 231.539 72.2227 231.539 74.2148H226.793C226.793 73.3034 226.454 72.5482 225.777 71.9492C225.1 71.3372 224.202 71.0312 223.082 71.0312C222.04 71.0312 221.188 71.2721 220.523 71.7539C219.872 72.2357 219.547 72.8802 219.547 73.6875C219.547 74.4167 219.853 74.9831 220.465 75.3867C221.077 75.7904 222.314 76.2005 224.176 76.6172C226.038 77.0208 227.496 77.5091 228.551 78.082C229.618 78.6419 230.406 79.319 230.914 80.1133C231.435 80.9076 231.695 81.8711 231.695 83.0039C231.695 84.9049 230.908 86.4479 229.332 87.6328C227.757 88.8047 225.693 89.3906 223.141 89.3906C221.409 89.3906 219.866 89.0781 218.512 88.4531C217.158 87.8281 216.103 86.9688 215.348 85.875C214.592 84.7812 214.215 83.6029 214.215 82.3398H218.824C218.889 83.4596 219.312 84.3255 220.094 84.9375C220.875 85.5365 221.91 85.8359 223.199 85.8359C224.449 85.8359 225.4 85.6016 226.051 85.1328C226.702 84.651 227.027 84.026 227.027 83.2578Z" fill="#FF0000"/>
<path d="M274.433 67.7C274.433 73.4176 270.76 77.95 266.342 77.95C261.923 77.95 258.25 73.4176 258.25 67.7C258.25 61.9824 261.923 57.45 266.342 57.45C270.76 57.45 274.433 61.9824 274.433 67.7Z" fill="#FFDE68" fill-opacity="0.8" stroke="black" stroke-width="0.5"/>
<path d="M262.383 84.5H269.895L271.864 75.68H260.626L262.383 84.5Z" fill="#C4C4C4"/>
<rect width="10.5165" height="0.419736" rx="0.209868" transform="matrix(0.997472 0.0710651 -0.0385224 0.999258 260.951 76.9775)" fill="black" fill-opacity="0.3"/>
<rect width="9.58859" height="0.419736" rx="0.209868" transform="matrix(0.997472 0.0710651 -0.0385224 0.999258 261.26 78.6575)" fill="black" fill-opacity="0.3"/>
<rect width="8.96997" height="0.419736" rx="0.209868" transform="matrix(0.997472 0.0710651 -0.0385224 0.999258 261.568 80.3375)" fill="black" fill-opacity="0.3"/>
<rect width="8.1967" height="0.419736" rx="0.209868" transform="matrix(0.997472 0.0710651 -0.0385224 0.999258 261.939 82.0175)" fill="black" fill-opacity="0.3"/>
<rect width="3.09309" height="0.419736" rx="0.209868" transform="matrix(0.997472 0.0710651 -0.0385224 0.999258 262.248 83.6974)" fill="black" fill-opacity="0.3"/>
<line y1="-0.5" x2="8.84825" y2="-0.5" transform="matrix(0.314249 0.949341 -0.85304 0.521846 263.407 67.28)" stroke="black" stroke-opacity="0.5"/>
<line y1="-0.5" x2="8.84825" y2="-0.5" transform="matrix(0.314249 -0.949341 -0.85304 -0.521846 266.187 75.68)" stroke="black" stroke-opacity="0.5"/>
<line x1="266.687" y1="67.28" x2="266.687" y2="75.68" stroke="black" stroke-opacity="0.5"/>
<path d="M281.1 71.4647C281.1 69.4776 283.268 68.2501 284.972 69.2722L285.137 69.3714C285.679 69.6965 286.319 69.8185 286.943 69.7155L289.409 69.308C290.703 69.0943 291.88 70.0925 291.88 71.404V71.404C291.88 72.6692 290.781 73.654 289.523 73.5155L286.836 73.2196C286.276 73.158 285.711 73.2668 285.214 73.5318L284.859 73.7207C283.156 74.6286 281.1 73.3945 281.1 71.4647V71.4647Z" fill="#F29B19"/>
<path d="M299.58 71.5L289.185 78.8179V64.1821L299.58 71.5Z" fill="#F29B19"/>
<rect x="304.2" y="52" width="30.8" height="39" fill="#C4C4C4"/>
<rect x="304.2" y="52" width="30.8" height="5.2" fill="#FFCA42"/>
<rect x="304.2" y="52" width="4.10667" height="39" fill="#FFCA42"/>
<rect x="308.307" y="57.2" width="26.6933" height="1.3" fill="#FFF1F1"/>
<rect x="308.307" y="59.8" width="26.6933" height="1.3" fill="#FFF1F1"/>
<rect x="308.307" y="62.4" width="26.6933" height="1.3" fill="#FFF1F1"/>
<rect x="308.307" y="65" width="26.6933" height="1.3" fill="#FFF1F1"/>
<rect x="308.307" y="67.6" width="26.6933" height="1.3" fill="#FFF1F1"/>
<rect x="308.307" y="70.2" width="26.6933" height="1.3" fill="#FFF1F1"/>
<rect x="308.307" y="72.8" width="26.6933" height="1.3" fill="#FFF1F1"/>
<rect x="308.307" y="75.4" width="26.6933" height="1.3" fill="#FFF1F1"/>
<rect x="308.307" y="78" width="26.6933" height="1.3" fill="#FFF1F1"/>
<rect x="308.307" y="80.6" width="26.6933" height="1.3" fill="#FFF1F1"/>
<rect x="308.307" y="83.2" width="26.6933" height="1.3" fill="#FFF1F1"/>
<rect x="308.307" y="85.8" width="26.6933" height="1.3" fill="#FFF1F1"/>
<rect x="308.307" y="88.4" width="26.6933" height="1.3" fill="#FFF1F1"/>
<rect x="308.307" y="52" width="0.513333" height="5.2" fill="black" fill-opacity="0.5"/>
<rect x="312.413" y="52" width="0.513333" height="5.2" fill="black" fill-opacity="0.5"/>
<rect x="320.627" y="52" width="0.513333" height="5.2" fill="black" fill-opacity="0.5"/>
<rect x="324.733" y="52" width="0.513333" height="5.2" fill="black" fill-opacity="0.5"/>
<rect x="328.84" y="52" width="0.513333" height="5.2" fill="black" fill-opacity="0.5"/>
<rect x="332.947" y="52" width="0.513333" height="5.2" fill="black" fill-opacity="0.5"/>
<rect x="316.52" y="52" width="0.513333" height="5.2" fill="black" fill-opacity="0.5"/>
<defs>
<clipPath id="clip0">
<rect width="120" height="28" fill="white" transform="translate(24 24)"/>
</clipPath>
</defs>
</svg>
